<svg id="Layer_1" data-name="Layer 1" xmlns="http://www.w3.org/2000/svg" viewBox="0 0 265.92 255.74"><defs><style>.cls-1{fill:#c5eae8;}.cls-12,.cls-13,.cls-14,.cls-15,.cls-16,.cls-17,.cls-18,.cls-19,.cls-2,.cls-7{fill:none;}.cls-2{stroke:#231f20;stroke-width:1.15px;}.cls-10,.cls-14,.cls-15,.cls-16,.cls-17,.cls-18,.cls-19,.cls-2,.cls-3,.cls-7,.cls-8,.cls-9{stroke-miterlimit:10;}.cls-11,.cls-3{fill:#fff;}.cls-3,.cls-7{stroke:#727979;}.cls-3{stroke-width:1.81px;}.cls-4{fill:#f9d1cf;}.cls-5{fill:#f5f4c1;}.cls-6{fill:#ffa49b;}.cls-12,.cls-13,.cls-14,.cls-17,.cls-7{stroke-linecap:round;}.cls-7{stroke-width:2px;stroke-dasharray:22.76 7.59;}.cls-8{fill:#6fa3f7;}.cls-10,.cls-8,.cls-9{stroke:#000;stroke-width:0.59px;}.cls-9{fill:#88ce88;}.cls-10{fill:#d68fd6;}.cls-12,.cls-13{stroke:#5a616d;stroke-linejoin:round;}.cls-12{stroke-width:1.29px;}.cls-13{stroke-width:0.75px;}.cls-14,.cls-15,.cls-16{stroke:#d68fd6;}.cls-14,.cls-16,.cls-17,.cls-19{stroke-width:1.24px;}.cls-15,.cls-18{stroke-width:0.62px;}.cls-17,.cls-18,.cls-19{stroke:#88ce88;}</style></defs><title>granules</title><rect class="cls-1" x="0.58" y="0.58" width="264.77" height="254.58" rx="63" ry="63"/><rect class="cls-2" x="0.58" y="0.58" width="264.77" height="254.58" rx="63" ry="63"/><path class="cls-3" d="M101.93,42.55c-2.67.68-42.53,11.48-56.66,49-14.75,39.19,8,82.63,37.77,102.69,46.59,31.36,123.08,14.11,140.46-30.69,14.05-36.21-14.78-79.45-41.9-100.32C173.11,56.67,141.66,32.47,101.93,42.55Z"/><path class="cls-4" d="M105.23,51.53c-2.38.6-37.86,10.22-50.43,43.6-13.13,34.88,7.09,73.54,33.62,91.4,41.46,27.92,109.55,12.56,125-27.31,12.5-32.23-13.16-70.72-37.3-89.3C168.59,64.1,140.59,42.56,105.23,51.53Z"/><circle class="cls-5" cx="137.57" cy="148.09" r="28.98"/><circle class="cls-6" cx="136.83" cy="148.82" r="25.31"/><circle class="cls-7" cx="137.57" cy="148.09" r="28.98" transform="translate(-30.65 260.16) rotate(-80.78)"/><path class="cls-8" d="M80.41,90.54a7.78,7.78,0,1,0,7.77-7.78A7.78,7.78,0,0,0,80.41,90.54Z"/><path class="cls-9" d="M70.07,110.58a7.78,7.78,0,1,0,7.77-7.77A7.77,7.77,0,0,0,70.07,110.58Z"/><path class="cls-9" d="M136.83,83a7.78,7.78,0,1,0,7.78-7.78A7.78,7.78,0,0,0,136.83,83Z"/><path class="cls-8" d="M185.68,132.68a7.78,7.78,0,1,0,7.77-7.78A7.77,7.77,0,0,0,185.68,132.68Z"/><path class="cls-10" d="M75.67,155.14a7.78,7.78,0,1,0,7.77-7.78A7.78,7.78,0,0,0,75.67,155.14Z"/><path class="cls-10" d="M182.36,153.43a7.78,7.78,0,1,0,7.78-7.77A7.78,7.78,0,0,0,182.36,153.43Z"/><path class="cls-11" d="M30.23,222.65a7.93,7.93,0,0,0,7.9,7.92l54.55,0a7.94,7.94,0,0,0,7.92-7.91l0-41.37a7.93,7.93,0,0,0-7.9-7.92l-54.55,0a7.92,7.92,0,0,0-7.92,7.9Z"/><path class="cls-12" d="M30.23,222.65a7.93,7.93,0,0,0,7.9,7.92l54.55,0a7.94,7.94,0,0,0,7.92-7.91l0-41.37a7.93,7.93,0,0,0-7.9-7.92l-54.55,0a7.92,7.92,0,0,0-7.92,7.9Z"/><polyline class="cls-13" points="95.51 173.74 80.79 157.21 35.84 173.69"/><path class="cls-11" d="M164,76.68a7.93,7.93,0,0,0,7.9,7.92l54.55,0a8,8,0,0,0,7.92-7.91l0-41.37a7.92,7.92,0,0,0-7.9-7.91l-54.56,0a7.92,7.92,0,0,0-7.91,7.9Z"/><path class="cls-12" d="M164,76.68a7.93,7.93,0,0,0,7.9,7.92l54.55,0a8,8,0,0,0,7.92-7.91l0-41.37a7.92,7.92,0,0,0-7.9-7.91l-54.56,0a7.92,7.92,0,0,0-7.91,7.9Z"/><polyline class="cls-13" points="164 34.37 147.75 82.39 169.4 84.64"/><line class="cls-14" x1="85.14" y1="187.25" x2="79.76" y2="177.1"/><line class="cls-14" x1="91.14" y1="198.58" x2="88.22" y2="193.07"/><line class="cls-14" x1="85.14" y1="187.25" x2="77.81" y2="191.14"/><line class="cls-14" x1="88.22" y1="193.07" x2="80.89" y2="196.95"/><path class="cls-14" d="M70.49,199.07c1.71,3.23,5,4.82,7.43,3.55"/><path class="cls-14" d="M70.4,198.89c-1.72-3.23-1.17-6.87,1.23-8.14"/><path class="cls-14" d="M77.92,202.62c2.57-1.37,4-3.73,3.18-5.28"/><path class="cls-14" d="M71.63,190.75c2.57-1.36,5.34-1.19,6.18.39"/><line class="cls-15" x1="80.79" y1="194.5" x2="79.8" y2="192.64"/><line class="cls-15" x1="82.41" y1="193.64" x2="81.42" y2="191.78"/><line class="cls-15" x1="84.03" y1="192.78" x2="83.04" y2="190.92"/><line class="cls-15" x1="85.65" y1="191.92" x2="84.67" y2="190.06"/><line class="cls-15" x1="87.28" y1="191.06" x2="86.29" y2="189.2"/><line class="cls-14" x1="45.02" y1="216.73" x2="50.4" y2="226.88"/><line class="cls-14" x1="39.01" y1="205.41" x2="41.93" y2="210.92"/><line class="cls-14" x1="45.02" y1="216.73" x2="52.35" y2="212.85"/><line class="cls-14" x1="41.93" y1="210.92" x2="49.26" y2="207.03"/><path class="cls-14" d="M59.67,204.91c-1.71-3.22-5-4.81-7.43-3.54"/><path class="cls-14" d="M59.76,205.09c1.71,3.23,1.16,6.87-1.23,8.14"/><path class="cls-14" d="M52.24,201.37c-2.58,1.36-4,3.73-3.18,5.28"/><path class="cls-14" d="M58.53,213.23c-2.57,1.37-5.34,1.2-6.18-.38"/><line class="cls-15" x1="49.37" y1="209.48" x2="50.36" y2="211.35"/><line class="cls-15" x1="47.75" y1="210.34" x2="48.74" y2="212.21"/><line class="cls-15" x1="46.12" y1="211.21" x2="47.11" y2="213.07"/><line class="cls-15" x1="44.5" y1="212.06" x2="45.49" y2="213.93"/><line class="cls-15" x1="42.88" y1="212.93" x2="43.87" y2="214.79"/><line class="cls-16" x1="67.66" y1="198.84" x2="61.19" y2="202.27"/><line class="cls-16" x1="69.65" y1="202.59" x2="63.17" y2="206.02"/><path class="cls-16" d="M58.85,198.72a19.53,19.53,0,0,1,6.83-3.62"/><path class="cls-16" d="M64.81,210a19.52,19.52,0,0,0,6.82-3.62"/><line class="cls-17" x1="221.41" y1="43.18" x2="217.81" y2="32.27"/><line class="cls-17" x1="225.43" y1="55.35" x2="223.48" y2="49.43"/><line class="cls-17" x1="221.41" y1="43.18" x2="213.54" y2="45.78"/><line class="cls-17" x1="223.48" y1="49.43" x2="215.6" y2="52.03"/><path class="cls-17" d="M205,52.37c1.15,3.47,4.16,5.6,6.73,4.75"/><path class="cls-17" d="M204.93,52.18c-1.15-3.47,0-7,2.58-7.82"/><path class="cls-17" d="M211.72,57.12c2.77-.92,4.57-3,4-4.67"/><path class="cls-17" d="M207.51,44.36c2.76-.91,5.47-.28,6,1.42"/><line class="cls-18" x1="215.91" y1="49.6" x2="215.25" y2="47.6"/><line class="cls-18" x1="217.65" y1="49.02" x2="216.99" y2="47.02"/><line class="cls-18" x1="219.4" y1="48.45" x2="218.73" y2="46.44"/><line class="cls-18" x1="221.14" y1="47.87" x2="220.48" y2="45.87"/><line class="cls-18" x1="222.88" y1="47.29" x2="222.22" y2="45.29"/><line class="cls-17" x1="176.91" y1="65.51" x2="180.52" y2="76.42"/><line class="cls-17" x1="172.89" y1="53.34" x2="174.85" y2="59.26"/><line class="cls-17" x1="176.91" y1="65.51" x2="184.79" y2="62.91"/><line class="cls-17" x1="174.85" y1="59.26" x2="182.73" y2="56.66"/><path class="cls-17" d="M193.34,56.32c-1.14-3.47-4.16-5.6-6.73-4.75"/><path class="cls-17" d="M193.4,56.51c1.15,3.47,0,7-2.58,7.82"/><path class="cls-17" d="M186.61,51.57c-2.77.92-4.57,3-4,4.67"/><path class="cls-17" d="M190.82,64.33c-2.76.91-5.47.28-6-1.42"/><line class="cls-18" x1="182.42" y1="59.09" x2="183.08" y2="61.1"/><line class="cls-18" x1="180.68" y1="59.67" x2="181.34" y2="61.67"/><line class="cls-18" x1="178.93" y1="60.25" x2="179.6" y2="62.25"/><line class="cls-18" x1="177.19" y1="60.82" x2="177.85" y2="62.82"/><line class="cls-18" x1="175.45" y1="61.4" x2="176.11" y2="63.4"/><line class="cls-19" x1="202.24" y1="51.67" x2="195.28" y2="53.97"/><line class="cls-19" x1="203.57" y1="55.7" x2="196.61" y2="58"/><path class="cls-19" d="M193.58,50.07a19.42,19.42,0,0,1,7.33-2.42"/><path class="cls-19" d="M197.56,62.14a19.39,19.39,0,0,0,7.34-2.42"/></svg>