<svg id="Layer_1" data-name="Layer 1" xmlns="http://www.w3.org/2000/svg" viewBox="0 0 265.92 255.74"><defs><style>.cls-1{fill:#f9e4ca;}.cls-2,.cls-4{fill:none;stroke:#231f20;}.cls-10,.cls-12,.cls-13,.cls-2,.cls-3,.cls-4,.cls-7{stroke-miterlimit:10;}.cls-2{stroke-width:1.15px;}.cls-3{fill:#86c3d1;}.cls-12,.cls-13,.cls-3{stroke:#565656;stroke-width:1.18px;}.cls-4{stroke-width:1.69px;}.cls-5{fill:#231f20;}.cls-6,.cls-7,.cls-8{fill:#88ce88;stroke:#88ce88;}.cls-6{stroke-width:0.49px;}.cls-7{stroke-width:1.98px;}.cls-8{stroke-width:1.48px;}.cls-10,.cls-11,.cls-9{fill:#d68fd6;stroke:#d68fd6;}.cls-9{stroke-width:0.51px;}.cls-10{stroke-width:2.04px;}.cls-11{stroke-width:1.53px;}.cls-12{fill:#94ce86;}.cls-13{fill:#dba1a7;}</style></defs><title>helicase</title><rect class="cls-1" x="0.58" y="0.58" width="264.77" height="254.58" rx="63" ry="63"/><rect class="cls-2" x="0.58" y="0.58" width="264.77" height="254.58" rx="63" ry="63"/><path class="cls-3" d="M241.85,198.11c0,10.33-12.17,18.7-27.21,18.7s-27.21-8.37-27.21-18.7,12.18-18.72,27.21-18.72S241.85,187.77,241.85,198.11Z"/><path class="cls-3" d="M234.34,223.9c0,7.39-9,13.37-20,13.37s-20-6-20-13.37,9-13.36,20-13.36S234.34,216.51,234.34,223.9Z"/><line class="cls-4" x1="181.26" y1="138.81" x2="181.11" y2="167.04"/><rect class="cls-5" x="180.26" y="161.56" width="1.69" height="10.96" transform="translate(13.08 347.23) rotate(-89.69)"/><line class="cls-4" x1="193.75" y1="138.9" x2="193.61" y2="164.59"/><polygon class="cls-5" points="188.6 163.09 193.59 171.85 198.69 163.14 188.6 163.09"/><line class="cls-6" x1="99.8" y1="86.86" x2="99.01" y2="86.86"/><line class="cls-6" x1="97.05" y1="86.86" x2="96.26" y2="86.86"/><line class="cls-6" x1="94.3" y1="86.86" x2="93.51" y2="86.86"/><line class="cls-6" x1="91.54" y1="86.86" x2="90.76" y2="86.86"/><line class="cls-6" x1="89.77" y1="85.87" x2="89.77" y2="84.7"/><line class="cls-6" x1="89.77" y1="82.73" x2="89.77" y2="81.55"/><line class="cls-6" x1="90.36" y1="79.78" x2="90.83" y2="79.15"/><line class="cls-6" x1="91.41" y1="77.37" x2="91.41" y2="76.59"/><line class="cls-6" x1="90.83" y1="74.82" x2="90.36" y2="74.18"/><line class="cls-6" x1="89.77" y1="72.41" x2="89.77" y2="71.22"/><line class="cls-6" x1="89.77" y1="69.26" x2="89.77" y2="68.08"/><line class="cls-6" x1="89.77" y1="66.11" x2="89.77" y2="64.94"/><line class="cls-6" x1="89.77" y1="62.97" x2="89.77" y2="61.79"/><line class="cls-6" x1="90.72" y1="60.54" x2="91.48" y2="60.33"/><line class="cls-6" x1="93.3" y1="59.62" x2="94.01" y2="59.26"/><line class="cls-6" x1="95.66" y1="58.22" x2="96.28" y2="57.74"/><line class="cls-6" x1="97.7" y1="56.4" x2="98.23" y2="55.81"/><line class="cls-6" x1="99.37" y1="54.22" x2="99.76" y2="53.54"/><line class="cls-6" x1="100.58" y1="51.77" x2="100.84" y2="51.02"/><line class="cls-6" x1="101.31" y1="49.12" x2="101.42" y2="48.34"/><line class="cls-6" x1="101.51" y1="46.39" x2="101.48" y2="45.6"/><line class="cls-6" x1="101.19" y1="43.67" x2="101.01" y2="42.9"/><line class="cls-6" x1="100.36" y1="41.05" x2="100.04" y2="40.34"/><line class="cls-6" x1="99.05" y1="38.65" x2="98.59" y2="38.01"/><line class="cls-6" x1="97.3" y1="36.54" x2="96.73" y2="36.01"/><line class="cls-6" x1="95.18" y1="34.81" x2="94.51" y2="34.38"/><line class="cls-6" x1="92.76" y1="33.51" x2="92.04" y2="33.22"/><line class="cls-6" x1="90.15" y1="32.69" x2="89.38" y2="32.55"/><line class="cls-6" x1="87.43" y1="32.38" x2="86.64" y2="32.39"/><line class="cls-6" x1="84.69" y1="32.61" x2="83.92" y2="32.77"/><line class="cls-6" x1="82.06" y1="33.35" x2="81.34" y2="33.66"/><line class="cls-6" x1="79.61" y1="34.57" x2="78.96" y2="35.01"/><line class="cls-6" x1="77.45" y1="36.25" x2="76.88" y2="36.81"/><line class="cls-6" x1="75.63" y1="38.31" x2="75.19" y2="38.96"/><line class="cls-6" x1="74.25" y1="40.68" x2="73.94" y2="41.4"/><line class="cls-6" x1="73.34" y1="43.26" x2="73.18" y2="44.03"/><line class="cls-6" x1="72.94" y1="45.98" x2="72.92" y2="46.77"/><line class="cls-6" x1="71.95" y1="47.99" x2="70.81" y2="48.28"/><line class="cls-6" x1="68.9" y1="48.77" x2="67.76" y2="49.07"/><line class="cls-6" x1="65.86" y1="49.56" x2="64.72" y2="49.86"/><line class="cls-6" x1="62.82" y1="50.35" x2="61.67" y2="50.65"/><line class="cls-6" x1="59.98" y1="50.26" x2="59.37" y2="49.75"/><line class="cls-6" x1="57.68" y1="48.84" x2="56.92" y2="48.63"/><line class="cls-6" x1="55" y1="48.5" x2="54.23" y2="48.62"/><line class="cls-6" x1="52.58" y1="48.05" x2="51.77" y2="47.19"/><line class="cls-6" x1="50.41" y1="45.77" x2="49.59" y2="44.92"/><line class="cls-6" x1="48.23" y1="43.5" x2="47.42" y2="42.65"/><line class="cls-6" x1="46.06" y1="41.22" x2="45.25" y2="40.36"/><line class="cls-6" x1="43.9" y1="38.94" x2="43.08" y2="38.09"/><line class="cls-6" x1="42.78" y1="36.48" x2="43.09" y2="35.74"/><line class="cls-6" x1="43.57" y1="33.86" x2="43.66" y2="33.08"/><line class="cls-6" x1="43.59" y1="31.14" x2="43.46" y2="30.36"/><line class="cls-6" x1="42.84" y1="28.52" x2="42.48" y2="27.81"/><line class="cls-6" x1="41.38" y1="26.23" x2="40.84" y2="25.64"/><line class="cls-6" x1="39.32" y1="24.43" x2="38.64" y2="24.03"/><line class="cls-6" x1="36.84" y1="23.29" x2="36.07" y2="23.11"/><line class="cls-6" x1="34.14" y1="22.92" x2="33.36" y2="22.94"/><line class="cls-6" x1="31.45" y1="23.3" x2="30.7" y2="23.56"/><line class="cls-6" x1="28.97" y1="24.45" x2="28.33" y2="24.91"/><line class="cls-6" x1="26.92" y1="26.25" x2="26.43" y2="26.86"/><line class="cls-6" x1="25.46" y1="28.56" x2="25.17" y2="29.29"/><line class="cls-6" x1="24.72" y1="31.18" x2="24.65" y2="31.96"/><line class="cls-6" x1="24.76" y1="33.91" x2="24.91" y2="34.68"/><line class="cls-6" x1="25.55" y1="36.51" x2="25.92" y2="37.21"/><line class="cls-6" x1="27.06" y1="38.78" x2="27.61" y2="39.35"/><line class="cls-6" x1="29.15" y1="40.54" x2="29.83" y2="40.92"/><line class="cls-6" x1="31.65" y1="41.62" x2="32.41" y2="41.79"/><line class="cls-6" x1="34.35" y1="41.96" x2="35.14" y2="41.91"/><line class="cls-6" x1="37.04" y1="41.51" x2="37.79" y2="41.24"/><line class="cls-6" x1="39.39" y1="41.62" x2="40.2" y2="42.47"/><line class="cls-6" x1="41.55" y1="43.89" x2="42.37" y2="44.75"/><line class="cls-6" x1="43.73" y1="46.17" x2="44.54" y2="47.02"/><line class="cls-6" x1="45.9" y1="48.44" x2="46.71" y2="49.3"/><line class="cls-6" x1="48.07" y1="50.72" x2="48.88" y2="51.57"/><line class="cls-6" x1="49.37" y1="53.25" x2="49.22" y2="54.03"/><line class="cls-6" x1="49.25" y1="55.95" x2="49.43" y2="56.71"/><line class="cls-6" x1="50.25" y1="58.45" x2="50.73" y2="59.07"/><line class="cls-6" x1="52.2" y1="60.31" x2="52.89" y2="60.68"/><line class="cls-6" x1="54.74" y1="61.21" x2="55.52" y2="61.26"/><line class="cls-6" x1="57.42" y1="60.98" x2="58.16" y2="60.7"/><line class="cls-6" x1="59.78" y1="59.66" x2="60.34" y2="59.11"/><line class="cls-6" x1="61.38" y1="57.49" x2="61.66" y2="56.76"/><line class="cls-6" x1="62.96" y1="55.59" x2="64.1" y2="55.3"/><line class="cls-6" x1="66" y1="54.8" x2="67.14" y2="54.51"/><line class="cls-6" x1="69.05" y1="54.02" x2="70.19" y2="53.72"/><line class="cls-6" x1="72.09" y1="53.24" x2="73.23" y2="52.94"/><line class="cls-6" x1="74.67" y1="53.54" x2="75.07" y2="54.22"/><line class="cls-6" x1="76.21" y1="55.81" x2="76.74" y2="56.4"/><line class="cls-6" x1="78.16" y1="57.74" x2="78.78" y2="58.22"/><line class="cls-6" x1="80.44" y1="59.26" x2="81.14" y2="59.62"/><line class="cls-6" x1="82.96" y1="60.33" x2="83.72" y2="60.54"/><line class="cls-6" x1="84.66" y1="61.79" x2="84.66" y2="62.97"/><line class="cls-6" x1="84.66" y1="64.94" x2="84.66" y2="66.11"/><line class="cls-6" x1="84.66" y1="68.08" x2="84.66" y2="69.26"/><line class="cls-6" x1="84.66" y1="71.22" x2="84.66" y2="72.41"/><line class="cls-6" x1="84.08" y1="74.18" x2="83.61" y2="74.82"/><line class="cls-6" x1="83.03" y1="76.59" x2="83.03" y2="77.37"/><line class="cls-6" x1="83.61" y1="79.15" x2="84.08" y2="79.78"/><line class="cls-6" x1="84.66" y1="81.55" x2="84.66" y2="82.73"/><line class="cls-6" x1="84.66" y1="84.7" x2="84.66" y2="85.87"/><line class="cls-6" x1="83.68" y1="86.86" x2="82.9" y2="86.86"/><line class="cls-6" x1="80.93" y1="86.86" x2="80.14" y2="86.86"/><line class="cls-6" x1="78.18" y1="86.86" x2="77.4" y2="86.86"/><line class="cls-6" x1="75.43" y1="86.86" x2="74.64" y2="86.86"/><line class="cls-6" x1="72.67" y1="86.86" x2="71.89" y2="86.86"/><path class="cls-7" d="M100.78,85.87a1,1,0,1,0,1,1A1,1,0,0,0,100.78,85.87Z"/><path class="cls-8" d="M100.78,85.87a1,1,0,1,0,1,1A1,1,0,0,0,100.78,85.87Z"/><path class="cls-7" d="M98,85.87a1,1,0,1,0,1,1A1,1,0,0,0,98,85.87Z"/><path class="cls-8" d="M98,85.87a1,1,0,1,0,1,1A1,1,0,0,0,98,85.87Z"/><path class="cls-7" d="M95.28,85.87a1,1,0,1,0,1,1A1,1,0,0,0,95.28,85.87Z"/><path class="cls-8" d="M95.28,85.87a1,1,0,1,0,1,1A1,1,0,0,0,95.28,85.87Z"/><path class="cls-7" d="M92.53,85.87a1,1,0,1,0,0,2,1,1,0,0,0,0-2Z"/><path class="cls-8" d="M92.53,85.87a1,1,0,1,0,0,2,1,1,0,0,0,0-2Z"/><path class="cls-7" d="M89.77,85.87a1,1,0,1,0,1,1A1,1,0,0,0,89.77,85.87Z"/><path class="cls-8" d="M89.77,85.87a1,1,0,1,0,1,1A1,1,0,0,0,89.77,85.87Z"/><path class="cls-7" d="M89.77,82.73a1,1,0,1,0,1,1A1,1,0,0,0,89.77,82.73Z"/><path class="cls-8" d="M89.77,82.73a1,1,0,1,0,1,1A1,1,0,0,0,89.77,82.73Z"/><path class="cls-7" d="M89.77,79.58a1,1,0,1,0,1,1A1,1,0,0,0,89.77,79.58Z"/><path class="cls-8" d="M89.77,79.58a1,1,0,1,0,1,1A1,1,0,0,0,89.77,79.58Z"/><path class="cls-7" d="M91.41,77.37a1,1,0,1,0,0,2,1,1,0,0,0,0-2Z"/><path class="cls-8" d="M91.41,77.37a1,1,0,1,0,0,2,1,1,0,0,0,0-2Z"/><path class="cls-7" d="M91.41,74.62a1,1,0,1,0,1,1A1,1,0,0,0,91.41,74.62Z"/><path class="cls-8" d="M91.41,74.62a1,1,0,1,0,1,1A1,1,0,0,0,91.41,74.62Z"/><path class="cls-7" d="M89.77,72.41a1,1,0,1,0,1,1A1,1,0,0,0,89.77,72.41Z"/><path class="cls-8" d="M89.77,72.41a1,1,0,1,0,1,1A1,1,0,0,0,89.77,72.41Z"/><path class="cls-7" d="M89.77,69.26a1,1,0,1,0,1,1A1,1,0,0,0,89.77,69.26Z"/><path class="cls-8" d="M89.77,69.26a1,1,0,1,0,1,1A1,1,0,0,0,89.77,69.26Z"/><path class="cls-7" d="M89.77,66.11a1,1,0,1,0,1,1A1,1,0,0,0,89.77,66.11Z"/><path class="cls-8" d="M89.77,66.11a1,1,0,1,0,1,1A1,1,0,0,0,89.77,66.11Z"/><path class="cls-7" d="M89.77,63a1,1,0,0,0-1,1,1,1,0,0,0,1,1,1,1,0,0,0,1-1A1,1,0,0,0,89.77,63Z"/><path class="cls-8" d="M89.77,63a1,1,0,0,0-1,1,1,1,0,0,0,1,1,1,1,0,0,0,1-1A1,1,0,0,0,89.77,63Z"/><path class="cls-7" d="M89.77,59.82a1,1,0,1,0,1,1A1,1,0,0,0,89.77,59.82Z"/><path class="cls-8" d="M89.77,59.82a1,1,0,1,0,1,1A1,1,0,0,0,89.77,59.82Z"/><path class="cls-7" d="M92.43,59.08a1,1,0,1,0,1,1A1,1,0,0,0,92.43,59.08Z"/><path class="cls-8" d="M92.43,59.08a1,1,0,1,0,1,1A1,1,0,0,0,92.43,59.08Z"/><path class="cls-7" d="M94.89,57.84a1,1,0,1,0,1,1A1,1,0,0,0,94.89,57.84Z"/><path class="cls-8" d="M94.89,57.84a1,1,0,1,0,1,1A1,1,0,0,0,94.89,57.84Z"/><path class="cls-7" d="M97.06,56.15a1,1,0,0,0-1,1,1,1,0,1,0,1-1Z"/><path class="cls-8" d="M97.06,56.15a1,1,0,0,0-1,1,1,1,0,1,0,1-1Z"/><path class="cls-7" d="M98.87,54.09a1,1,0,1,0,1,1A1,1,0,0,0,98.87,54.09Z"/><path class="cls-8" d="M98.87,54.09a1,1,0,1,0,1,1A1,1,0,0,0,98.87,54.09Z"/><path class="cls-7" d="M100.26,51.71a1,1,0,1,0,1,1A1,1,0,0,0,100.26,51.71Z"/><path class="cls-8" d="M100.26,51.71a1,1,0,1,0,1,1A1,1,0,0,0,100.26,51.71Z"/><path class="cls-7" d="M101.16,49.11a1,1,0,0,0,0,2,1,1,0,1,0,0-2Z"/><path class="cls-8" d="M101.16,49.11a1,1,0,0,0,0,2,1,1,0,1,0,0-2Z"/><path class="cls-7" d="M101.56,46.39a1,1,0,0,0,0,2,1,1,0,1,0,0-2Z"/><path class="cls-8" d="M101.56,46.39a1,1,0,0,0,0,2,1,1,0,1,0,0-2Z"/><path class="cls-7" d="M101.43,43.63a1,1,0,1,0,1,1A1,1,0,0,0,101.43,43.63Z"/><path class="cls-8" d="M101.43,43.63a1,1,0,1,0,1,1A1,1,0,0,0,101.43,43.63Z"/><path class="cls-7" d="M100.77,41a1,1,0,1,0,1,1A1,1,0,0,0,100.77,41Z"/><path class="cls-8" d="M100.77,41a1,1,0,1,0,1,1A1,1,0,0,0,100.77,41Z"/><path class="cls-7" d="M99.63,38.46a1,1,0,1,0,1,1A1,1,0,0,0,99.63,38.46Z"/><path class="cls-8" d="M99.63,38.46a1,1,0,1,0,1,1A1,1,0,0,0,99.63,38.46Z"/><path class="cls-7" d="M98,36.24a1,1,0,0,0-1,1,1,1,0,1,0,1-1Z"/><path class="cls-8" d="M98,36.24a1,1,0,0,0-1,1,1,1,0,1,0,1-1Z"/><path class="cls-7" d="M96,34.35a1,1,0,1,0,1,1A1,1,0,0,0,96,34.35Z"/><path class="cls-8" d="M96,34.35a1,1,0,1,0,1,1A1,1,0,0,0,96,34.35Z"/><path class="cls-7" d="M93.68,32.88a1,1,0,1,0,0,2,1,1,0,1,0,0-2Z"/><path class="cls-8" d="M93.68,32.88a1,1,0,1,0,0,2,1,1,0,1,0,0-2Z"/><path class="cls-7" d="M91.12,31.88a1,1,0,1,0,1,1A1,1,0,0,0,91.12,31.88Z"/><path class="cls-8" d="M91.12,31.88a1,1,0,1,0,1,1A1,1,0,0,0,91.12,31.88Z"/><path class="cls-7" d="M88.41,31.39a1,1,0,1,0,1,1A1,1,0,0,0,88.41,31.39Z"/><path class="cls-8" d="M88.41,31.39a1,1,0,1,0,1,1A1,1,0,0,0,88.41,31.39Z"/><path class="cls-7" d="M85.66,31.43a1,1,0,1,0,0,2,1,1,0,0,0,0-2Z"/><path class="cls-8" d="M85.66,31.43a1,1,0,1,0,0,2,1,1,0,0,0,0-2Z"/><path class="cls-7" d="M83,32a1,1,0,1,0,1,1A1,1,0,0,0,83,32Z"/><path class="cls-8" d="M83,32a1,1,0,1,0,1,1A1,1,0,0,0,83,32Z"/><path class="cls-7" d="M80.43,33.05a1,1,0,1,0,1,1A1,1,0,0,0,80.43,33.05Z"/><path class="cls-8" d="M80.43,33.05a1,1,0,1,0,1,1A1,1,0,0,0,80.43,33.05Z"/><path class="cls-7" d="M78.14,34.57a1,1,0,0,0-1,1,1,1,0,0,0,2,0A1,1,0,0,0,78.14,34.57Z"/><path class="cls-8" d="M78.14,34.57a1,1,0,0,0-1,1,1,1,0,0,0,2,0A1,1,0,0,0,78.14,34.57Z"/><path class="cls-7" d="M76.18,36.51a1,1,0,1,0,1,1A1,1,0,0,0,76.18,36.51Z"/><path class="cls-8" d="M76.18,36.51a1,1,0,1,0,1,1A1,1,0,0,0,76.18,36.51Z"/><path class="cls-7" d="M74.64,38.79a1,1,0,1,0,1,1A1,1,0,0,0,74.64,38.79Z"/><path class="cls-8" d="M74.64,38.79a1,1,0,1,0,1,1A1,1,0,0,0,74.64,38.79Z"/><path class="cls-7" d="M73.55,41.32a1,1,0,1,0,1,1A1,1,0,0,0,73.55,41.32Z"/><path class="cls-8" d="M73.55,41.32a1,1,0,1,0,1,1A1,1,0,0,0,73.55,41.32Z"/><path class="cls-7" d="M73,44a1,1,0,1,0,1,1A1,1,0,0,0,73,44Z"/><path class="cls-8" d="M73,44a1,1,0,1,0,1,1A1,1,0,0,0,73,44Z"/><path class="cls-7" d="M72.91,46.77a1,1,0,1,0,0,1.95,1,1,0,1,0,0-1.95Z"/><path class="cls-8" d="M72.91,46.77a1,1,0,1,0,0,1.95,1,1,0,1,0,0-1.95Z"/><path class="cls-7" d="M69.86,47.55a1,1,0,1,0,1,1A1,1,0,0,0,69.86,47.55Z"/><path class="cls-8" d="M69.86,47.55a1,1,0,1,0,1,1A1,1,0,0,0,69.86,47.55Z"/><path class="cls-7" d="M66.81,48.33a1,1,0,1,0,1,1A1,1,0,0,0,66.81,48.33Z"/><path class="cls-8" d="M66.81,48.33a1,1,0,1,0,1,1A1,1,0,0,0,66.81,48.33Z"/><path class="cls-7" d="M63.77,49.12a1,1,0,1,0,1,1A1,1,0,0,0,63.77,49.12Z"/><path class="cls-8" d="M63.77,49.12a1,1,0,1,0,1,1A1,1,0,0,0,63.77,49.12Z"/><path class="cls-7" d="M60.72,49.91a1,1,0,1,0,1,1A1,1,0,0,0,60.72,49.91Z"/><path class="cls-8" d="M60.72,49.91a1,1,0,1,0,1,1A1,1,0,0,0,60.72,49.91Z"/><path class="cls-7" d="M58.62,48.13a1,1,0,0,0,0,2,1,1,0,1,0,0-2Z"/><path class="cls-8" d="M58.62,48.13a1,1,0,0,0,0,2,1,1,0,1,0,0-2Z"/><path class="cls-7" d="M56,47.37a1,1,0,0,0,0,2,1,1,0,1,0,0-2Z"/><path class="cls-8" d="M56,47.37a1,1,0,0,0,0,2,1,1,0,1,0,0-2Z"/><circle class="cls-7" cx="53.26" cy="48.76" r="0.98"/><circle class="cls-8" cx="53.26" cy="48.76" r="0.98"/><path class="cls-7" d="M51.08,45.5a1,1,0,0,0,0,2,1,1,0,1,0,0-2Z"/><path class="cls-8" d="M51.08,45.5a1,1,0,0,0,0,2,1,1,0,1,0,0-2Z"/><path class="cls-7" d="M48.92,43.23a1,1,0,1,0,1,1A1,1,0,0,0,48.92,43.23Z"/><path class="cls-8" d="M48.92,43.23a1,1,0,1,0,1,1A1,1,0,0,0,48.92,43.23Z"/><path class="cls-7" d="M46.75,41a1,1,0,1,0,1,1A1,1,0,0,0,46.75,41Z"/><path class="cls-8" d="M46.75,41a1,1,0,1,0,1,1A1,1,0,0,0,46.75,41Z"/><path class="cls-7" d="M44.57,38.67a1,1,0,1,0,1,1A1,1,0,0,0,44.57,38.67Z"/><path class="cls-8" d="M44.57,38.67a1,1,0,1,0,1,1A1,1,0,0,0,44.57,38.67Z"/><path class="cls-7" d="M42.4,36.39a1,1,0,0,0,0,2,1,1,0,1,0,0-2Z"/><path class="cls-8" d="M42.4,36.39a1,1,0,0,0,0,2,1,1,0,1,0,0-2Z"/><path class="cls-7" d="M43.46,33.85a1,1,0,0,0,0,2,1,1,0,1,0,0-2Z"/><path class="cls-8" d="M43.46,33.85a1,1,0,0,0,0,2,1,1,0,1,0,0-2Z"/><path class="cls-7" d="M43.77,31.12a1,1,0,1,0,1,1A1,1,0,0,0,43.77,31.12Z"/><path class="cls-8" d="M43.77,31.12a1,1,0,1,0,1,1A1,1,0,0,0,43.77,31.12Z"/><path class="cls-7" d="M43.28,28.41a1,1,0,1,0,1,1A1,1,0,0,0,43.28,28.41Z"/><path class="cls-8" d="M43.28,28.41a1,1,0,1,0,1,1A1,1,0,0,0,43.28,28.41Z"/><path class="cls-7" d="M42,26a1,1,0,0,0-1,1,1,1,0,0,0,2,0A1,1,0,0,0,42,26Z"/><path class="cls-8" d="M42,26a1,1,0,0,0-1,1,1,1,0,0,0,2,0A1,1,0,0,0,42,26Z"/><path class="cls-7" d="M40.17,23.94a1,1,0,1,0,1,1A1,1,0,0,0,40.17,23.94Z"/><path class="cls-8" d="M40.17,23.94a1,1,0,1,0,1,1A1,1,0,0,0,40.17,23.94Z"/><path class="cls-7" d="M37.79,22.56a1,1,0,0,0-1,1,1,1,0,1,0,1-1Z"/><path class="cls-8" d="M37.79,22.56a1,1,0,0,0-1,1,1,1,0,1,0,1-1Z"/><path class="cls-7" d="M35.12,21.89a1,1,0,0,0,0,2,1,1,0,0,0,0-2Z"/><path class="cls-8" d="M35.12,21.89a1,1,0,0,0,0,2,1,1,0,0,0,0-2Z"/><path class="cls-7" d="M32.37,22a1,1,0,1,0,1,1A1,1,0,0,0,32.37,22Z"/><path class="cls-8" d="M32.37,22a1,1,0,1,0,1,1A1,1,0,0,0,32.37,22Z"/><path class="cls-7" d="M29.77,22.9a1,1,0,1,0,1,1A1,1,0,0,0,29.77,22.9Z"/><path class="cls-8" d="M29.77,22.9a1,1,0,1,0,1,1A1,1,0,0,0,29.77,22.9Z"/><path class="cls-7" d="M27.53,24.5a1,1,0,1,0,1,1A1,1,0,0,0,27.53,24.5Z"/><path class="cls-8" d="M27.53,24.5a1,1,0,1,0,1,1A1,1,0,0,0,27.53,24.5Z"/><path class="cls-7" d="M25.83,26.66a1,1,0,1,0,1,1A1,1,0,0,0,25.83,26.66Z"/><path class="cls-8" d="M25.83,26.66a1,1,0,1,0,1,1A1,1,0,0,0,25.83,26.66Z"/><path class="cls-7" d="M24.82,29.22a1,1,0,1,0,1,1A1,1,0,0,0,24.82,29.22Z"/><path class="cls-8" d="M24.82,29.22a1,1,0,1,0,1,1A1,1,0,0,0,24.82,29.22Z"/><path class="cls-7" d="M24.56,32a1,1,0,0,0-1,1,1,1,0,0,0,1,1,1,1,0,0,0,1-1A1,1,0,0,0,24.56,32Z"/><path class="cls-8" d="M24.56,32a1,1,0,0,0-1,1,1,1,0,0,0,1,1,1,1,0,0,0,1-1A1,1,0,0,0,24.56,32Z"/><path class="cls-7" d="M25.09,34.65a1,1,0,1,0,1,1A1,1,0,0,0,25.09,34.65Z"/><path class="cls-8" d="M25.09,34.65a1,1,0,1,0,1,1A1,1,0,0,0,25.09,34.65Z"/><path class="cls-7" d="M26.38,37.09a1,1,0,1,0,0,2,1,1,0,0,0,0-2Z"/><path class="cls-8" d="M26.38,37.09a1,1,0,1,0,0,2,1,1,0,0,0,0-2Z"/><path class="cls-7" d="M28.3,39.06a1,1,0,1,0,0,2,1,1,0,0,0,0-2Z"/><path class="cls-8" d="M28.3,39.06a1,1,0,1,0,0,2,1,1,0,0,0,0-2Z"/><path class="cls-7" d="M30.69,40.42a1,1,0,0,0-1,1,1,1,0,1,0,1-1Z"/><path class="cls-8" d="M30.69,40.42a1,1,0,0,0-1,1,1,1,0,1,0,1-1Z"/><path class="cls-7" d="M33.37,41a1,1,0,1,0,1,1A1,1,0,0,0,33.37,41Z"/><path class="cls-8" d="M33.37,41a1,1,0,1,0,1,1A1,1,0,0,0,33.37,41Z"/><path class="cls-7" d="M36.12,40.86a1,1,0,1,0,1,1A1,1,0,0,0,36.12,40.86Z"/><path class="cls-8" d="M36.12,40.86a1,1,0,1,0,1,1A1,1,0,0,0,36.12,40.86Z"/><path class="cls-7" d="M38.71,39.93a1,1,0,1,0,1,1A1,1,0,0,0,38.71,39.93Z"/><path class="cls-8" d="M38.71,39.93a1,1,0,1,0,1,1A1,1,0,0,0,38.71,39.93Z"/><path class="cls-7" d="M40.88,42.2a1,1,0,0,0-1,1,1,1,0,0,0,1,1,1,1,0,0,0,1-1A1,1,0,0,0,40.88,42.2Z"/><path class="cls-8" d="M40.88,42.2a1,1,0,0,0-1,1,1,1,0,0,0,1,1,1,1,0,0,0,1-1A1,1,0,0,0,40.88,42.2Z"/><path class="cls-7" d="M43.05,44.48a1,1,0,1,0,1,1A1,1,0,0,0,43.05,44.48Z"/><path class="cls-8" d="M43.05,44.48a1,1,0,1,0,1,1A1,1,0,0,0,43.05,44.48Z"/><path class="cls-7" d="M45.21,46.75a1,1,0,0,0,0,2,1,1,0,1,0,0-2Z"/><path class="cls-8" d="M45.21,46.75a1,1,0,0,0,0,2,1,1,0,1,0,0-2Z"/><path class="cls-7" d="M47.38,49a1,1,0,0,0,0,2,1,1,0,1,0,0-2Z"/><path class="cls-8" d="M47.38,49a1,1,0,0,0,0,2,1,1,0,1,0,0-2Z"/><path class="cls-7" d="M49.56,51.3a1,1,0,1,0,1,1A1,1,0,0,0,49.56,51.3Z"/><path class="cls-8" d="M49.56,51.3a1,1,0,1,0,1,1A1,1,0,0,0,49.56,51.3Z"/><path class="cls-7" d="M49,54a1,1,0,1,0,1,1A1,1,0,0,0,49,54Z"/><path class="cls-8" d="M49,54a1,1,0,1,0,1,1A1,1,0,0,0,49,54Z"/><path class="cls-7" d="M49.65,56.68a1,1,0,0,0,0,2,1,1,0,1,0,0-2Z"/><path class="cls-8" d="M49.65,56.68a1,1,0,0,0,0,2,1,1,0,1,0,0-2Z"/><path class="cls-7" d="M51.33,58.87a1,1,0,0,0-1,1,1,1,0,1,0,2,0A1,1,0,0,0,51.33,58.87Z"/><path class="cls-8" d="M51.33,58.87a1,1,0,0,0-1,1,1,1,0,1,0,2,0A1,1,0,0,0,51.33,58.87Z"/><path class="cls-7" d="M53.76,60.16a1,1,0,1,0,0,2,1,1,0,1,0,0-2Z"/><path class="cls-8" d="M53.76,60.16a1,1,0,1,0,0,2,1,1,0,1,0,0-2Z"/><path class="cls-7" d="M56.51,60.34a1,1,0,1,0,1,1A1,1,0,0,0,56.51,60.34Z"/><path class="cls-8" d="M56.51,60.34a1,1,0,1,0,1,1A1,1,0,0,0,56.51,60.34Z"/><path class="cls-7" d="M59.08,59.37a1,1,0,0,0-1,1,1,1,0,1,0,2,0A1,1,0,0,0,59.08,59.37Z"/><path class="cls-8" d="M59.08,59.37a1,1,0,0,0-1,1,1,1,0,1,0,2,0A1,1,0,0,0,59.08,59.37Z"/><path class="cls-7" d="M61,57.42a1,1,0,1,0,1,1A1,1,0,0,0,61,57.42Z"/><path class="cls-8" d="M61,57.42a1,1,0,1,0,1,1A1,1,0,0,0,61,57.42Z"/><path class="cls-7" d="M62,54.86a1,1,0,1,0,1,1A1,1,0,0,0,62,54.86Z"/><path class="cls-8" d="M62,54.86a1,1,0,1,0,1,1A1,1,0,0,0,62,54.86Z"/><path class="cls-7" d="M65.05,54.07a1,1,0,1,0,1,1A1,1,0,0,0,65.05,54.07Z"/><path class="cls-8" d="M65.05,54.07a1,1,0,1,0,1,1A1,1,0,0,0,65.05,54.07Z"/><path class="cls-7" d="M68.09,53.28a1,1,0,1,0,1,1A1,1,0,0,0,68.09,53.28Z"/><path class="cls-8" d="M68.09,53.28a1,1,0,1,0,1,1A1,1,0,0,0,68.09,53.28Z"/><path class="cls-7" d="M71.14,52.49a1,1,0,1,0,0,2,1,1,0,0,0,0-2Z"/><path class="cls-8" d="M71.14,52.49a1,1,0,1,0,0,2,1,1,0,0,0,0-2Z"/><path class="cls-7" d="M74.18,51.71a1,1,0,1,0,1,1A1,1,0,0,0,74.18,51.71Z"/><path class="cls-8" d="M74.18,51.71a1,1,0,1,0,1,1A1,1,0,0,0,74.18,51.71Z"/><path class="cls-7" d="M75.57,54.09a1,1,0,0,0,0,2,1,1,0,1,0,0-2Z"/><path class="cls-8" d="M75.57,54.09a1,1,0,0,0,0,2,1,1,0,1,0,0-2Z"/><path class="cls-7" d="M77.38,56.15a1,1,0,0,0-1,1,1,1,0,0,0,2,0A1,1,0,0,0,77.38,56.15Z"/><path class="cls-8" d="M77.38,56.15a1,1,0,0,0-1,1,1,1,0,0,0,2,0A1,1,0,0,0,77.38,56.15Z"/><circle class="cls-7" cx="79.56" cy="58.82" r="0.98"/><circle class="cls-8" cx="79.56" cy="58.82" r="0.98"/><path class="cls-7" d="M82,59.08a1,1,0,1,0,1,1A1,1,0,0,0,82,59.08Z"/><path class="cls-8" d="M82,59.08a1,1,0,1,0,1,1A1,1,0,0,0,82,59.08Z"/><path class="cls-7" d="M84.66,59.82a1,1,0,1,0,1,1A1,1,0,0,0,84.66,59.82Z"/><path class="cls-8" d="M84.66,59.82a1,1,0,1,0,1,1A1,1,0,0,0,84.66,59.82Z"/><path class="cls-7" d="M84.66,63a1,1,0,0,0-1,1,1,1,0,1,0,2,0A1,1,0,0,0,84.66,63Z"/><path class="cls-8" d="M84.66,63a1,1,0,0,0-1,1,1,1,0,1,0,2,0A1,1,0,0,0,84.66,63Z"/><path class="cls-7" d="M84.66,66.11a1,1,0,1,0,1,1A1,1,0,0,0,84.66,66.11Z"/><path class="cls-8" d="M84.66,66.11a1,1,0,1,0,1,1A1,1,0,0,0,84.66,66.11Z"/><path class="cls-7" d="M84.66,69.26a1,1,0,1,0,1,1A1,1,0,0,0,84.66,69.26Z"/><path class="cls-8" d="M84.66,69.26a1,1,0,1,0,1,1A1,1,0,0,0,84.66,69.26Z"/><path class="cls-7" d="M84.66,72.41a1,1,0,1,0,1,1A1,1,0,0,0,84.66,72.41Z"/><path class="cls-8" d="M84.66,72.41a1,1,0,1,0,1,1A1,1,0,0,0,84.66,72.41Z"/><path class="cls-7" d="M83,74.62a1,1,0,1,0,1,1A1,1,0,0,0,83,74.62Z"/><path class="cls-8" d="M83,74.62a1,1,0,1,0,1,1A1,1,0,0,0,83,74.62Z"/><path class="cls-7" d="M83,77.37a1,1,0,1,0,1,1A1,1,0,0,0,83,77.37Z"/><path class="cls-8" d="M83,77.37a1,1,0,1,0,1,1A1,1,0,0,0,83,77.37Z"/><path class="cls-7" d="M84.66,79.58a1,1,0,1,0,1,1A1,1,0,0,0,84.66,79.58Z"/><path class="cls-8" d="M84.66,79.58a1,1,0,1,0,1,1A1,1,0,0,0,84.66,79.58Z"/><path class="cls-7" d="M84.66,82.73a1,1,0,1,0,1,1A1,1,0,0,0,84.66,82.73Z"/><path class="cls-8" d="M84.66,82.73a1,1,0,1,0,1,1A1,1,0,0,0,84.66,82.73Z"/><path class="cls-7" d="M84.66,85.87a1,1,0,1,0,1,1A1,1,0,0,0,84.66,85.87Z"/><path class="cls-8" d="M84.66,85.87a1,1,0,1,0,1,1A1,1,0,0,0,84.66,85.87Z"/><path class="cls-7" d="M81.91,85.87a1,1,0,1,0,1,1A1,1,0,0,0,81.91,85.87Z"/><path class="cls-8" d="M81.91,85.87a1,1,0,1,0,1,1A1,1,0,0,0,81.91,85.87Z"/><path class="cls-7" d="M79.16,85.87a1,1,0,0,0,0,2,1,1,0,0,0,0-2Z"/><path class="cls-8" d="M79.16,85.87a1,1,0,0,0,0,2,1,1,0,0,0,0-2Z"/><path class="cls-7" d="M76.41,85.87a1,1,0,1,0,1,1A1,1,0,0,0,76.41,85.87Z"/><path class="cls-8" d="M76.41,85.87a1,1,0,1,0,1,1A1,1,0,0,0,76.41,85.87Z"/><path class="cls-7" d="M73.66,85.87a1,1,0,1,0,0,2,1,1,0,0,0,0-2Z"/><path class="cls-8" d="M73.66,85.87a1,1,0,1,0,0,2,1,1,0,0,0,0-2Z"/><path class="cls-7" d="M70.9,85.87a1,1,0,1,0,1,1A1,1,0,0,0,70.9,85.87Z"/><path class="cls-8" d="M70.9,85.87a1,1,0,1,0,1,1A1,1,0,0,0,70.9,85.87Z"/><line class="cls-9" x1="181.12" y1="123.73" x2="181.84" y2="123.73"/><line class="cls-9" x1="183.68" y1="123.73" x2="184.41" y2="123.73"/><line class="cls-9" x1="185.32" y1="122.81" x2="185.32" y2="121.71"/><line class="cls-9" x1="185.32" y1="119.88" x2="185.32" y2="118.79"/><line class="cls-9" x1="184.98" y1="117.03" x2="184.7" y2="116.35"/><line class="cls-9" x1="184.7" y1="114.66" x2="184.98" y2="113.98"/><line class="cls-9" x1="185.32" y1="112.22" x2="185.32" y2="111.12"/><line class="cls-9" x1="184.98" y1="109.36" x2="184.7" y2="108.69"/><line class="cls-9" x1="184.7" y1="106.99" x2="184.98" y2="106.32"/><line class="cls-9" x1="185.32" y1="104.55" x2="185.32" y2="103.45"/><line class="cls-9" x1="184.7" y1="101.87" x2="184.4" y2="101.57"/><line class="cls-9" x1="183.54" y1="100.01" x2="183.43" y2="99.59"/><line class="cls-9" x1="183.44" y1="97.82" x2="183.56" y2="97.41"/><line class="cls-9" x1="184.44" y1="95.86" x2="184.74" y2="95.56"/><line class="cls-9" x1="185.39" y1="93.98" x2="185.41" y2="92.89"/><line class="cls-9" x1="185.43" y1="91.06" x2="185.44" y2="89.95"/><line class="cls-9" x1="185.47" y1="88.13" x2="185.48" y2="87.03"/><line class="cls-9" x1="185.51" y1="85.2" x2="185.52" y2="84.1"/><line class="cls-9" x1="185.55" y1="82.27" x2="185.56" y2="81.17"/><line class="cls-9" x1="184.72" y1="79.94" x2="184.03" y2="79.68"/><line class="cls-9" x1="182.42" y1="78.85" x2="181.81" y2="78.44"/><line class="cls-9" x1="180.31" y1="78.46" x2="179.43" y2="79.11"/><line class="cls-9" x1="177.95" y1="80.19" x2="177.07" y2="80.83"/><line class="cls-9" x1="176.12" y1="82.27" x2="176.11" y2="82.3"/><line class="cls-9" x1="175.17" y1="83.74" x2="175.14" y2="83.75"/><line class="cls-9" x1="173.49" y1="84.24" x2="173.46" y2="84.24"/><line class="cls-9" x1="171.82" y1="84.71" x2="170.95" y2="85.38"/><line class="cls-9" x1="169.96" y1="86.81" x2="169.75" y2="87.52"/><line class="cls-9" x1="168.77" y1="88.95" x2="168.19" y2="89.4"/><line class="cls-9" x1="166.55" y1="89.98" x2="165.81" y2="89.99"/><line class="cls-9" x1="164.15" y1="89.49" x2="163.55" y2="89.07"/><line class="cls-9" x1="162.5" y1="87.68" x2="162.26" y2="86.98"/><line class="cls-9" x1="162.24" y1="85.25" x2="162.46" y2="84.55"/><line class="cls-9" x1="163.46" y1="83.13" x2="164.05" y2="82.7"/><line class="cls-9" x1="165.7" y1="82.14" x2="166.43" y2="82.14"/><line class="cls-9" x1="168.08" y1="81.58" x2="168.95" y2="80.93"/><line class="cls-9" x1="170.42" y1="79.83" x2="172.78" y2="78.08"/><line class="cls-9" x1="174.26" y1="76.99" x2="175.15" y2="76.34"/><line class="cls-9" x1="176.62" y1="75.27" x2="177.51" y2="74.61"/><line class="cls-9" x1="177.96" y1="73.21" x2="177.95" y2="73.15"/><line class="cls-9" x1="177.53" y1="71.39" x2="177.53" y2="71.33"/><line class="cls-9" x1="177.43" y1="69.51" x2="177.43" y2="69.45"/><line class="cls-9" x1="177.65" y1="67.65" x2="177.66" y2="67.59"/><line class="cls-9" x1="178.2" y1="65.84" x2="178.22" y2="65.8"/><line class="cls-9" x1="177.87" y1="64.36" x2="177.02" y2="63.65"/><line class="cls-9" x1="175.42" y1="62.91" x2="174.7" y2="62.79"/><line class="cls-9" x1="173.21" y1="61.94" x2="172.73" y2="61.38"/><line class="cls-9" x1="172.14" y1="59.77" x2="172.14" y2="59.04"/><line class="cls-9" x1="172.72" y1="57.42" x2="173.2" y2="56.86"/><line class="cls-9" x1="174.69" y1="56" x2="175.41" y2="55.88"/><line class="cls-9" x1="177.1" y1="56.18" x2="177.73" y2="56.55"/><line class="cls-9" x1="178.83" y1="57.87" x2="179.07" y2="58.57"/><line class="cls-9" x1="180.08" y1="60.01" x2="180.92" y2="60.72"/><line class="cls-9" x1="182.41" y1="60.84" x2="182.81" y2="60.59"/><line class="cls-9" x1="184.46" y1="59.83" x2="184.91" y2="59.68"/><line class="cls-9" x1="185.78" y1="58.48" x2="185.78" y2="57.37"/><line class="cls-9" x1="185.79" y1="55.55" x2="185.8" y2="54.44"/><line class="cls-9" x1="185.81" y1="52.62" x2="185.82" y2="51.52"/><line class="cls-9" x1="185.83" y1="49.69" x2="185.84" y2="48.59"/><line class="cls-9" x1="185.84" y1="46.76" x2="185.85" y2="45.67"/><line class="cls-9" x1="185.86" y1="43.84" x2="185.87" y2="42.74"/><line class="cls-9" x1="185.88" y1="40.91" x2="185.88" y2="39.81"/><line class="cls-9" x1="185.05" y1="38.52" x2="184.38" y2="38.22"/><line class="cls-9" x1="182.85" y1="37.26" x2="182.29" y2="36.78"/><line class="cls-9" x1="181.09" y1="35.43" x2="180.7" y2="34.82"/><line class="cls-9" x1="179.93" y1="33.17" x2="179.73" y2="32.47"/><line class="cls-9" x1="179.46" y1="30.68" x2="179.46" y2="29.95"/><line class="cls-9" x1="179.71" y1="28.15" x2="179.92" y2="27.45"/><line class="cls-9" x1="180.66" y1="25.8" x2="181.06" y2="25.19"/><line class="cls-9" x1="182.25" y1="23.82" x2="182.8" y2="23.34"/><line class="cls-9" x1="184.33" y1="22.37" x2="184.99" y2="22.06"/><line class="cls-9" x1="186.73" y1="21.56" x2="187.46" y2="21.47"/><line class="cls-9" x1="189.27" y1="21.47" x2="189.99" y2="21.58"/><line class="cls-9" x1="191.73" y1="22.1" x2="192.39" y2="22.41"/><line class="cls-9" x1="193.9" y1="23.4" x2="194.45" y2="23.89"/><line class="cls-9" x1="195.62" y1="25.27" x2="196.01" y2="25.89"/><line class="cls-9" x1="196.75" y1="27.55" x2="196.95" y2="28.26"/><line class="cls-9" x1="197.17" y1="30.05" x2="197.16" y2="30.78"/><line class="cls-9" x1="196.88" y1="32.56" x2="196.66" y2="33.27"/><line class="cls-9" x1="195.88" y1="34.9" x2="195.47" y2="35.51"/><line class="cls-9" x1="194.26" y1="36.85" x2="193.7" y2="37.33"/><line class="cls-9" x1="192.16" y1="38.27" x2="191.48" y2="38.56"/><line class="cls-9" x1="190.64" y1="39.83" x2="190.64" y2="40.94"/><line class="cls-9" x1="190.63" y1="42.76" x2="190.61" y2="43.86"/><line class="cls-9" x1="190.6" y1="45.69" x2="190.6" y2="46.8"/><line class="cls-9" x1="190.59" y1="48.62" x2="190.59" y2="49.72"/><line class="cls-9" x1="190.58" y1="51.55" x2="190.57" y2="52.65"/><line class="cls-9" x1="190.56" y1="54.48" x2="190.56" y2="55.57"/><line class="cls-9" x1="190.54" y1="57.4" x2="190.54" y2="58.5"/><line class="cls-9" x1="191.36" y1="59.8" x2="193.63" y2="60.85"/><line class="cls-9" x1="195.16" y1="60.63" x2="195.98" y2="59.91"/><line class="cls-9" x1="197.37" y1="58.72" x2="198.21" y2="58.01"/><line class="cls-9" x1="199.62" y1="56.86" x2="200.2" y2="56.41"/><line class="cls-9" x1="201.79" y1="56.17" x2="202.47" y2="56.42"/><line class="cls-9" x1="203.52" y1="57.64" x2="203.67" y2="58.35"/><line class="cls-9" x1="203.19" y1="59.88" x2="202.66" y2="60.38"/><line class="cls-9" x1="201.31" y1="61.61" x2="200.48" y2="62.34"/><line class="cls-9" x1="199.09" y1="63.53" x2="198.26" y2="64.24"/><line class="cls-9" x1="197.87" y1="65.7" x2="198.34" y2="67.06"/><line class="cls-9" x1="198.66" y1="68.84" x2="198.69" y2="70.28"/><line class="cls-9" x1="198.47" y1="72.08" x2="198.07" y2="73.46"/><line class="cls-9" x1="198.54" y1="74.9" x2="199.41" y2="75.57"/><line class="cls-9" x1="200.86" y1="76.69" x2="201.73" y2="77.36"/><line class="cls-9" x1="203.18" y1="78.47" x2="204.05" y2="79.14"/><line class="cls-9" x1="205.5" y1="80.27" x2="206.37" y2="80.93"/><line class="cls-9" x1="207.78" y1="82.08" x2="208.34" y2="82.57"/><line class="cls-9" x1="208.89" y1="84.06" x2="208.78" y2="84.79"/><line class="cls-9" x1="207.81" y1="86.05" x2="207.13" y2="86.35"/><line class="cls-9" x1="205.54" y1="86.2" x2="204.94" y2="85.78"/><line class="cls-9" x1="203.46" y1="84.7" x2="202.59" y2="84.03"/><line class="cls-9" x1="201.14" y1="82.91" x2="200.27" y2="82.24"/><line class="cls-9" x1="198.83" y1="81.13" x2="197.95" y2="80.45"/><line class="cls-9" x1="196.5" y1="79.34" x2="195.64" y2="78.67"/><line class="cls-9" x1="194.14" y1="78.6" x2="193.52" y2="79"/><line class="cls-9" x1="191.89" y1="79.79" x2="191.19" y2="80.03"/><line class="cls-9" x1="190.32" y1="81.23" x2="190.3" y2="82.34"/><line class="cls-9" x1="190.28" y1="84.17" x2="190.26" y2="85.27"/><line class="cls-9" x1="190.24" y1="87.09" x2="190.23" y2="88.19"/><line class="cls-9" x1="190.2" y1="90.02" x2="190.18" y2="91.12"/><line class="cls-9" x1="190.16" y1="92.95" x2="190.15" y2="94.05"/><line class="cls-9" x1="190.7" y1="95.68" x2="191.39" y2="96.57"/><line class="cls-9" x1="191.95" y1="98.2" x2="191.94" y2="99.32"/><line class="cls-9" x1="191.36" y1="100.96" x2="190.65" y2="101.83"/><line class="cls-9" x1="190.09" y1="103.45" x2="190.09" y2="104.55"/><line class="cls-9" x1="190.43" y1="106.32" x2="190.71" y2="106.99"/><line class="cls-9" x1="190.71" y1="108.68" x2="190.43" y2="109.36"/><line class="cls-9" x1="190.09" y1="111.12" x2="190.09" y2="112.22"/><line class="cls-9" x1="190.43" y1="113.98" x2="190.71" y2="114.66"/><line class="cls-9" x1="190.71" y1="116.35" x2="190.43" y2="117.03"/><line class="cls-9" x1="190.09" y1="118.79" x2="190.09" y2="119.88"/><line class="cls-9" x1="190.09" y1="121.71" x2="190.09" y2="122.81"/><line class="cls-9" x1="191" y1="123.73" x2="191.73" y2="123.73"/><path class="cls-10" d="M182.76,122.81a.92.92,0,1,1-.92.92A.92.92,0,0,1,182.76,122.81Z"/><path class="cls-11" d="M182.76,122.81a.92.92,0,1,1-.92.92A.92.92,0,0,1,182.76,122.81Z"/><path class="cls-10" d="M185.32,122.81a.92.92,0,1,1-.91.92A.92.92,0,0,1,185.32,122.81Z"/><path class="cls-11" d="M185.32,122.81a.92.92,0,1,1-.91.92A.92.92,0,0,1,185.32,122.81Z"/><path class="cls-10" d="M185.32,119.88a.92.92,0,0,1,.92.93.92.92,0,0,1-1.83,0A.92.92,0,0,1,185.32,119.88Z"/><path class="cls-11" d="M185.32,119.88a.92.92,0,0,1,.92.93.92.92,0,0,1-1.83,0A.92.92,0,0,1,185.32,119.88Z"/><path class="cls-10" d="M185.32,117a.92.92,0,1,1-.91.91A.92.92,0,0,1,185.32,117Z"/><path class="cls-11" d="M185.32,117a.92.92,0,1,1-.91.91A.92.92,0,0,1,185.32,117Z"/><path class="cls-10" d="M184.35,114.59a.92.92,0,1,1-.92.92A.91.91,0,0,1,184.35,114.59Z"/><path class="cls-11" d="M184.35,114.59a.92.92,0,1,1-.92.92A.91.91,0,0,1,184.35,114.59Z"/><path class="cls-10" d="M185.32,112.22a.92.92,0,1,1-.91.91A.92.92,0,0,1,185.32,112.22Z"/><path class="cls-11" d="M185.32,112.22a.92.92,0,1,1-.91.91A.92.92,0,0,1,185.32,112.22Z"/><path class="cls-10" d="M185.32,109.29a.92.92,0,1,1,0,1.83.92.92,0,0,1,0-1.83Z"/><path class="cls-11" d="M185.32,109.29a.92.92,0,1,1,0,1.83.92.92,0,0,1,0-1.83Z"/><path class="cls-10" d="M184.35,106.92a.92.92,0,1,1-.92.92A.92.92,0,0,1,184.35,106.92Z"/><path class="cls-11" d="M184.35,106.92a.92.92,0,1,1-.92.92A.92.92,0,0,1,184.35,106.92Z"/><path class="cls-10" d="M185.32,104.55a.92.92,0,1,1-.91.92A.92.92,0,0,1,185.32,104.55Z"/><path class="cls-11" d="M185.32,104.55a.92.92,0,1,1-.91.92A.92.92,0,0,1,185.32,104.55Z"/><path class="cls-10" d="M185.32,101.63a.92.92,0,0,1,.92.92.92.92,0,0,1-1.83,0A.92.92,0,0,1,185.32,101.63Z"/><path class="cls-11" d="M185.32,101.63a.92.92,0,0,1,.92.92.92.92,0,0,1-1.83,0A.92.92,0,0,1,185.32,101.63Z"/><path class="cls-10" d="M183.77,100a.92.92,0,1,1-.92.92A.92.92,0,0,1,183.77,100Z"/><path class="cls-11" d="M183.77,100a.92.92,0,1,1-.92.92A.92.92,0,0,1,183.77,100Z"/><path class="cls-10" d="M183.22,97.79a.92.92,0,1,1-.92.91A.91.91,0,0,1,183.22,97.79Z"/><path class="cls-11" d="M183.22,97.79a.92.92,0,1,1-.92.91A.91.91,0,0,1,183.22,97.79Z"/><path class="cls-10" d="M183.8,95.61a.91.91,0,1,1-.92.91A.91.91,0,0,1,183.8,95.61Z"/><path class="cls-11" d="M183.8,95.61a.91.91,0,1,1-.92.91A.91.91,0,0,1,183.8,95.61Z"/><path class="cls-10" d="M185.38,94a.92.92,0,1,1-.92.92A.92.92,0,0,1,185.38,94Z"/><path class="cls-11" d="M185.38,94a.92.92,0,1,1-.92.92A.92.92,0,0,1,185.38,94Z"/><path class="cls-10" d="M185.41,91.06a.91.91,0,0,1,.92.91.92.92,0,1,1-1.83,0A.91.91,0,0,1,185.41,91.06Z"/><path class="cls-11" d="M185.41,91.06a.91.91,0,0,1,.92.91.92.92,0,1,1-1.83,0A.91.91,0,0,1,185.41,91.06Z"/><path class="cls-10" d="M185.45,88.13a.91.91,0,1,1-.91.91A.92.92,0,0,1,185.45,88.13Z"/><path class="cls-11" d="M185.45,88.13a.91.91,0,1,1-.91.91A.92.92,0,0,1,185.45,88.13Z"/><path class="cls-10" d="M185.49,85.2a.92.92,0,1,1-.91.91A.92.92,0,0,1,185.49,85.2Z"/><path class="cls-11" d="M185.49,85.2a.92.92,0,1,1-.91.91A.92.92,0,0,1,185.49,85.2Z"/><path class="cls-10" d="M185.54,82.27a.92.92,0,1,1-.92.92A.92.92,0,0,1,185.54,82.27Z"/><path class="cls-11" d="M185.54,82.27a.92.92,0,1,1-.92.92A.92.92,0,0,1,185.54,82.27Z"/><path class="cls-10" d="M185.57,79.34a.92.92,0,1,1-.91.91A.91.91,0,0,1,185.57,79.34Z"/><path class="cls-11" d="M185.57,79.34a.92.92,0,1,1-.91.91A.91.91,0,0,1,185.57,79.34Z"/><path class="cls-10" d="M183.18,78.45a.92.92,0,1,1-.92.91A.91.91,0,0,1,183.18,78.45Z"/><path class="cls-11" d="M183.18,78.45a.92.92,0,1,1-.92.91A.91.91,0,0,1,183.18,78.45Z"/><path class="cls-10" d="M181.05,77a.93.93,0,1,1-.91.92A.92.92,0,0,1,181.05,77Z"/><path class="cls-11" d="M181.05,77a.93.93,0,1,1-.91.92A.92.92,0,0,1,181.05,77Z"/><path class="cls-10" d="M178.69,78.74a.9.9,0,0,1,.91.9.92.92,0,1,1-.91-.9Z"/><path class="cls-11" d="M178.69,78.74a.9.9,0,0,1,.91.9.92.92,0,1,1-.91-.9Z"/><path class="cls-10" d="M176.32,80.45a.93.93,0,1,1-.91.92A.92.92,0,0,1,176.32,80.45Z"/><path class="cls-11" d="M176.32,80.45a.93.93,0,1,1-.91.92A.92.92,0,0,1,176.32,80.45Z"/><path class="cls-10" d="M175.91,82.27a.92.92,0,1,1-.92.92A.92.92,0,0,1,175.91,82.27Z"/><path class="cls-11" d="M175.91,82.27a.92.92,0,1,1-.92.92A.92.92,0,0,1,175.91,82.27Z"/><path class="cls-10" d="M174.41,83.37a.93.93,0,1,1-.92.93A.93.93,0,0,1,174.41,83.37Z"/><path class="cls-11" d="M174.41,83.37a.93.93,0,1,1-.92.93A.93.93,0,0,1,174.41,83.37Z"/><path class="cls-10" d="M172.55,83.25a.92.92,0,0,1,.91.92.91.91,0,1,1-1.82,0A.92.92,0,0,1,172.55,83.25Z"/><path class="cls-11" d="M172.55,83.25a.92.92,0,0,1,.91.92.91.91,0,1,1-1.82,0A.92.92,0,0,1,172.55,83.25Z"/><path class="cls-10" d="M170.21,85a.92.92,0,1,1-.91.92A.92.92,0,0,1,170.21,85Z"/><path class="cls-11" d="M170.21,85a.92.92,0,1,1-.91.92A.92.92,0,0,1,170.21,85Z"/><path class="cls-10" d="M169.49,87.48a.92.92,0,0,1,.92.92.92.92,0,1,1-.92-.92Z"/><path class="cls-11" d="M169.49,87.48a.92.92,0,0,1,.92.92.92.92,0,1,1-.92-.92Z"/><path class="cls-10" d="M167.46,89a.92.92,0,1,1-.91.91A.92.92,0,0,1,167.46,89Z"/><path class="cls-11" d="M167.46,89a.92.92,0,1,1-.91.91A.92.92,0,0,1,167.46,89Z"/><path class="cls-10" d="M164.9,89.09a.92.92,0,0,1,0,1.84.92.92,0,1,1,0-1.84Z"/><path class="cls-11" d="M164.9,89.09a.92.92,0,0,1,0,1.84.92.92,0,1,1,0-1.84Z"/><path class="cls-10" d="M162.8,87.63a.92.92,0,1,1-.92.92A.92.92,0,0,1,162.8,87.63Z"/><path class="cls-11" d="M162.8,87.63a.92.92,0,1,1-.92.92A.92.92,0,0,1,162.8,87.63Z"/><path class="cls-10" d="M162,85.21a.92.92,0,1,1-.92.91A.91.91,0,0,1,162,85.21Z"/><path class="cls-11" d="M162,85.21a.92.92,0,1,1-.92.91A.91.91,0,0,1,162,85.21Z"/><path class="cls-10" d="M162.73,82.76a.92.92,0,1,1-.91.92A.92.92,0,0,1,162.73,82.76Z"/><path class="cls-11" d="M162.73,82.76a.92.92,0,1,1-.91.92A.92.92,0,0,1,162.73,82.76Z"/><path class="cls-10" d="M164.78,81.23a.92.92,0,1,1-.91.92A.92.92,0,0,1,164.78,81.23Z"/><path class="cls-11" d="M164.78,81.23a.92.92,0,1,1-.91.92A.92.92,0,0,1,164.78,81.23Z"/><path class="cls-10" d="M167.35,81.22a.92.92,0,1,1-.92.92A.92.92,0,0,1,167.35,81.22Z"/><path class="cls-11" d="M167.35,81.22a.92.92,0,1,1-.92.92A.92.92,0,0,1,167.35,81.22Z"/><path class="cls-10" d="M169.69,79.46a.92.92,0,1,1-.92.92A.92.92,0,0,1,169.69,79.46Z"/><path class="cls-11" d="M169.69,79.46a.92.92,0,1,1-.92.92A.92.92,0,0,1,169.69,79.46Z"/><path class="cls-10" d="M173.52,76.61a.92.92,0,1,1-.91.92A.91.91,0,0,1,173.52,76.61Z"/><path class="cls-11" d="M173.52,76.61a.92.92,0,1,1-.91.92A.91.91,0,0,1,173.52,76.61Z"/><path class="cls-10" d="M175.89,74.89a.92.92,0,1,1-.92.91A.91.91,0,0,1,175.89,74.89Z"/><path class="cls-11" d="M175.89,74.89a.92.92,0,1,1-.92.91A.91.91,0,0,1,175.89,74.89Z"/><path class="cls-10" d="M178.25,73.17a.91.91,0,1,1-.91.91A.91.91,0,0,1,178.25,73.17Z"/><path class="cls-11" d="M178.25,73.17a.91.91,0,1,1-.91.91A.91.91,0,0,1,178.25,73.17Z"/><path class="cls-10" d="M177.66,71.38a.91.91,0,0,1,.92.91.92.92,0,1,1-1.83,0A.91.91,0,0,1,177.66,71.38Z"/><path class="cls-11" d="M177.66,71.38a.91.91,0,0,1,.92.91.92.92,0,1,1-1.83,0A.91.91,0,0,1,177.66,71.38Z"/><path class="cls-10" d="M177.4,69.51a.92.92,0,0,1,0,1.83.92.92,0,1,1,0-1.83Z"/><path class="cls-11" d="M177.4,69.51a.92.92,0,0,1,0,1.83.92.92,0,1,1,0-1.83Z"/><path class="cls-10" d="M177.46,67.63a.91.91,0,1,1,0,1.82.91.91,0,1,1,0-1.82Z"/><path class="cls-11" d="M177.46,67.63a.91.91,0,1,1,0,1.82.91.91,0,1,1,0-1.82Z"/><path class="cls-10" d="M177.85,65.78a.92.92,0,1,1,0,1.83.92.92,0,0,1,0-1.83Z"/><path class="cls-11" d="M177.85,65.78a.92.92,0,1,1,0,1.83.92.92,0,0,1,0-1.83Z"/><path class="cls-10" d="M178.56,64a.91.91,0,1,1-.91.91A.91.91,0,0,1,178.56,64Z"/><path class="cls-11" d="M178.56,64a.91.91,0,1,1-.91.91A.91.91,0,0,1,178.56,64Z"/><path class="cls-10" d="M176.32,62.16a.91.91,0,1,1-.91.91A.91.91,0,0,1,176.32,62.16Z"/><path class="cls-11" d="M176.32,62.16a.91.91,0,1,1-.91.91A.91.91,0,0,1,176.32,62.16Z"/><path class="cls-10" d="M173.8,61.72a.92.92,0,0,1,.91.92.92.92,0,0,1-1.83,0A.92.92,0,0,1,173.8,61.72Z"/><path class="cls-11" d="M173.8,61.72a.92.92,0,0,1,.91.92.92.92,0,0,1-1.83,0A.92.92,0,0,1,173.8,61.72Z"/><path class="cls-10" d="M172.14,59.77a.92.92,0,1,1-.91.91A.92.92,0,0,1,172.14,59.77Z"/><path class="cls-11" d="M172.14,59.77a.92.92,0,1,1-.91.91A.92.92,0,0,1,172.14,59.77Z"/><path class="cls-10" d="M172.14,57.21a.92.92,0,1,1-.91.91A.92.92,0,0,1,172.14,57.21Z"/><path class="cls-11" d="M172.14,57.21a.92.92,0,1,1-.91.91A.92.92,0,0,1,172.14,57.21Z"/><path class="cls-10" d="M173.79,55.25a.91.91,0,1,1-.92.91A.91.91,0,0,1,173.79,55.25Z"/><path class="cls-11" d="M173.79,55.25a.91.91,0,1,1-.92.91A.91.91,0,0,1,173.79,55.25Z"/><path class="cls-10" d="M176.31,54.81a.91.91,0,1,1,0,1.82.91.91,0,1,1,0-1.82Z"/><path class="cls-11" d="M176.31,54.81a.91.91,0,1,1,0,1.82.91.91,0,1,1,0-1.82Z"/><path class="cls-10" d="M178.52,56.09a.92.92,0,1,1-.91.91A.92.92,0,0,1,178.52,56.09Z"/><path class="cls-11" d="M178.52,56.09a.92.92,0,1,1-.91.91A.92.92,0,0,1,178.52,56.09Z"/><path class="cls-10" d="M179.38,58.51a.92.92,0,1,1-.91.91A.92.92,0,0,1,179.38,58.51Z"/><path class="cls-11" d="M179.38,58.51a.92.92,0,1,1-.91.91A.92.92,0,0,1,179.38,58.51Z"/><path class="cls-10" d="M181.62,60.39a.92.92,0,1,1-.91.92A.92.92,0,0,1,181.62,60.39Z"/><path class="cls-11" d="M181.62,60.39a.92.92,0,1,1-.91.92A.92.92,0,0,1,181.62,60.39Z"/><path class="cls-10" d="M183.6,59.22a.91.91,0,1,1-.92.91A.91.91,0,0,1,183.6,59.22Z"/><path class="cls-11" d="M183.6,59.22a.91.91,0,1,1-.92.91A.91.91,0,0,1,183.6,59.22Z"/><path class="cls-10" d="M185.78,58.48a.91.91,0,1,1-.92.91A.9.9,0,0,1,185.78,58.48Z"/><path class="cls-11" d="M185.78,58.48a.91.91,0,1,1-.92.91A.9.9,0,0,1,185.78,58.48Z"/><path class="cls-10" d="M185.78,55.55a.91.91,0,1,1-.91.91A.92.92,0,0,1,185.78,55.55Z"/><path class="cls-11" d="M185.78,55.55a.91.91,0,1,1-.91.91A.92.92,0,0,1,185.78,55.55Z"/><path class="cls-10" d="M185.81,52.62a.91.91,0,1,1-.92.92A.92.92,0,0,1,185.81,52.62Z"/><path class="cls-11" d="M185.81,52.62a.91.91,0,1,1-.92.92A.92.92,0,0,1,185.81,52.62Z"/><path class="cls-10" d="M185.82,49.69a.92.92,0,0,1,0,1.83.92.92,0,0,1,0-1.83Z"/><path class="cls-11" d="M185.82,49.69a.92.92,0,0,1,0,1.83.92.92,0,0,1,0-1.83Z"/><path class="cls-10" d="M185.84,46.76a.92.92,0,1,1-.91.92A.92.92,0,0,1,185.84,46.76Z"/><path class="cls-11" d="M185.84,46.76a.92.92,0,1,1-.91.92A.92.92,0,0,1,185.84,46.76Z"/><path class="cls-10" d="M185.85,43.84a.92.92,0,1,1-.91.91A.92.92,0,0,1,185.85,43.84Z"/><path class="cls-11" d="M185.85,43.84a.92.92,0,1,1-.91.91A.92.92,0,0,1,185.85,43.84Z"/><path class="cls-10" d="M185.87,40.91a.92.92,0,1,1-.91.91A.91.91,0,0,1,185.87,40.91Z"/><path class="cls-11" d="M185.87,40.91a.92.92,0,1,1-.91.91A.91.91,0,0,1,185.87,40.91Z"/><path class="cls-10" d="M185.88,38a.92.92,0,1,1-.91.92A.92.92,0,0,1,185.88,38Z"/><path class="cls-11" d="M185.88,38a.92.92,0,1,1-.91.92A.92.92,0,0,1,185.88,38Z"/><path class="cls-10" d="M183.55,36.94a.92.92,0,1,1-.92.91A.91.91,0,0,1,183.55,36.94Z"/><path class="cls-11" d="M183.55,36.94a.92.92,0,1,1-.92.91A.91.91,0,0,1,183.55,36.94Z"/><path class="cls-10" d="M181.6,35.27a.92.92,0,1,1-.92.92A.92.92,0,0,1,181.6,35.27Z"/><path class="cls-11" d="M181.6,35.27a.92.92,0,1,1-.92.92A.92.92,0,0,1,181.6,35.27Z"/><path class="cls-10" d="M180.2,33.14a.91.91,0,0,1,0,1.82.91.91,0,1,1,0-1.82Z"/><path class="cls-11" d="M180.2,33.14a.91.91,0,0,1,0,1.82.91.91,0,1,1,0-1.82Z"/><path class="cls-10" d="M179.46,30.68a.92.92,0,1,1-.91.92A.92.92,0,0,1,179.46,30.68Z"/><path class="cls-11" d="M179.46,30.68a.92.92,0,1,1-.91.92A.92.92,0,0,1,179.46,30.68Z"/><path class="cls-10" d="M179.46,28.11a.92.92,0,1,1-.92.92A.92.92,0,0,1,179.46,28.11Z"/><path class="cls-11" d="M179.46,28.11a.92.92,0,1,1-.92.92A.92.92,0,0,1,179.46,28.11Z"/><path class="cls-10" d="M180.17,25.66a.92.92,0,1,1-.92.91A.92.92,0,0,1,180.17,25.66Z"/><path class="cls-11" d="M180.17,25.66a.92.92,0,1,1-.92.91A.92.92,0,0,1,180.17,25.66Z"/><path class="cls-10" d="M181.56,23.51a.9.9,0,0,1,.91.9.92.92,0,1,1-.91-.9Z"/><path class="cls-11" d="M181.56,23.51a.9.9,0,0,1,.91.9.92.92,0,1,1-.91-.9Z"/><path class="cls-10" d="M183.49,21.83a.92.92,0,1,1-.91.91A.92.92,0,0,1,183.49,21.83Z"/><path class="cls-11" d="M183.49,21.83a.92.92,0,1,1-.91.91A.92.92,0,0,1,183.49,21.83Z"/><path class="cls-10" d="M185.83,20.77a.92.92,0,1,1-.92.92A.92.92,0,0,1,185.83,20.77Z"/><path class="cls-11" d="M185.83,20.77a.92.92,0,1,1-.92.92A.92.92,0,0,1,185.83,20.77Z"/><path class="cls-10" d="M188.36,20.42a.92.92,0,1,1-.91.91A.92.92,0,0,1,188.36,20.42Z"/><path class="cls-11" d="M188.36,20.42a.92.92,0,1,1-.91.91A.92.92,0,0,1,188.36,20.42Z"/><path class="cls-10" d="M190.9,20.81a.91.91,0,0,1,.92.9.92.92,0,1,1-1.84,0A.91.91,0,0,1,190.9,20.81Z"/><path class="cls-11" d="M190.9,20.81a.91.91,0,0,1,.92.9.92.92,0,1,1-1.84,0A.91.91,0,0,1,190.9,20.81Z"/><path class="cls-10" d="M193.22,21.88a.92.92,0,1,1-.91.92A.91.91,0,0,1,193.22,21.88Z"/><path class="cls-11" d="M193.22,21.88a.92.92,0,1,1-.91.92A.91.91,0,0,1,193.22,21.88Z"/><path class="cls-10" d="M195.14,23.58a.92.92,0,0,1,.91.92.92.92,0,0,1-1.83,0A.92.92,0,0,1,195.14,23.58Z"/><path class="cls-11" d="M195.14,23.58a.92.92,0,0,1,.91.92.92.92,0,0,1-1.83,0A.92.92,0,0,1,195.14,23.58Z"/><path class="cls-10" d="M196.5,25.75a.92.92,0,1,1-.91.91A.92.92,0,0,1,196.5,25.75Z"/><path class="cls-11" d="M196.5,25.75a.92.92,0,1,1-.91.91A.92.92,0,0,1,196.5,25.75Z"/><path class="cls-10" d="M197.19,28.21a.92.92,0,0,1,0,1.84.92.92,0,0,1,0-1.84Z"/><path class="cls-11" d="M197.19,28.21a.92.92,0,0,1,0,1.84.92.92,0,0,1,0-1.84Z"/><path class="cls-10" d="M197.15,30.78a.92.92,0,1,1-.91.92A.91.91,0,0,1,197.15,30.78Z"/><path class="cls-11" d="M197.15,30.78a.92.92,0,1,1-.91.92A.91.91,0,0,1,197.15,30.78Z"/><path class="cls-10" d="M196.39,33.22a.92.92,0,1,1-.92.92A.93.93,0,0,1,196.39,33.22Z"/><path class="cls-11" d="M196.39,33.22a.92.92,0,1,1-.92.92A.93.93,0,0,1,196.39,33.22Z"/><path class="cls-10" d="M195,35.36a.91.91,0,1,1-.92.91A.91.91,0,0,1,195,35.36Z"/><path class="cls-11" d="M195,35.36a.91.91,0,1,1-.92.91A.91.91,0,0,1,195,35.36Z"/><path class="cls-10" d="M193,37a.92.92,0,1,1-.91.92A.92.92,0,0,1,193,37Z"/><path class="cls-11" d="M193,37a.92.92,0,1,1-.91.92A.92.92,0,0,1,193,37Z"/><path class="cls-10" d="M190.65,38a.91.91,0,1,1-.92.91A.91.91,0,0,1,190.65,38Z"/><path class="cls-11" d="M190.65,38a.91.91,0,1,1-.92.91A.91.91,0,0,1,190.65,38Z"/><path class="cls-10" d="M190.63,40.94a.91.91,0,0,1,0,1.82.91.91,0,1,1,0-1.82Z"/><path class="cls-11" d="M190.63,40.94a.91.91,0,0,1,0,1.82.91.91,0,1,1,0-1.82Z"/><path class="cls-10" d="M190.61,43.86a.92.92,0,1,1-.91.91A.92.92,0,0,1,190.61,43.86Z"/><path class="cls-11" d="M190.61,43.86a.92.92,0,1,1-.91.91A.92.92,0,0,1,190.61,43.86Z"/><path class="cls-10" d="M190.59,46.8a.91.91,0,0,1,.92.9.92.92,0,1,1-1.83,0A.9.9,0,0,1,190.59,46.8Z"/><path class="cls-11" d="M190.59,46.8a.91.91,0,0,1,.92.9.92.92,0,1,1-1.83,0A.9.9,0,0,1,190.59,46.8Z"/><path class="cls-10" d="M190.58,49.72a.92.92,0,1,1-.92.91A.91.91,0,0,1,190.58,49.72Z"/><path class="cls-11" d="M190.58,49.72a.92.92,0,1,1-.92.91A.91.91,0,0,1,190.58,49.72Z"/><path class="cls-10" d="M190.56,52.65a.92.92,0,1,1-.92.91A.92.92,0,0,1,190.56,52.65Z"/><path class="cls-11" d="M190.56,52.65a.92.92,0,1,1-.92.91A.92.92,0,0,1,190.56,52.65Z"/><path class="cls-10" d="M190.55,55.57a.92.92,0,0,1,.91.92.92.92,0,0,1-1.83,0A.92.92,0,0,1,190.55,55.57Z"/><path class="cls-11" d="M190.55,55.57a.92.92,0,0,1,.91.92.92.92,0,0,1-1.83,0A.92.92,0,0,1,190.55,55.57Z"/><path class="cls-10" d="M190.53,58.5a.92.92,0,1,1-.91.92A.9.9,0,0,1,190.53,58.5Z"/><path class="cls-11" d="M190.53,58.5a.92.92,0,1,1-.91.92A.9.9,0,0,1,190.53,58.5Z"/><path class="cls-10" d="M194.46,60.33a.9.9,0,0,1,.91.9.92.92,0,1,1-1.83,0A.9.9,0,0,1,194.46,60.33Z"/><path class="cls-11" d="M194.46,60.33a.9.9,0,0,1,.91.9.92.92,0,1,1-1.83,0A.9.9,0,0,1,194.46,60.33Z"/><path class="cls-10" d="M196.68,58.41a.92.92,0,0,1,0,1.83.92.92,0,1,1,0-1.83Z"/><path class="cls-11" d="M196.68,58.41a.92.92,0,0,1,0,1.83.92.92,0,1,1,0-1.83Z"/><path class="cls-10" d="M198.9,56.49a.92.92,0,0,1,.91.93.91.91,0,0,1-1.82,0A.92.92,0,0,1,198.9,56.49Z"/><path class="cls-11" d="M198.9,56.49a.92.92,0,0,1,.91.93.91.91,0,0,1-1.82,0A.92.92,0,0,1,198.9,56.49Z"/><path class="cls-10" d="M200.92,54.94a.91.91,0,1,1-.91.91A.92.92,0,0,1,200.92,54.94Z"/><path class="cls-11" d="M200.92,54.94a.91.91,0,1,1-.91.91A.92.92,0,0,1,200.92,54.94Z"/><path class="cls-10" d="M203.33,55.82a.92.92,0,1,1-.91.93A.92.92,0,0,1,203.33,55.82Z"/><path class="cls-11" d="M203.33,55.82a.92.92,0,1,1-.91.93A.92.92,0,0,1,203.33,55.82Z"/><path class="cls-10" d="M203.85,58.34a.91.91,0,1,1-.91.9A.91.91,0,0,1,203.85,58.34Z"/><path class="cls-11" d="M203.85,58.34a.91.91,0,1,1-.91.9A.91.91,0,0,1,203.85,58.34Z"/><path class="cls-10" d="M202,60.11a.92.92,0,1,1-.92.91A.92.92,0,0,1,202,60.11Z"/><path class="cls-11" d="M202,60.11a.92.92,0,1,1-.92.91A.92.92,0,0,1,202,60.11Z"/><path class="cls-10" d="M199.78,62a.91.91,0,0,1,0,1.82.91.91,0,1,1,0-1.82Z"/><path class="cls-11" d="M199.78,62a.91.91,0,0,1,0,1.82.91.91,0,1,1,0-1.82Z"/><path class="cls-10" d="M197.56,63.93a.91.91,0,0,1,.91.9.91.91,0,1,1-1.82,0A.91.91,0,0,1,197.56,63.93Z"/><path class="cls-11" d="M197.56,63.93a.91.91,0,0,1,.91.9.91.91,0,1,1-1.82,0A.91.91,0,0,1,197.56,63.93Z"/><path class="cls-10" d="M198.63,67a.91.91,0,1,1-.92.91A.92.92,0,0,1,198.63,67Z"/><path class="cls-11" d="M198.63,67a.91.91,0,1,1-.92.91A.92.92,0,0,1,198.63,67Z"/><path class="cls-10" d="M198.71,70.28a.92.92,0,1,1-.91.92A.92.92,0,0,1,198.71,70.28Z"/><path class="cls-11" d="M198.71,70.28a.92.92,0,1,1-.91.92A.92.92,0,0,1,198.71,70.28Z"/><path class="cls-10" d="M197.81,73.42a.92.92,0,0,1,.92.92.92.92,0,0,1-1.83,0A.92.92,0,0,1,197.81,73.42Z"/><path class="cls-11" d="M197.81,73.42a.92.92,0,0,1,.92.92.92.92,0,0,1-1.83,0A.92.92,0,0,1,197.81,73.42Z"/><path class="cls-10" d="M200.13,75.21a.92.92,0,1,1-.91.92A.92.92,0,0,1,200.13,75.21Z"/><path class="cls-11" d="M200.13,75.21a.92.92,0,1,1-.91.92A.92.92,0,0,1,200.13,75.21Z"/><path class="cls-10" d="M202.45,77a.92.92,0,1,1-.91.91A.91.91,0,0,1,202.45,77Z"/><path class="cls-11" d="M202.45,77a.92.92,0,1,1-.91.91A.91.91,0,0,1,202.45,77Z"/><path class="cls-10" d="M204.77,78.8a.91.91,0,1,1-.91.91A.91.91,0,0,1,204.77,78.8Z"/><path class="cls-11" d="M204.77,78.8a.91.91,0,1,1-.91.91A.91.91,0,0,1,204.77,78.8Z"/><path class="cls-10" d="M207.09,80.58a.92.92,0,1,1-.92.91A.92.92,0,0,1,207.09,80.58Z"/><path class="cls-11" d="M207.09,80.58a.92.92,0,1,1-.92.91A.92.92,0,0,1,207.09,80.58Z"/><path class="cls-10" d="M209,82.24a.92.92,0,1,1-.91.92A.92.92,0,0,1,209,82.24Z"/><path class="cls-11" d="M209,82.24a.92.92,0,1,1-.91.92A.92.92,0,0,1,209,82.24Z"/><path class="cls-10" d="M208.64,84.78a.92.92,0,1,1-.91.91A.91.91,0,0,1,208.64,84.78Z"/><path class="cls-11" d="M208.64,84.78a.92.92,0,1,1-.91.91A.91.91,0,0,1,208.64,84.78Z"/><path class="cls-10" d="M206.3,85.8a.92.92,0,1,1-.92.92A.92.92,0,0,1,206.3,85.8Z"/><path class="cls-11" d="M206.3,85.8a.92.92,0,1,1-.92.92A.92.92,0,0,1,206.3,85.8Z"/><path class="cls-10" d="M204.18,84.34a.92.92,0,1,1-.91.93A.92.92,0,0,1,204.18,84.34Z"/><path class="cls-11" d="M204.18,84.34a.92.92,0,1,1-.91.93A.92.92,0,0,1,204.18,84.34Z"/><path class="cls-10" d="M201.86,82.56a.91.91,0,1,1-.91.91A.91.91,0,0,1,201.86,82.56Z"/><path class="cls-11" d="M201.86,82.56a.91.91,0,1,1-.91.91A.91.91,0,0,1,201.86,82.56Z"/><path class="cls-10" d="M199.55,80.77a.92.92,0,1,1-.92.92A.91.91,0,0,1,199.55,80.77Z"/><path class="cls-11" d="M199.55,80.77a.92.92,0,1,1-.92.92A.91.91,0,0,1,199.55,80.77Z"/><path class="cls-10" d="M197.23,79a.92.92,0,1,1-.92.91A.91.91,0,0,1,197.23,79Z"/><path class="cls-11" d="M197.23,79a.92.92,0,1,1-.92.91A.91.91,0,0,1,197.23,79Z"/><path class="cls-10" d="M194.91,77.19a.92.92,0,1,1,0,1.83.92.92,0,0,1,0-1.83Z"/><path class="cls-11" d="M194.91,77.19a.92.92,0,1,1,0,1.83.92.92,0,0,1,0-1.83Z"/><path class="cls-10" d="M192.75,78.57a.92.92,0,0,1,.92.92.92.92,0,0,1-1.83,0A.92.92,0,0,1,192.75,78.57Z"/><path class="cls-11" d="M192.75,78.57a.92.92,0,0,1,.92.92.92.92,0,0,1-1.83,0A.92.92,0,0,1,192.75,78.57Z"/><path class="cls-10" d="M190.33,79.41a.91.91,0,1,1-.91.91A.91.91,0,0,1,190.33,79.41Z"/><path class="cls-11" d="M190.33,79.41a.91.91,0,1,1-.91.91A.91.91,0,0,1,190.33,79.41Z"/><path class="cls-10" d="M190.29,82.34a.92.92,0,1,1-.91.91A.91.91,0,0,1,190.29,82.34Z"/><path class="cls-11" d="M190.29,82.34a.92.92,0,1,1-.91.91A.91.91,0,0,1,190.29,82.34Z"/><path class="cls-10" d="M190.25,85.27a.91.91,0,1,1-.92.9A.91.91,0,0,1,190.25,85.27Z"/><path class="cls-11" d="M190.25,85.27a.91.91,0,1,1-.92.9A.91.91,0,0,1,190.25,85.27Z"/><path class="cls-10" d="M190.21,88.19a.92.92,0,1,1-.91.92A.92.92,0,0,1,190.21,88.19Z"/><path class="cls-11" d="M190.21,88.19a.92.92,0,1,1-.91.92A.92.92,0,0,1,190.21,88.19Z"/><path class="cls-10" d="M190.17,91.12a.92.92,0,0,1,0,1.83.92.92,0,1,1,0-1.83Z"/><path class="cls-11" d="M190.17,91.12a.92.92,0,0,1,0,1.83.92.92,0,1,1,0-1.83Z"/><path class="cls-10" d="M190.14,94.05a.91.91,0,1,1-.92.91A.91.91,0,0,1,190.14,94.05Z"/><path class="cls-11" d="M190.14,94.05a.91.91,0,1,1-.92.91A.91.91,0,0,1,190.14,94.05Z"/><path class="cls-10" d="M192,96.37a.92.92,0,1,1-.92.92A.92.92,0,0,1,192,96.37Z"/><path class="cls-11" d="M192,96.37a.92.92,0,1,1-.92.92A.92.92,0,0,1,192,96.37Z"/><path class="cls-10" d="M191.93,99.32a.92.92,0,1,1,0,1.83.92.92,0,0,1,0-1.83Z"/><path class="cls-11" d="M191.93,99.32a.92.92,0,1,1,0,1.83.92.92,0,0,1,0-1.83Z"/><path class="cls-10" d="M190.09,101.63a.92.92,0,0,1,.91.92.92.92,0,0,1-1.83,0A.92.92,0,0,1,190.09,101.63Z"/><path class="cls-11" d="M190.09,101.63a.92.92,0,0,1,.91.92.92.92,0,0,1-1.83,0A.92.92,0,0,1,190.09,101.63Z"/><path class="cls-10" d="M190.09,104.55a.92.92,0,1,1-.92.92A.92.92,0,0,1,190.09,104.55Z"/><path class="cls-11" d="M190.09,104.55a.92.92,0,1,1-.92.92A.92.92,0,0,1,190.09,104.55Z"/><path class="cls-10" d="M191.06,106.92a.92.92,0,1,1-.91.92A.92.92,0,0,1,191.06,106.92Z"/><path class="cls-11" d="M191.06,106.92a.92.92,0,1,1-.91.92A.92.92,0,0,1,191.06,106.92Z"/><path class="cls-10" d="M190.09,109.29a.92.92,0,1,1-.92.92A.92.92,0,0,1,190.09,109.29Z"/><path class="cls-11" d="M190.09,109.29a.92.92,0,1,1-.92.92A.92.92,0,0,1,190.09,109.29Z"/><path class="cls-10" d="M190.09,112.22a.92.92,0,1,1-.92.91A.92.92,0,0,1,190.09,112.22Z"/><path class="cls-11" d="M190.09,112.22a.92.92,0,1,1-.92.91A.92.92,0,0,1,190.09,112.22Z"/><path class="cls-10" d="M191.06,114.59a.92.92,0,1,1-.91.92A.92.92,0,0,1,191.06,114.59Z"/><path class="cls-11" d="M191.06,114.59a.92.92,0,1,1-.91.92A.92.92,0,0,1,191.06,114.59Z"/><path class="cls-10" d="M190.09,117a.92.92,0,1,1-.92.91A.91.91,0,0,1,190.09,117Z"/><path class="cls-11" d="M190.09,117a.92.92,0,1,1-.92.91A.91.91,0,0,1,190.09,117Z"/><path class="cls-10" d="M190.09,119.88a.92.92,0,0,1,.91.93.92.92,0,0,1-1.83,0A.92.92,0,0,1,190.09,119.88Z"/><path class="cls-11" d="M190.09,119.88a.92.92,0,0,1,.91.93.92.92,0,0,1-1.83,0A.92.92,0,0,1,190.09,119.88Z"/><path class="cls-10" d="M190.09,122.81a.92.92,0,1,1-.92.92A.92.92,0,0,1,190.09,122.81Z"/><path class="cls-11" d="M190.09,122.81a.92.92,0,1,1-.92.92A.92.92,0,0,1,190.09,122.81Z"/><path class="cls-10" d="M192.64,122.81a.92.92,0,1,1-.91.92A.92.92,0,0,1,192.64,122.81Z"/><path class="cls-11" d="M192.64,122.81a.92.92,0,1,1-.91.92A.92.92,0,0,1,192.64,122.81Z"/><path class="cls-11" d="M171.64,78.08a.92.92,0,0,1,.91.93.92.92,0,0,1-1.83,0A.93.93,0,0,1,171.64,78.08Z"/><path class="cls-11" d="M192.39,59.47a.92.92,0,0,1,.91.93.92.92,0,0,1-1.83,0A.93.93,0,0,1,192.39,59.47Z"/><line class="cls-4" x1="147.66" y1="70.48" x2="108.19" y2="70.48"/><polygon class="cls-5" points="146.18 65.46 154.92 70.5 146.18 75.55 146.18 65.46"/><path class="cls-12" d="M158.63,207.84l-25.94-11.63c8.27-17.23,29.69-18.74,41-8a27.81,27.81,0,0,1,.85,39.64c-10.83,11.2-29.88,10.43-41-6.4Z"/><path class="cls-13" d="M82.4,140.76c1.73-4.1-1.16-14.87-5.34-18-8.34-6.21-21.66-3.2-29.72,2.68-11.05,8-16.62,24.63-10.36,37.73,8.53,17.84,35,20.91,44.75,12.36,5-4.36,5.76-18.4,3-21.35-2.43-2.61-10.48,5.21-15.7,2.28a9.31,9.31,0,0,1-4-11.64C67.38,139.12,80,146.36,82.4,140.76Z"/><path class="cls-4" d="M141.69,70.48c-26.37-.85-26.37,18.21-26.37,42.26s.11,35.1-21.81,35.1"/></svg>