<svg id="Layer_1" data-name="Layer 1" xmlns="http://www.w3.org/2000/svg" viewBox="0 0 226.43 181.51"><defs><style>.cls-1,.cls-2,.cls-3{fill:none;stroke:#232020;stroke-miterlimit:10;}.cls-1,.cls-3{stroke-width:3px;}.cls-2,.cls-3{stroke-linecap:round;}.cls-2{stroke-width:2.77px;}</style></defs><title>Artboard 1</title><path class="cls-1" d="M219.16,100.63S194.7,80,164.85,80,95.24,115.38,53.7,115.38,2.44,100.63,2.44,100.63"/><path class="cls-2" d="M7.21,94.08s107.57,2.39,110,0,1.08-39,0-40.86-6.64-7.56-6.64-12.87a15.84,15.84,0,0,1,31.68,0c0,5.31-4.68,11.07-6.64,12.87s-2.65,36.85,0,39.61S191.31,94,192.89,93s7.56-6.64,12.87-6.64a15.84,15.84,0,1,1,0,31.68c-5.31,0-10.76-5.64-12.87-6.64s-84.3-.84-85.62,0-.52,21.93,0,23.84,6.63,7.56,6.63,12.87a15.84,15.84,0,1,1-31.67,0c0-5.31,6.16-11.09,6.63-12.87s1.37-21.92,0-23.84-57.62,0-57.62,0"/><path class="cls-3" d="M20,56.64A61.27,61.27,0,0,0,46.27,41.51C53.56,34.23,53.59,30.1,59,26.38c12.78-8.77,34.43-.85,46.19,6.37,22.07,13.56,41.52,44.48,31.86,65.31-7.55,16.26-32.38,25.39-49.38,27.08-10,1-17-.6-24.69,4.78-7.94,5.53-14.23,16.81-12,26.28,4.17,17.32,35.33,21.57,53.36,19.91,8.88-.82,22.09-2,28.67-12,6.25-9.39,3-21.21,0-31.86-1.41-5.09-5.42-18.86-17.52-29.46-6.88-6-9-4.55-15.13-10.36C98.85,91,86.94,79.47,86.1,64.61,84.87,43,107.76,27.48,118.75,20c11.44-7.77,22.33-15.17,36.63-13.54,20,2.27,34.16,20.69,39,35.84,6.31,19.65-.84,40.85-1.59,43-2.61,7.44-6.3,13.63-7.17,24.68a60.6,60.6,0,0,0,1.59,19.12"/></svg>
