<svg id="Layer_1" data-name="Layer 1" xmlns="http://www.w3.org/2000/svg" viewBox="0 0 207.03 207.36"><defs><style>.cls-1,.cls-9{fill:#fff;}.cls-1,.cls-5{stroke:#727979;}.cls-1,.cls-12,.cls-13,.cls-14,.cls-15,.cls-16,.cls-17,.cls-5,.cls-6,.cls-7,.cls-8{stroke-miterlimit:10;}.cls-1{stroke-width:1.81px;}.cls-2{fill:#f9d1cf;}.cls-3{fill:#f5f4c1;}.cls-4{fill:#ffa49b;}.cls-10,.cls-11,.cls-12,.cls-13,.cls-14,.cls-15,.cls-16,.cls-17,.cls-5{fill:none;}.cls-10,.cls-11,.cls-12,.cls-15,.cls-5{stroke-linecap:round;}.cls-5{stroke-width:2px;stroke-dasharray:22.76 7.59;}.cls-6{fill:#6fa3f7;}.cls-6,.cls-7,.cls-8{stroke:#000;stroke-width:0.59px;}.cls-7{fill:#88ce88;}.cls-8{fill:#d68fd6;}.cls-10,.cls-11{stroke:#5a616d;stroke-linejoin:round;}.cls-10{stroke-width:1.29px;}.cls-11{stroke-width:0.75px;}.cls-12,.cls-13,.cls-14{stroke:#d68fd6;}.cls-12,.cls-14,.cls-15,.cls-17{stroke-width:1.24px;}.cls-13,.cls-16{stroke-width:0.62px;}.cls-15,.cls-16,.cls-17{stroke:#88ce88;}</style></defs><title>granules</title><path class="cls-1" d="M72.35,18.29c-2.67.68-42.54,11.49-56.66,49C.94,106.46,23.66,149.9,53.46,170c46.58,31.37,123.08,14.11,140.46-30.68C208,103.06,179.14,59.82,152,39,143.53,32.42,112.08,8.21,72.35,18.29Z"/><path class="cls-2" d="M75.64,27.27c-2.37.61-37.85,10.22-50.42,43.6-13.14,34.88,7.09,73.55,33.61,91.41,41.47,27.91,109.55,12.55,125-27.32,12.5-32.23-13.16-70.72-37.3-89.3C139,39.85,111,18.3,75.64,27.27Z"/><circle class="cls-3" cx="107.98" cy="123.83" r="28.98"/><circle class="cls-4" cx="107.25" cy="124.57" r="25.31"/><circle class="cls-5" cx="107.98" cy="123.83" r="28.98" transform="translate(-31.55 210.59) rotate(-80.78)"/><path class="cls-6" d="M50.82,66.28a7.78,7.78,0,1,0,7.78-7.77A7.78,7.78,0,0,0,50.82,66.28Z"/><path class="cls-7" d="M40.48,86.32a7.78,7.78,0,1,0,7.78-7.77A7.78,7.78,0,0,0,40.48,86.32Z"/><path class="cls-7" d="M107.25,58.74A7.78,7.78,0,1,0,115,51,7.78,7.78,0,0,0,107.25,58.74Z"/><path class="cls-6" d="M156.09,108.42a7.78,7.78,0,1,0,7.78-7.77A7.78,7.78,0,0,0,156.09,108.42Z"/><path class="cls-8" d="M46.08,130.88a7.78,7.78,0,1,0,7.78-7.77A7.78,7.78,0,0,0,46.08,130.88Z"/><path class="cls-8" d="M152.78,129.18a7.78,7.78,0,1,0,7.78-7.78A7.77,7.77,0,0,0,152.78,129.18Z"/><path class="cls-9" d="M.64,198.39a7.94,7.94,0,0,0,7.91,7.92l54.55,0a7.94,7.94,0,0,0,7.92-7.9l0-41.38a7.93,7.93,0,0,0-7.9-7.91l-54.56,0A7.94,7.94,0,0,0,.68,157Z"/><path class="cls-10" d="M.64,198.39a7.94,7.94,0,0,0,7.91,7.92l54.55,0a7.94,7.94,0,0,0,7.92-7.9l0-41.38a7.93,7.93,0,0,0-7.9-7.91l-54.56,0A7.94,7.94,0,0,0,.68,157Z"/><polyline class="cls-11" points="65.93 149.48 51.2 132.96 6.26 149.44"/><path class="cls-9" d="M134.37,52.43a7.93,7.93,0,0,0,7.9,7.91l54.56,0a7.94,7.94,0,0,0,7.92-7.9l0-41.38a7.93,7.93,0,0,0-7.9-7.91l-54.56,0a7.94,7.94,0,0,0-7.92,7.9Z"/><path class="cls-10" d="M134.37,52.43a7.93,7.93,0,0,0,7.9,7.91l54.56,0a7.94,7.94,0,0,0,7.92-7.9l0-41.38a7.93,7.93,0,0,0-7.9-7.91l-54.56,0a7.94,7.94,0,0,0-7.92,7.9Z"/><polyline class="cls-11" points="134.41 10.12 118.17 58.13 139.81 60.39"/><line class="cls-12" x1="55.55" y1="163" x2="50.17" y2="152.85"/><line class="cls-12" x1="61.56" y1="174.32" x2="58.64" y2="168.81"/><line class="cls-12" x1="55.55" y1="163" x2="48.23" y2="166.88"/><line class="cls-12" x1="58.64" y1="168.81" x2="51.31" y2="172.7"/><path class="cls-12" d="M40.91,174.81c1.71,3.23,5,4.82,7.43,3.55"/><path class="cls-12" d="M40.81,174.64c-1.71-3.23-1.16-6.88,1.23-8.15"/><path class="cls-12" d="M48.34,178.36c2.57-1.36,4-3.73,3.17-5.28"/><path class="cls-12" d="M42,166.49c2.58-1.36,5.35-1.19,6.19.39"/><line class="cls-13" x1="51.2" y1="170.24" x2="50.22" y2="168.38"/><line class="cls-13" x1="52.83" y1="169.38" x2="51.84" y2="167.52"/><line class="cls-13" x1="54.45" y1="168.52" x2="53.46" y2="166.66"/><line class="cls-13" x1="56.07" y1="167.66" x2="55.08" y2="165.8"/><line class="cls-13" x1="57.69" y1="166.8" x2="56.71" y2="164.94"/><line class="cls-12" x1="15.43" y1="192.48" x2="20.82" y2="202.62"/><line class="cls-12" x1="9.43" y1="181.15" x2="12.35" y2="186.66"/><line class="cls-12" x1="15.43" y1="192.48" x2="22.76" y2="188.59"/><line class="cls-12" x1="12.35" y1="186.66" x2="19.68" y2="182.77"/><path class="cls-12" d="M30.08,180.66c-1.71-3.23-5-4.82-7.43-3.55"/><path class="cls-12" d="M30.18,180.83c1.71,3.23,1.16,6.88-1.24,8.15"/><path class="cls-12" d="M22.65,177.11c-2.57,1.36-4,3.73-3.17,5.28"/><path class="cls-12" d="M28.94,189c-2.57,1.36-5.34,1.19-6.18-.39"/><line class="cls-13" x1="19.79" y1="185.23" x2="20.77" y2="187.09"/><line class="cls-13" x1="18.16" y1="186.09" x2="19.15" y2="187.95"/><line class="cls-13" x1="16.54" y1="186.95" x2="17.53" y2="188.81"/><line class="cls-13" x1="14.92" y1="187.81" x2="15.91" y2="189.67"/><line class="cls-13" x1="13.3" y1="188.67" x2="14.29" y2="190.53"/><line class="cls-14" x1="38.08" y1="174.58" x2="31.61" y2="178.02"/><line class="cls-14" x1="40.07" y1="178.33" x2="33.59" y2="181.76"/><path class="cls-14" d="M29.27,174.46a19.54,19.54,0,0,1,6.82-3.62"/><path class="cls-14" d="M35.22,185.69a19.41,19.41,0,0,0,6.83-3.62"/><line class="cls-15" x1="191.83" y1="18.93" x2="188.23" y2="8.02"/><line class="cls-15" x1="195.85" y1="31.1" x2="193.9" y2="25.18"/><line class="cls-15" x1="191.83" y1="18.93" x2="183.96" y2="21.53"/><line class="cls-15" x1="193.9" y1="25.18" x2="186.02" y2="27.78"/><path class="cls-15" d="M175.41,28.12c1.14,3.46,4.15,5.59,6.73,4.74"/><path class="cls-15" d="M175.34,27.93c-1.14-3.47,0-7,2.59-7.82"/><path class="cls-15" d="M182.14,32.86c2.76-.91,4.57-3,4-4.67"/><path class="cls-15" d="M177.93,20.11c2.76-.92,5.46-.28,6,1.42"/><line class="cls-16" x1="186.33" y1="25.34" x2="185.66" y2="23.34"/><line class="cls-16" x1="188.07" y1="24.76" x2="187.41" y2="22.76"/><line class="cls-16" x1="189.81" y1="24.19" x2="189.15" y2="22.19"/><line class="cls-16" x1="191.56" y1="23.61" x2="190.9" y2="21.61"/><line class="cls-16" x1="193.3" y1="23.04" x2="192.64" y2="21.04"/><line class="cls-15" x1="147.33" y1="41.25" x2="150.93" y2="52.16"/><line class="cls-15" x1="143.31" y1="29.08" x2="145.27" y2="35"/><line class="cls-15" x1="147.33" y1="41.25" x2="155.21" y2="38.65"/><line class="cls-15" x1="145.27" y1="35" x2="153.15" y2="32.4"/><path class="cls-15" d="M163.76,32.06c-1.15-3.46-4.16-5.59-6.73-4.74"/><path class="cls-15" d="M163.82,32.25c1.15,3.47,0,7-2.58,7.82"/><path class="cls-15" d="M157,27.32c-2.77.91-4.57,3-4,4.67"/><path class="cls-15" d="M161.24,40.07c-2.77.91-5.47.28-6-1.42"/><line class="cls-16" x1="152.84" y1="34.84" x2="153.5" y2="36.84"/><line class="cls-16" x1="151.1" y1="35.41" x2="151.76" y2="37.42"/><line class="cls-16" x1="149.35" y1="35.99" x2="150.01" y2="37.99"/><line class="cls-16" x1="147.61" y1="36.56" x2="148.27" y2="38.57"/><line class="cls-16" x1="145.86" y1="37.14" x2="146.53" y2="39.14"/><line class="cls-17" x1="172.66" y1="27.42" x2="165.7" y2="29.71"/><line class="cls-17" x1="173.99" y1="31.44" x2="167.03" y2="33.74"/><path class="cls-17" d="M164,25.81a19.51,19.51,0,0,1,7.34-2.42"/><path class="cls-17" d="M168,37.89a19.6,19.6,0,0,0,7.34-2.42"/></svg>