<svg id="Layer_1" data-name="Layer 1" xmlns="http://www.w3.org/2000/svg" viewBox="0 0 207.03 207.36"><defs><style>.cls-1{fill:#86c3d1;}.cls-1,.cls-10,.cls-11{stroke:#565656;stroke-width:1.1px;}.cls-1,.cls-10,.cls-11,.cls-2,.cls-5,.cls-8{stroke-miterlimit:10;}.cls-2{fill:none;stroke:#231f20;stroke-width:1.57px;}.cls-3{fill:#231f20;}.cls-4,.cls-5,.cls-6{fill:#88ce88;stroke:#88ce88;}.cls-4{stroke-width:0.46px;}.cls-5{stroke-width:1.85px;}.cls-6{stroke-width:1.39px;}.cls-7,.cls-8,.cls-9{fill:#d68fd6;stroke:#d68fd6;}.cls-7{stroke-width:0.47px;}.cls-8{stroke-width:1.9px;}.cls-9{stroke-width:1.42px;}.cls-10{fill:#94ce86;}.cls-11{fill:#dba1a7;}</style></defs><title>helicase</title><path class="cls-1" d="M205.37,169.54C205.37,179.18,194,187,180,187s-25.39-7.81-25.39-17.45S166,152.08,180,152.08,205.37,159.89,205.37,169.54Z"/><path class="cls-1" d="M198.37,193.61c0,6.9-8.37,12.48-18.67,12.48S161,200.51,161,193.61s8.35-12.47,18.66-12.47S198.37,186.71,198.37,193.61Z"/><line class="cls-2" x1="153.28" y1="114.2" x2="153.14" y2="140.55"/><rect class="cls-3" x="152.35" y="135.43" width="1.57" height="10.23" transform="translate(11.75 292.91) rotate(-89.69)"/><line class="cls-2" x1="164.94" y1="114.29" x2="164.81" y2="138.26"/><polygon class="cls-3" points="160.13 136.86 164.79 145.04 169.55 136.91 160.13 136.86"/><line class="cls-4" x1="72.8" y1="65.72" x2="72.06" y2="65.72"/><line class="cls-4" x1="70.23" y1="65.72" x2="69.5" y2="65.72"/><line class="cls-4" x1="67.66" y1="65.72" x2="66.93" y2="65.72"/><line class="cls-4" x1="65.09" y1="65.72" x2="64.36" y2="65.72"/><line class="cls-4" x1="63.44" y1="64.8" x2="63.44" y2="63.7"/><line class="cls-4" x1="63.44" y1="61.86" x2="63.44" y2="60.76"/><line class="cls-4" x1="63.99" y1="59.11" x2="64.42" y2="58.52"/><line class="cls-4" x1="64.97" y1="56.86" x2="64.97" y2="56.13"/><line class="cls-4" x1="64.42" y1="54.48" x2="63.99" y2="53.88"/><line class="cls-4" x1="63.44" y1="52.23" x2="63.44" y2="51.12"/><line class="cls-4" x1="63.44" y1="49.29" x2="63.44" y2="48.19"/><line class="cls-4" x1="63.44" y1="46.35" x2="63.44" y2="45.26"/><line class="cls-4" x1="63.44" y1="43.42" x2="63.44" y2="42.32"/><line class="cls-4" x1="64.33" y1="41.15" x2="65.04" y2="40.96"/><line class="cls-4" x1="66.74" y1="40.29" x2="67.39" y2="39.96"/><line class="cls-4" x1="68.93" y1="38.99" x2="69.51" y2="38.54"/><line class="cls-4" x1="70.84" y1="37.29" x2="71.33" y2="36.74"/><line class="cls-4" x1="72.39" y1="35.26" x2="72.76" y2="34.62"/><line class="cls-4" x1="73.53" y1="32.97" x2="73.77" y2="32.27"/><line class="cls-4" x1="74.21" y1="30.49" x2="74.31" y2="29.77"/><line class="cls-4" x1="74.4" y1="27.95" x2="74.36" y2="27.21"/><line class="cls-4" x1="74.1" y1="25.41" x2="73.92" y2="24.69"/><line class="cls-4" x1="73.32" y1="22.96" x2="73.02" y2="22.3"/><line class="cls-4" x1="72.1" y1="20.73" x2="71.67" y2="20.13"/><line class="cls-4" x1="70.47" y1="18.76" x2="69.93" y2="18.26"/><line class="cls-4" x1="68.49" y1="17.14" x2="67.86" y2="16.74"/><line class="cls-4" x1="66.23" y1="15.92" x2="65.56" y2="15.66"/><line class="cls-4" x1="63.79" y1="15.16" x2="63.07" y2="15.03"/><line class="cls-4" x1="61.25" y1="14.88" x2="60.52" y2="14.89"/><line class="cls-4" x1="58.7" y1="15.09" x2="57.98" y2="15.24"/><line class="cls-4" x1="56.25" y1="15.78" x2="55.57" y2="16.06"/><line class="cls-4" x1="53.96" y1="16.92" x2="53.35" y2="17.33"/><line class="cls-4" x1="51.94" y1="18.49" x2="51.41" y2="19.01"/><line class="cls-4" x1="50.24" y1="20.41" x2="49.83" y2="21.02"/><line class="cls-4" x1="48.95" y1="22.62" x2="48.67" y2="23.29"/><line class="cls-4" x1="48.1" y1="25.03" x2="47.95" y2="25.75"/><line class="cls-4" x1="47.73" y1="27.57" x2="47.71" y2="28.3"/><line class="cls-4" x1="46.81" y1="29.45" x2="45.74" y2="29.71"/><line class="cls-4" x1="43.97" y1="30.17" x2="42.9" y2="30.45"/><line class="cls-4" x1="41.12" y1="30.91" x2="40.06" y2="31.18"/><line class="cls-4" x1="38.29" y1="31.65" x2="37.22" y2="31.92"/><line class="cls-4" x1="35.64" y1="31.56" x2="35.07" y2="31.08"/><line class="cls-4" x1="33.49" y1="30.24" x2="32.78" y2="30.04"/><line class="cls-4" x1="30.99" y1="29.92" x2="30.27" y2="30.03"/><line class="cls-4" x1="28.73" y1="29.5" x2="27.97" y2="28.7"/><line class="cls-4" x1="26.7" y1="27.37" x2="25.94" y2="26.57"/><line class="cls-4" x1="24.67" y1="25.25" x2="23.92" y2="24.46"/><line class="cls-4" x1="22.65" y1="23.12" x2="21.89" y2="22.32"/><line class="cls-4" x1="20.63" y1="21" x2="19.86" y2="20.2"/><line class="cls-4" x1="19.58" y1="18.7" x2="19.88" y2="18.01"/><line class="cls-4" x1="20.32" y1="16.26" x2="20.41" y2="15.53"/><line class="cls-4" x1="20.34" y1="13.71" x2="20.22" y2="12.99"/><line class="cls-4" x1="19.64" y1="11.27" x2="19.31" y2="10.61"/><line class="cls-4" x1="18.28" y1="9.13" x2="17.77" y2="8.58"/><line class="cls-4" x1="16.35" y1="7.45" x2="15.72" y2="7.08"/><line class="cls-4" x1="14.04" y1="6.39" x2="13.32" y2="6.22"/><line class="cls-4" x1="11.52" y1="6.04" x2="10.79" y2="6.06"/><line class="cls-4" x1="9.01" y1="6.4" x2="8.31" y2="6.64"/><line class="cls-4" x1="6.7" y1="7.47" x2="6.1" y2="7.9"/><line class="cls-4" x1="4.78" y1="9.16" x2="4.33" y2="9.72"/><line class="cls-4" x1="3.42" y1="11.31" x2="3.15" y2="11.99"/><line class="cls-4" x1="2.73" y1="13.75" x2="2.67" y2="14.48"/><line class="cls-4" x1="2.76" y1="16.3" x2="2.9" y2="17.02"/><line class="cls-4" x1="3.51" y1="18.73" x2="3.85" y2="19.38"/><line class="cls-4" x1="4.91" y1="20.85" x2="5.42" y2="21.38"/><line class="cls-4" x1="6.87" y1="22.49" x2="7.5" y2="22.84"/><line class="cls-4" x1="9.2" y1="23.5" x2="9.91" y2="23.66"/><line class="cls-4" x1="11.72" y1="23.81" x2="12.45" y2="23.77"/><line class="cls-4" x1="14.23" y1="23.4" x2="14.92" y2="23.14"/><line class="cls-4" x1="16.42" y1="23.5" x2="17.17" y2="24.29"/><line class="cls-4" x1="18.44" y1="25.62" x2="19.2" y2="26.42"/><line class="cls-4" x1="20.47" y1="27.74" x2="21.22" y2="28.54"/><line class="cls-4" x1="22.49" y1="29.87" x2="23.25" y2="30.66"/><line class="cls-4" x1="24.52" y1="31.99" x2="25.28" y2="32.79"/><line class="cls-4" x1="25.74" y1="34.35" x2="25.59" y2="35.07"/><line class="cls-4" x1="25.62" y1="36.87" x2="25.79" y2="37.58"/><line class="cls-4" x1="26.56" y1="39.2" x2="27.01" y2="39.78"/><line class="cls-4" x1="28.37" y1="40.94" x2="29.02" y2="41.29"/><line class="cls-4" x1="30.74" y1="41.78" x2="31.47" y2="41.83"/><line class="cls-4" x1="33.25" y1="41.56" x2="33.94" y2="41.3"/><line class="cls-4" x1="35.45" y1="40.34" x2="35.97" y2="39.82"/><line class="cls-4" x1="36.94" y1="38.31" x2="37.2" y2="37.63"/><line class="cls-4" x1="38.41" y1="36.54" x2="39.48" y2="36.26"/><line class="cls-4" x1="41.25" y1="35.8" x2="42.32" y2="35.53"/><line class="cls-4" x1="44.1" y1="35.07" x2="45.17" y2="34.79"/><line class="cls-4" x1="46.94" y1="34.34" x2="48.01" y2="34.06"/><line class="cls-4" x1="49.35" y1="34.62" x2="49.72" y2="35.26"/><line class="cls-4" x1="50.79" y1="36.74" x2="51.27" y2="37.29"/><line class="cls-4" x1="52.6" y1="38.54" x2="53.18" y2="38.99"/><line class="cls-4" x1="54.73" y1="39.96" x2="55.39" y2="40.29"/><line class="cls-4" x1="57.08" y1="40.96" x2="57.79" y2="41.15"/><line class="cls-4" x1="58.67" y1="42.32" x2="58.67" y2="43.42"/><line class="cls-4" x1="58.67" y1="45.26" x2="58.67" y2="46.35"/><line class="cls-4" x1="58.67" y1="48.19" x2="58.67" y2="49.29"/><line class="cls-4" x1="58.67" y1="51.12" x2="58.67" y2="52.23"/><line class="cls-4" x1="58.13" y1="53.88" x2="57.69" y2="54.48"/><line class="cls-4" x1="57.15" y1="56.13" x2="57.15" y2="56.86"/><line class="cls-4" x1="57.69" y1="58.52" x2="58.13" y2="59.11"/><line class="cls-4" x1="58.67" y1="60.76" x2="58.67" y2="61.86"/><line class="cls-4" x1="58.67" y1="63.7" x2="58.67" y2="64.8"/><line class="cls-4" x1="57.76" y1="65.72" x2="57.02" y2="65.72"/><line class="cls-4" x1="55.19" y1="65.72" x2="54.45" y2="65.72"/><line class="cls-4" x1="52.62" y1="65.72" x2="51.89" y2="65.72"/><line class="cls-4" x1="50.05" y1="65.72" x2="49.32" y2="65.72"/><line class="cls-4" x1="47.48" y1="65.72" x2="46.75" y2="65.72"/><path class="cls-5" d="M73.72,64.8a.92.92,0,0,0-.92.92.92.92,0,0,0,1.83,0A.92.92,0,0,0,73.72,64.8Z"/><path class="cls-6" d="M73.72,64.8a.92.92,0,0,0-.92.92.92.92,0,0,0,1.83,0A.92.92,0,0,0,73.72,64.8Z"/><path class="cls-5" d="M71.15,64.8a.93.93,0,0,0-.92.92.92.92,0,0,0,.92.91.9.9,0,0,0,.91-.91A.92.92,0,0,0,71.15,64.8Z"/><path class="cls-6" d="M71.15,64.8a.93.93,0,0,0-.92.92.92.92,0,0,0,.92.91.9.9,0,0,0,.91-.91A.92.92,0,0,0,71.15,64.8Z"/><path class="cls-5" d="M68.58,64.8a.92.92,0,0,0-.92.92.92.92,0,0,0,1.84,0A.92.92,0,0,0,68.58,64.8Z"/><path class="cls-6" d="M68.58,64.8a.92.92,0,0,0-.92.92.92.92,0,0,0,1.84,0A.92.92,0,0,0,68.58,64.8Z"/><path class="cls-5" d="M66,64.8a.93.93,0,0,0-.93.92.92.92,0,0,0,.93.91.91.91,0,0,0,.91-.91A.92.92,0,0,0,66,64.8Z"/><path class="cls-6" d="M66,64.8a.93.93,0,0,0-.93.92.92.92,0,0,0,.93.91.91.91,0,0,0,.91-.91A.92.92,0,0,0,66,64.8Z"/><path class="cls-5" d="M63.44,64.8a.92.92,0,0,0-.91.92.92.92,0,0,0,1.83,0A.92.92,0,0,0,63.44,64.8Z"/><path class="cls-6" d="M63.44,64.8a.92.92,0,0,0-.91.92.92.92,0,0,0,1.83,0A.92.92,0,0,0,63.44,64.8Z"/><path class="cls-5" d="M63.44,61.86a.92.92,0,0,0-.91.93.92.92,0,0,0,1.83,0A.93.93,0,0,0,63.44,61.86Z"/><path class="cls-6" d="M63.44,61.86a.92.92,0,0,0-.91.93.92.92,0,0,0,1.83,0A.93.93,0,0,0,63.44,61.86Z"/><path class="cls-5" d="M63.44,58.93a.92.92,0,1,0,.92.92A.92.92,0,0,0,63.44,58.93Z"/><path class="cls-6" d="M63.44,58.93a.92.92,0,1,0,.92.92A.92.92,0,0,0,63.44,58.93Z"/><path class="cls-5" d="M65,56.86a.92.92,0,1,0,.92.92A.92.92,0,0,0,65,56.86Z"/><path class="cls-6" d="M65,56.86a.92.92,0,1,0,.92.92A.92.92,0,0,0,65,56.86Z"/><path class="cls-5" d="M65,54.3a.92.92,0,1,0,.92.91A.92.92,0,0,0,65,54.3Z"/><path class="cls-6" d="M65,54.3a.92.92,0,1,0,.92.91A.92.92,0,0,0,65,54.3Z"/><path class="cls-5" d="M63.44,52.23a.92.92,0,1,0,.92.92A.92.92,0,0,0,63.44,52.23Z"/><path class="cls-6" d="M63.44,52.23a.92.92,0,1,0,.92.92A.92.92,0,0,0,63.44,52.23Z"/><path class="cls-5" d="M63.44,49.29a.92.92,0,1,0,.92.92A.92.92,0,0,0,63.44,49.29Z"/><path class="cls-6" d="M63.44,49.29a.92.92,0,1,0,.92.92A.92.92,0,0,0,63.44,49.29Z"/><path class="cls-5" d="M63.44,46.35a.92.92,0,1,0,.92.92A.92.92,0,0,0,63.44,46.35Z"/><path class="cls-6" d="M63.44,46.35a.92.92,0,1,0,.92.92A.92.92,0,0,0,63.44,46.35Z"/><path class="cls-5" d="M63.44,43.42a.92.92,0,1,0,.92.91A.91.91,0,0,0,63.44,43.42Z"/><path class="cls-6" d="M63.44,43.42a.92.92,0,1,0,.92.91A.91.91,0,0,0,63.44,43.42Z"/><path class="cls-5" d="M63.44,40.48a.92.92,0,1,0,.92.93A.92.92,0,0,0,63.44,40.48Z"/><path class="cls-6" d="M63.44,40.48a.92.92,0,1,0,.92.93A.92.92,0,0,0,63.44,40.48Z"/><path class="cls-5" d="M65.92,39.79a.92.92,0,1,0,0,1.83.92.92,0,0,0,0-1.83Z"/><path class="cls-6" d="M65.92,39.79a.92.92,0,1,0,0,1.83.92.92,0,0,0,0-1.83Z"/><path class="cls-5" d="M68.21,38.63a.92.92,0,1,0,.92.92A.92.92,0,0,0,68.21,38.63Z"/><path class="cls-6" d="M68.21,38.63a.92.92,0,1,0,.92.92A.92.92,0,0,0,68.21,38.63Z"/><path class="cls-5" d="M70.24,37.06a.92.92,0,1,0,.92.92A.92.92,0,0,0,70.24,37.06Z"/><path class="cls-6" d="M70.24,37.06a.92.92,0,1,0,.92.92A.92.92,0,0,0,70.24,37.06Z"/><path class="cls-5" d="M71.93,35.13a.92.92,0,0,0,0,1.84.92.92,0,1,0,0-1.84Z"/><path class="cls-6" d="M71.93,35.13a.92.92,0,0,0,0,1.84.92.92,0,1,0,0-1.84Z"/><path class="cls-5" d="M73.23,32.91a.92.92,0,1,0,.91.92A.92.92,0,0,0,73.23,32.91Z"/><path class="cls-6" d="M73.23,32.91a.92.92,0,1,0,.91.92A.92.92,0,0,0,73.23,32.91Z"/><path class="cls-5" d="M74.07,30.49a.92.92,0,1,0,.92.91A.91.91,0,0,0,74.07,30.49Z"/><path class="cls-6" d="M74.07,30.49a.92.92,0,1,0,.92.91A.91.91,0,0,0,74.07,30.49Z"/><path class="cls-5" d="M74.44,28a.92.92,0,0,0,0,1.83.92.92,0,1,0,0-1.83Z"/><path class="cls-6" d="M74.44,28a.92.92,0,0,0,0,1.83.92.92,0,1,0,0-1.83Z"/><path class="cls-5" d="M74.32,25.38a.92.92,0,1,0,.92.91A.92.92,0,0,0,74.32,25.38Z"/><path class="cls-6" d="M74.32,25.38a.92.92,0,1,0,.92.91A.92.92,0,0,0,74.32,25.38Z"/><path class="cls-5" d="M73.71,22.89a.92.92,0,1,0,.91.91A.92.92,0,0,0,73.71,22.89Z"/><path class="cls-6" d="M73.71,22.89a.92.92,0,1,0,.91.91A.92.92,0,0,0,73.71,22.89Z"/><path class="cls-5" d="M72.64,20.55a.92.92,0,1,0,.91.92A.92.92,0,0,0,72.64,20.55Z"/><path class="cls-6" d="M72.64,20.55a.92.92,0,1,0,.91.92A.92.92,0,0,0,72.64,20.55Z"/><path class="cls-5" d="M71.13,18.47a.92.92,0,0,0,0,1.83.92.92,0,1,0,0-1.83Z"/><path class="cls-6" d="M71.13,18.47a.92.92,0,0,0,0,1.83.92.92,0,1,0,0-1.83Z"/><path class="cls-5" d="M69.26,16.71a.92.92,0,1,0,.92.92A.92.92,0,0,0,69.26,16.71Z"/><path class="cls-6" d="M69.26,16.71a.92.92,0,1,0,.92.92A.92.92,0,0,0,69.26,16.71Z"/><path class="cls-5" d="M67.09,15.34a.92.92,0,1,0,0,1.83.92.92,0,1,0,0-1.83Z"/><path class="cls-6" d="M67.09,15.34a.92.92,0,1,0,0,1.83.92.92,0,1,0,0-1.83Z"/><path class="cls-5" d="M64.7,14.41a.92.92,0,1,0,.92.91A.91.91,0,0,0,64.7,14.41Z"/><path class="cls-6" d="M64.7,14.41a.92.92,0,1,0,.92.91A.91.91,0,0,0,64.7,14.41Z"/><path class="cls-5" d="M62.17,14a.92.92,0,1,0,0,1.84.92.92,0,0,0,0-1.84Z"/><path class="cls-6" d="M62.17,14a.92.92,0,1,0,0,1.84.92.92,0,0,0,0-1.84Z"/><path class="cls-5" d="M59.6,14a.92.92,0,1,0,.92.91A.92.92,0,0,0,59.6,14Z"/><path class="cls-6" d="M59.6,14a.92.92,0,1,0,.92.91A.92.92,0,0,0,59.6,14Z"/><path class="cls-5" d="M57.08,14.51a.92.92,0,1,0,.93.91A.92.92,0,0,0,57.08,14.51Z"/><path class="cls-6" d="M57.08,14.51a.92.92,0,1,0,.93.91A.92.92,0,0,0,57.08,14.51Z"/><path class="cls-5" d="M54.72,15.5a.92.92,0,1,0,.92.92A.92.92,0,0,0,54.72,15.5Z"/><path class="cls-6" d="M54.72,15.5a.92.92,0,1,0,.92.92A.92.92,0,0,0,54.72,15.5Z"/><path class="cls-5" d="M52.59,16.92a.92.92,0,1,0,.92.92A.92.92,0,0,0,52.59,16.92Z"/><path class="cls-6" d="M52.59,16.92a.92.92,0,1,0,.92.92A.92.92,0,0,0,52.59,16.92Z"/><path class="cls-5" d="M50.75,18.73a.92.92,0,1,0,.93.92A.92.92,0,0,0,50.75,18.73Z"/><path class="cls-6" d="M50.75,18.73a.92.92,0,1,0,.93.92A.92.92,0,0,0,50.75,18.73Z"/><path class="cls-5" d="M49.32,20.85a.92.92,0,1,0,0,1.84.92.92,0,0,0,0-1.84Z"/><path class="cls-6" d="M49.32,20.85a.92.92,0,1,0,0,1.84.92.92,0,0,0,0-1.84Z"/><path class="cls-5" d="M48.3,23.22a.92.92,0,1,0,0,1.83.92.92,0,0,0,0-1.83Z"/><path class="cls-6" d="M48.3,23.22a.92.92,0,1,0,0,1.83.92.92,0,0,0,0-1.83Z"/><path class="cls-5" d="M47.76,25.72a.93.93,0,1,0,.91.93A.91.91,0,0,0,47.76,25.72Z"/><path class="cls-6" d="M47.76,25.72a.93.93,0,1,0,.91.93A.91.91,0,0,0,47.76,25.72Z"/><path class="cls-5" d="M47.7,28.3a.91.91,0,0,0-.92.91.92.92,0,1,0,1.83,0A.91.91,0,0,0,47.7,28.3Z"/><path class="cls-6" d="M47.7,28.3a.91.91,0,0,0-.92.91.92.92,0,1,0,1.83,0A.91.91,0,0,0,47.7,28.3Z"/><path class="cls-5" d="M44.86,29a.92.92,0,1,0,.91.92A.92.92,0,0,0,44.86,29Z"/><path class="cls-6" d="M44.86,29a.92.92,0,1,0,.91.92A.92.92,0,0,0,44.86,29Z"/><path class="cls-5" d="M42,29.76a.92.92,0,1,0,.92.92A.92.92,0,0,0,42,29.76Z"/><path class="cls-6" d="M42,29.76a.92.92,0,1,0,.92.92A.92.92,0,0,0,42,29.76Z"/><path class="cls-5" d="M39.17,30.49a.93.93,0,0,0,0,1.85.93.93,0,0,0,0-1.85Z"/><path class="cls-6" d="M39.17,30.49a.93.93,0,0,0,0,1.85.93.93,0,0,0,0-1.85Z"/><path class="cls-5" d="M36.33,31.23a.92.92,0,1,0,.91.92A.92.92,0,0,0,36.33,31.23Z"/><path class="cls-6" d="M36.33,31.23a.92.92,0,1,0,.91.92A.92.92,0,0,0,36.33,31.23Z"/><path class="cls-5" d="M34.37,29.57a.92.92,0,0,0,0,1.84.92.92,0,0,0,0-1.84Z"/><path class="cls-6" d="M34.37,29.57a.92.92,0,0,0,0,1.84.92.92,0,0,0,0-1.84Z"/><path class="cls-5" d="M31.9,28.87a.92.92,0,1,0,.92.92A.92.92,0,0,0,31.9,28.87Z"/><path class="cls-6" d="M31.9,28.87a.92.92,0,1,0,.92.92A.92.92,0,0,0,31.9,28.87Z"/><circle class="cls-5" cx="29.36" cy="30.16" r="0.92"/><circle class="cls-6" cx="29.36" cy="30.16" r="0.92"/><path class="cls-5" d="M27.33,27.12a.92.92,0,1,0,.92.92A.92.92,0,0,0,27.33,27.12Z"/><path class="cls-6" d="M27.33,27.12a.92.92,0,1,0,.92.92A.92.92,0,0,0,27.33,27.12Z"/><path class="cls-5" d="M25.31,25a.92.92,0,1,0,.92.91A.92.92,0,0,0,25.31,25Z"/><path class="cls-6" d="M25.31,25a.92.92,0,1,0,.92.91A.92.92,0,0,0,25.31,25Z"/><path class="cls-5" d="M23.29,22.87a.92.92,0,1,0,.91.91A.92.92,0,0,0,23.29,22.87Z"/><path class="cls-6" d="M23.29,22.87a.92.92,0,1,0,.91.91A.92.92,0,0,0,23.29,22.87Z"/><path class="cls-5" d="M21.26,20.74a.92.92,0,1,0,0,1.84.92.92,0,0,0,0-1.84Z"/><path class="cls-6" d="M21.26,20.74a.92.92,0,1,0,0,1.84.92.92,0,0,0,0-1.84Z"/><path class="cls-5" d="M19.23,18.62a.92.92,0,1,0,.92.92A.92.92,0,0,0,19.23,18.62Z"/><path class="cls-6" d="M19.23,18.62a.92.92,0,1,0,.92.92A.92.92,0,0,0,19.23,18.62Z"/><path class="cls-5" d="M20.22,16.25a.92.92,0,1,0,.92.92A.92.92,0,0,0,20.22,16.25Z"/><path class="cls-6" d="M20.22,16.25a.92.92,0,1,0,.92.92A.92.92,0,0,0,20.22,16.25Z"/><path class="cls-5" d="M20.51,13.7a.92.92,0,0,0-.93.91.93.93,0,0,0,.93.93.92.92,0,0,0,.91-.93A.91.91,0,0,0,20.51,13.7Z"/><path class="cls-6" d="M20.51,13.7a.92.92,0,0,0-.93.91.93.93,0,0,0,.93.93.92.92,0,0,0,.91-.93A.91.91,0,0,0,20.51,13.7Z"/><path class="cls-5" d="M20.05,11.17a.92.92,0,1,0,.92.92A.91.91,0,0,0,20.05,11.17Z"/><path class="cls-6" d="M20.05,11.17a.92.92,0,1,0,.92.92A.91.91,0,0,0,20.05,11.17Z"/><path class="cls-5" d="M18.9,8.87A.92.92,0,0,0,18,9.8a.92.92,0,0,0,1.83,0A.93.93,0,0,0,18.9,8.87Z"/><path class="cls-6" d="M18.9,8.87A.92.92,0,0,0,18,9.8a.92.92,0,0,0,1.83,0A.93.93,0,0,0,18.9,8.87Z"/><path class="cls-5" d="M17.14,7a.92.92,0,1,0,.92.91A.92.92,0,0,0,17.14,7Z"/><path class="cls-6" d="M17.14,7a.92.92,0,1,0,.92.91A.92.92,0,0,0,17.14,7Z"/><path class="cls-5" d="M14.93,5.71a.92.92,0,1,0,.92.91A.91.91,0,0,0,14.93,5.71Z"/><path class="cls-6" d="M14.93,5.71a.92.92,0,1,0,.92.91A.91.91,0,0,0,14.93,5.71Z"/><path class="cls-5" d="M12.44,5.08a.92.92,0,1,0,.91.92A.92.92,0,0,0,12.44,5.08Z"/><path class="cls-6" d="M12.44,5.08a.92.92,0,1,0,.91.92A.92.92,0,0,0,12.44,5.08Z"/><path class="cls-5" d="M9.87,5.2a.91.91,0,1,0,.92.91A.92.92,0,0,0,9.87,5.2Z"/><path class="cls-6" d="M9.87,5.2a.91.91,0,1,0,.92.91A.92.92,0,0,0,9.87,5.2Z"/><path class="cls-5" d="M7.44,6a.92.92,0,1,0,.92.91A.91.91,0,0,0,7.44,6Z"/><path class="cls-6" d="M7.44,6a.92.92,0,1,0,.92.91A.91.91,0,0,0,7.44,6Z"/><path class="cls-5" d="M5.35,7.52a.92.92,0,1,0,.91.91A.91.91,0,0,0,5.35,7.52Z"/><path class="cls-6" d="M5.35,7.52a.92.92,0,1,0,.91.91A.91.91,0,0,0,5.35,7.52Z"/><path class="cls-5" d="M3.76,9.54a.92.92,0,1,0,.92.91A.91.91,0,0,0,3.76,9.54Z"/><path class="cls-6" d="M3.76,9.54a.92.92,0,1,0,.92.91A.91.91,0,0,0,3.76,9.54Z"/><path class="cls-5" d="M2.82,11.92a.92.92,0,1,0,.91.92A.92.92,0,0,0,2.82,11.92Z"/><path class="cls-6" d="M2.82,11.92a.92.92,0,1,0,.91.92A.92.92,0,0,0,2.82,11.92Z"/><path class="cls-5" d="M2.58,14.48a.92.92,0,0,0-.92.91.92.92,0,1,0,1.84,0A.92.92,0,0,0,2.58,14.48Z"/><path class="cls-6" d="M2.58,14.48a.92.92,0,0,0-.92.91.92.92,0,1,0,1.84,0A.92.92,0,0,0,2.58,14.48Z"/><path class="cls-5" d="M3.08,17a.92.92,0,1,0,0,1.84.92.92,0,1,0,0-1.84Z"/><path class="cls-6" d="M3.08,17a.92.92,0,1,0,0,1.84.92.92,0,1,0,0-1.84Z"/><path class="cls-5" d="M4.28,19.27a.92.92,0,1,0,.91.92A.92.92,0,0,0,4.28,19.27Z"/><path class="cls-6" d="M4.28,19.27a.92.92,0,1,0,.91.92A.92.92,0,0,0,4.28,19.27Z"/><path class="cls-5" d="M6.07,21.11a.92.92,0,1,0,0,1.84.92.92,0,0,0,0-1.84Z"/><path class="cls-6" d="M6.07,21.11a.92.92,0,1,0,0,1.84.92.92,0,0,0,0-1.84Z"/><path class="cls-5" d="M8.3,22.38a.92.92,0,0,0,0,1.83.92.92,0,1,0,0-1.83Z"/><path class="cls-6" d="M8.3,22.38a.92.92,0,0,0,0,1.83.92.92,0,1,0,0-1.83Z"/><path class="cls-5" d="M10.8,23a.92.92,0,1,0,.93.92A.93.93,0,0,0,10.8,23Z"/><path class="cls-6" d="M10.8,23a.92.92,0,1,0,.93.92A.93.93,0,0,0,10.8,23Z"/><path class="cls-5" d="M13.37,22.79a.92.92,0,1,0,.92.92A.92.92,0,0,0,13.37,22.79Z"/><path class="cls-6" d="M13.37,22.79a.92.92,0,1,0,.92.92A.92.92,0,0,0,13.37,22.79Z"/><path class="cls-5" d="M15.78,21.92a.91.91,0,1,0,.92.91A.9.9,0,0,0,15.78,21.92Z"/><path class="cls-6" d="M15.78,21.92a.91.91,0,1,0,.92.91A.9.9,0,0,0,15.78,21.92Z"/><path class="cls-5" d="M17.81,24a.92.92,0,1,0,0,1.83.92.92,0,1,0,0-1.83Z"/><path class="cls-6" d="M17.81,24a.92.92,0,1,0,0,1.83.92.92,0,1,0,0-1.83Z"/><path class="cls-5" d="M19.83,26.16a.92.92,0,1,0,.92.92A.92.92,0,0,0,19.83,26.16Z"/><path class="cls-6" d="M19.83,26.16a.92.92,0,1,0,.92.92A.92.92,0,0,0,19.83,26.16Z"/><path class="cls-5" d="M21.86,28.28a.92.92,0,1,0,.92.92A.92.92,0,0,0,21.86,28.28Z"/><path class="cls-6" d="M21.86,28.28a.92.92,0,1,0,.92.92A.92.92,0,0,0,21.86,28.28Z"/><path class="cls-5" d="M23.88,30.41a.92.92,0,0,0,0,1.84.92.92,0,1,0,0-1.84Z"/><path class="cls-6" d="M23.88,30.41a.92.92,0,0,0,0,1.84.92.92,0,1,0,0-1.84Z"/><path class="cls-5" d="M25.91,32.53a.92.92,0,1,0,.92.92A.92.92,0,0,0,25.91,32.53Z"/><path class="cls-6" d="M25.91,32.53a.92.92,0,1,0,.92.92A.92.92,0,0,0,25.91,32.53Z"/><path class="cls-5" d="M25.41,35.06a.92.92,0,0,0,0,1.83.92.92,0,1,0,0-1.83Z"/><path class="cls-6" d="M25.41,35.06a.92.92,0,0,0,0,1.83.92.92,0,1,0,0-1.83Z"/><path class="cls-5" d="M26,37.55a.92.92,0,1,0,.92.92A.93.93,0,0,0,26,37.55Z"/><path class="cls-6" d="M26,37.55a.92.92,0,1,0,.92.92A.93.93,0,0,0,26,37.55Z"/><path class="cls-5" d="M27.56,39.59a.92.92,0,1,0,.92.91A.91.91,0,0,0,27.56,39.59Z"/><path class="cls-6" d="M27.56,39.59a.92.92,0,1,0,.92.91A.91.91,0,0,0,27.56,39.59Z"/><path class="cls-5" d="M29.83,40.8a.92.92,0,1,0,0,1.83.92.92,0,1,0,0-1.83Z"/><path class="cls-6" d="M29.83,40.8a.92.92,0,1,0,0,1.83.92.92,0,1,0,0-1.83Z"/><path class="cls-5" d="M32.4,41a.92.92,0,1,0,.91.92A.92.92,0,0,0,32.4,41Z"/><path class="cls-6" d="M32.4,41a.92.92,0,1,0,.91.92A.92.92,0,0,0,32.4,41Z"/><path class="cls-5" d="M34.8,40.06a.93.93,0,1,0,.91.92A.92.92,0,0,0,34.8,40.06Z"/><path class="cls-6" d="M34.8,40.06a.93.93,0,1,0,.91.92A.92.92,0,0,0,34.8,40.06Z"/><path class="cls-5" d="M36.61,38.25a.92.92,0,1,0,.92.92A.92.92,0,0,0,36.61,38.25Z"/><path class="cls-6" d="M36.61,38.25a.92.92,0,1,0,.92.92A.92.92,0,0,0,36.61,38.25Z"/><path class="cls-5" d="M37.53,35.85a.92.92,0,1,0,0,1.83.92.92,0,0,0,0-1.83Z"/><path class="cls-6" d="M37.53,35.85a.92.92,0,1,0,0,1.83.92.92,0,0,0,0-1.83Z"/><path class="cls-5" d="M40.37,35.12a.92.92,0,1,0,.91.91A.92.92,0,0,0,40.37,35.12Z"/><path class="cls-6" d="M40.37,35.12a.92.92,0,1,0,.91.91A.92.92,0,0,0,40.37,35.12Z"/><path class="cls-5" d="M43.21,34.38a.92.92,0,1,0,.91.92A.91.91,0,0,0,43.21,34.38Z"/><path class="cls-6" d="M43.21,34.38a.92.92,0,1,0,.91.92A.91.91,0,0,0,43.21,34.38Z"/><path class="cls-5" d="M46.05,33.64a.92.92,0,1,0,.92.92A.92.92,0,0,0,46.05,33.64Z"/><path class="cls-6" d="M46.05,33.64a.92.92,0,1,0,.92.92A.92.92,0,0,0,46.05,33.64Z"/><path class="cls-5" d="M48.89,32.91a.92.92,0,1,0,.92.92A.92.92,0,0,0,48.89,32.91Z"/><path class="cls-6" d="M48.89,32.91a.92.92,0,1,0,.92.92A.92.92,0,0,0,48.89,32.91Z"/><path class="cls-5" d="M50.18,35.13a.92.92,0,0,0,0,1.84.92.92,0,1,0,0-1.84Z"/><path class="cls-6" d="M50.18,35.13a.92.92,0,0,0,0,1.84.92.92,0,1,0,0-1.84Z"/><path class="cls-5" d="M51.88,37.06a.92.92,0,1,0,.92.92A.92.92,0,0,0,51.88,37.06Z"/><path class="cls-6" d="M51.88,37.06a.92.92,0,1,0,.92.92A.92.92,0,0,0,51.88,37.06Z"/><circle class="cls-5" cx="53.91" cy="39.55" r="0.92"/><circle class="cls-6" cx="53.91" cy="39.55" r="0.92"/><path class="cls-5" d="M56.2,39.79a.92.92,0,1,0,.92.92A.92.92,0,0,0,56.2,39.79Z"/><path class="cls-6" d="M56.2,39.79a.92.92,0,1,0,.92.92A.92.92,0,0,0,56.2,39.79Z"/><path class="cls-5" d="M58.67,40.48a.92.92,0,1,0,.92.93A.91.91,0,0,0,58.67,40.48Z"/><path class="cls-6" d="M58.67,40.48a.92.92,0,1,0,.92.93A.91.91,0,0,0,58.67,40.48Z"/><path class="cls-5" d="M58.67,43.42a.92.92,0,0,0,0,1.84.92.92,0,1,0,0-1.84Z"/><path class="cls-6" d="M58.67,43.42a.92.92,0,0,0,0,1.84.92.92,0,1,0,0-1.84Z"/><path class="cls-5" d="M58.67,46.35a.92.92,0,1,0,.92.92A.92.92,0,0,0,58.67,46.35Z"/><path class="cls-6" d="M58.67,46.35a.92.92,0,1,0,.92.92A.92.92,0,0,0,58.67,46.35Z"/><path class="cls-5" d="M58.67,49.29a.92.92,0,1,0,.92.92A.91.91,0,0,0,58.67,49.29Z"/><path class="cls-6" d="M58.67,49.29a.92.92,0,1,0,.92.92A.91.91,0,0,0,58.67,49.29Z"/><path class="cls-5" d="M58.67,52.23a.92.92,0,1,0,.92.92A.91.91,0,0,0,58.67,52.23Z"/><path class="cls-6" d="M58.67,52.23a.92.92,0,1,0,.92.92A.91.91,0,0,0,58.67,52.23Z"/><path class="cls-5" d="M57.15,54.3a.92.92,0,1,0,.91.91A.92.92,0,0,0,57.15,54.3Z"/><path class="cls-6" d="M57.15,54.3a.92.92,0,1,0,.91.91A.92.92,0,0,0,57.15,54.3Z"/><path class="cls-5" d="M57.15,56.86a.92.92,0,1,0,.91.92A.92.92,0,0,0,57.15,56.86Z"/><path class="cls-6" d="M57.15,56.86a.92.92,0,1,0,.91.92A.92.92,0,0,0,57.15,56.86Z"/><path class="cls-5" d="M58.67,58.93a.92.92,0,1,0,.92.92A.91.91,0,0,0,58.67,58.93Z"/><path class="cls-6" d="M58.67,58.93a.92.92,0,1,0,.92.92A.91.91,0,0,0,58.67,58.93Z"/><path class="cls-5" d="M58.67,61.86a.92.92,0,0,0-.91.93.92.92,0,0,0,1.83,0A.93.93,0,0,0,58.67,61.86Z"/><path class="cls-6" d="M58.67,61.86a.92.92,0,0,0-.91.93.92.92,0,0,0,1.83,0A.93.93,0,0,0,58.67,61.86Z"/><path class="cls-5" d="M58.67,64.8a.92.92,0,0,0-.91.92.92.92,0,0,0,1.83,0A.92.92,0,0,0,58.67,64.8Z"/><path class="cls-6" d="M58.67,64.8a.92.92,0,0,0-.91.92.92.92,0,0,0,1.83,0A.92.92,0,0,0,58.67,64.8Z"/><path class="cls-5" d="M56.11,64.8a.92.92,0,0,0-.92.92.92.92,0,0,0,1.83,0A.92.92,0,0,0,56.11,64.8Z"/><path class="cls-6" d="M56.11,64.8a.92.92,0,0,0-.92.92.92.92,0,0,0,1.83,0A.92.92,0,0,0,56.11,64.8Z"/><path class="cls-5" d="M53.54,64.8a.92.92,0,0,0-.92.92.92.92,0,1,0,.92-.92Z"/><path class="cls-6" d="M53.54,64.8a.92.92,0,0,0-.92.92.92.92,0,1,0,.92-.92Z"/><path class="cls-5" d="M51,64.8a.93.93,0,0,0-.92.92A.92.92,0,1,0,51,64.8Z"/><path class="cls-6" d="M51,64.8a.93.93,0,0,0-.92.92A.92.92,0,1,0,51,64.8Z"/><path class="cls-5" d="M48.4,64.8a.93.93,0,0,0-.92.92.92.92,0,1,0,.92-.92Z"/><path class="cls-6" d="M48.4,64.8a.93.93,0,0,0-.92.92.92.92,0,1,0,.92-.92Z"/><path class="cls-5" d="M45.83,64.8a.93.93,0,0,0-.92.92.92.92,0,1,0,.92-.92Z"/><path class="cls-6" d="M45.83,64.8a.93.93,0,0,0-.92.92.92.92,0,1,0,.92-.92Z"/><line class="cls-7" x1="153.75" y1="100.13" x2="154.43" y2="100.13"/><line class="cls-7" x1="156.14" y1="100.13" x2="156.82" y2="100.13"/><line class="cls-7" x1="157.67" y1="99.27" x2="157.67" y2="98.24"/><line class="cls-7" x1="157.67" y1="96.54" x2="157.67" y2="95.52"/><line class="cls-7" x1="157.35" y1="93.87" x2="157.09" y2="93.24"/><line class="cls-7" x1="157.09" y1="91.66" x2="157.35" y2="91.03"/><line class="cls-7" x1="157.67" y1="89.39" x2="157.67" y2="88.36"/><line class="cls-7" x1="157.35" y1="86.72" x2="157.09" y2="86.09"/><line class="cls-7" x1="157.09" y1="84.51" x2="157.35" y2="83.88"/><line class="cls-7" x1="157.67" y1="82.23" x2="157.67" y2="81.2"/><line class="cls-7" x1="157.09" y1="79.73" x2="156.81" y2="79.44"/><line class="cls-7" x1="156.01" y1="77.99" x2="155.91" y2="77.6"/><line class="cls-7" x1="155.92" y1="75.95" x2="156.03" y2="75.56"/><line class="cls-7" x1="156.85" y1="74.12" x2="157.13" y2="73.84"/><line class="cls-7" x1="157.74" y1="72.36" x2="157.75" y2="71.34"/><line class="cls-7" x1="157.77" y1="69.64" x2="157.79" y2="68.61"/><line class="cls-7" x1="157.81" y1="66.9" x2="157.82" y2="65.88"/><line class="cls-7" x1="157.85" y1="64.17" x2="157.86" y2="63.15"/><line class="cls-7" x1="157.88" y1="61.44" x2="157.89" y2="60.41"/><line class="cls-7" x1="157.11" y1="59.26" x2="156.47" y2="59.02"/><line class="cls-7" x1="154.96" y1="58.25" x2="154.4" y2="57.86"/><line class="cls-7" x1="153" y1="57.88" x2="152.17" y2="58.48"/><line class="cls-7" x1="150.79" y1="59.49" x2="149.97" y2="60.09"/><line class="cls-7" x1="149.08" y1="61.43" x2="149.08" y2="61.46"/><line class="cls-7" x1="148.2" y1="62.8" x2="148.17" y2="62.82"/><line class="cls-7" x1="146.63" y1="63.27" x2="146.61" y2="63.27"/><line class="cls-7" x1="145.08" y1="63.72" x2="144.26" y2="64.34"/><line class="cls-7" x1="143.33" y1="65.68" x2="143.14" y2="66.33"/><line class="cls-7" x1="142.22" y1="67.67" x2="141.68" y2="68.08"/><line class="cls-7" x1="140.16" y1="68.63" x2="139.47" y2="68.64"/><line class="cls-7" x1="137.92" y1="68.17" x2="137.35" y2="67.78"/><line class="cls-7" x1="136.38" y1="66.49" x2="136.16" y2="65.83"/><line class="cls-7" x1="136.13" y1="64.21" x2="136.34" y2="63.56"/><line class="cls-7" x1="137.27" y1="62.24" x2="137.82" y2="61.83"/><line class="cls-7" x1="139.36" y1="61.32" x2="140.04" y2="61.32"/><line class="cls-7" x1="141.58" y1="60.79" x2="142.4" y2="60.18"/><line class="cls-7" x1="143.77" y1="59.15" x2="145.97" y2="57.52"/><line class="cls-7" x1="147.35" y1="56.51" x2="148.18" y2="55.9"/><line class="cls-7" x1="149.56" y1="54.9" x2="150.38" y2="54.29"/><line class="cls-7" x1="150.81" y1="52.98" x2="150.79" y2="52.93"/><line class="cls-7" x1="150.4" y1="51.28" x2="150.4" y2="51.23"/><line class="cls-7" x1="150.3" y1="49.52" x2="150.31" y2="49.47"/><line class="cls-7" x1="150.52" y1="47.79" x2="150.53" y2="47.73"/><line class="cls-7" x1="151.03" y1="46.1" x2="151.04" y2="46.06"/><line class="cls-7" x1="150.71" y1="44.72" x2="149.93" y2="44.06"/><line class="cls-7" x1="148.43" y1="43.37" x2="147.76" y2="43.26"/><line class="cls-7" x1="146.37" y1="42.46" x2="145.93" y2="41.94"/><line class="cls-7" x1="145.37" y1="40.43" x2="145.37" y2="39.75"/><line class="cls-7" x1="145.92" y1="38.24" x2="146.36" y2="37.72"/><line class="cls-7" x1="147.75" y1="36.92" x2="148.43" y2="36.8"/><line class="cls-7" x1="150" y1="37.08" x2="150.59" y2="37.43"/><line class="cls-7" x1="151.61" y1="38.67" x2="151.84" y2="39.31"/><line class="cls-7" x1="152.78" y1="40.66" x2="153.57" y2="41.32"/><line class="cls-7" x1="154.95" y1="41.43" x2="155.33" y2="41.2"/><line class="cls-7" x1="156.87" y1="40.49" x2="157.29" y2="40.35"/><line class="cls-7" x1="158.1" y1="39.23" x2="158.11" y2="38.2"/><line class="cls-7" x1="158.11" y1="36.5" x2="158.12" y2="35.46"/><line class="cls-7" x1="158.13" y1="33.76" x2="158.14" y2="32.73"/><line class="cls-7" x1="158.15" y1="31.02" x2="158.16" y2="30.01"/><line class="cls-7" x1="158.16" y1="28.3" x2="158.16" y2="27.27"/><line class="cls-7" x1="158.17" y1="25.57" x2="158.18" y2="24.54"/><line class="cls-7" x1="158.19" y1="22.84" x2="158.2" y2="21.81"/><line class="cls-7" x1="157.42" y1="20.61" x2="156.8" y2="20.32"/><line class="cls-7" x1="155.37" y1="19.43" x2="154.85" y2="18.98"/><line class="cls-7" x1="153.73" y1="17.72" x2="153.36" y2="17.15"/><line class="cls-7" x1="152.64" y1="15.61" x2="152.45" y2="14.96"/><line class="cls-7" x1="152.2" y1="13.28" x2="152.2" y2="12.61"/><line class="cls-7" x1="152.44" y1="10.93" x2="152.63" y2="10.27"/><line class="cls-7" x1="153.33" y1="8.73" x2="153.7" y2="8.16"/><line class="cls-7" x1="154.81" y1="6.88" x2="155.32" y2="6.43"/><line class="cls-7" x1="156.75" y1="5.53" x2="157.37" y2="5.25"/><line class="cls-7" x1="158.99" y1="4.78" x2="159.67" y2="4.69"/><line class="cls-7" x1="161.36" y1="4.69" x2="162.03" y2="4.79"/><line class="cls-7" x1="163.65" y1="5.28" x2="164.27" y2="5.57"/><line class="cls-7" x1="165.68" y1="6.5" x2="166.19" y2="6.95"/><line class="cls-7" x1="167.29" y1="8.24" x2="167.65" y2="8.82"/><line class="cls-7" x1="168.33" y1="10.36" x2="168.52" y2="11.03"/><line class="cls-7" x1="168.74" y1="12.7" x2="168.73" y2="13.38"/><line class="cls-7" x1="168.46" y1="15.05" x2="168.26" y2="15.7"/><line class="cls-7" x1="167.53" y1="17.22" x2="167.15" y2="17.8"/><line class="cls-7" x1="166.02" y1="19.05" x2="165.49" y2="19.49"/><line class="cls-7" x1="164.05" y1="20.37" x2="163.42" y2="20.64"/><line class="cls-7" x1="162.63" y1="21.83" x2="162.63" y2="22.86"/><line class="cls-7" x1="162.62" y1="24.56" x2="162.61" y2="25.59"/><line class="cls-7" x1="162.6" y1="27.3" x2="162.6" y2="28.33"/><line class="cls-7" x1="162.59" y1="30.03" x2="162.59" y2="31.05"/><line class="cls-7" x1="162.58" y1="32.76" x2="162.57" y2="33.79"/><line class="cls-7" x1="162.56" y1="35.5" x2="162.56" y2="36.52"/><line class="cls-7" x1="162.55" y1="38.23" x2="162.54" y2="39.25"/><line class="cls-7" x1="163.31" y1="40.46" x2="165.43" y2="41.45"/><line class="cls-7" x1="166.85" y1="41.24" x2="167.62" y2="40.57"/><line class="cls-7" x1="168.92" y1="39.46" x2="169.7" y2="38.79"/><line class="cls-7" x1="171.02" y1="37.72" x2="171.56" y2="37.3"/><line class="cls-7" x1="173.04" y1="37.07" x2="173.68" y2="37.31"/><line class="cls-7" x1="174.66" y1="38.45" x2="174.79" y2="39.11"/><line class="cls-7" x1="174.35" y1="40.54" x2="173.86" y2="41.01"/><line class="cls-7" x1="172.59" y1="42.16" x2="171.82" y2="42.83"/><line class="cls-7" x1="170.52" y1="43.94" x2="169.74" y2="44.61"/><line class="cls-7" x1="169.38" y1="45.97" x2="169.82" y2="47.24"/><line class="cls-7" x1="170.12" y1="48.9" x2="170.15" y2="50.24"/><line class="cls-7" x1="169.94" y1="51.92" x2="169.57" y2="53.21"/><line class="cls-7" x1="170.01" y1="54.56" x2="170.82" y2="55.18"/><line class="cls-7" x1="172.18" y1="56.23" x2="172.98" y2="56.85"/><line class="cls-7" x1="174.34" y1="57.89" x2="175.15" y2="58.52"/><line class="cls-7" x1="176.5" y1="59.57" x2="177.31" y2="60.19"/><line class="cls-7" x1="178.63" y1="61.26" x2="179.15" y2="61.72"/><line class="cls-7" x1="179.67" y1="63.11" x2="179.57" y2="63.79"/><line class="cls-7" x1="178.66" y1="64.97" x2="178.03" y2="65.24"/><line class="cls-7" x1="176.54" y1="65.1" x2="175.98" y2="64.71"/><line class="cls-7" x1="174.6" y1="63.71" x2="173.79" y2="63.08"/><line class="cls-7" x1="172.44" y1="62.03" x2="171.62" y2="61.41"/><line class="cls-7" x1="170.28" y1="60.37" x2="169.46" y2="59.74"/><line class="cls-7" x1="168.11" y1="58.7" x2="167.3" y2="58.07"/><line class="cls-7" x1="165.9" y1="58.01" x2="165.33" y2="58.38"/><line class="cls-7" x1="163.8" y1="59.12" x2="163.15" y2="59.34"/><line class="cls-7" x1="162.34" y1="60.47" x2="162.32" y2="61.5"/><line class="cls-7" x1="162.3" y1="63.21" x2="162.29" y2="64.23"/><line class="cls-7" x1="162.26" y1="65.93" x2="162.25" y2="66.96"/><line class="cls-7" x1="162.23" y1="68.67" x2="162.21" y2="69.69"/><line class="cls-7" x1="162.19" y1="71.4" x2="162.18" y2="72.43"/><line class="cls-7" x1="162.69" y1="73.95" x2="163.33" y2="74.78"/><line class="cls-7" x1="163.86" y1="76.3" x2="163.85" y2="77.35"/><line class="cls-7" x1="163.31" y1="78.87" x2="162.65" y2="79.69"/><line class="cls-7" x1="162.12" y1="81.2" x2="162.12" y2="82.23"/><line class="cls-7" x1="162.44" y1="83.88" x2="162.7" y2="84.51"/><line class="cls-7" x1="162.7" y1="86.08" x2="162.44" y2="86.72"/><line class="cls-7" x1="162.12" y1="88.36" x2="162.12" y2="89.39"/><line class="cls-7" x1="162.44" y1="91.03" x2="162.7" y2="91.66"/><line class="cls-7" x1="162.7" y1="93.24" x2="162.44" y2="93.87"/><line class="cls-7" x1="162.12" y1="95.52" x2="162.12" y2="96.54"/><line class="cls-7" x1="162.12" y1="98.24" x2="162.12" y2="99.27"/><line class="cls-7" x1="162.97" y1="100.13" x2="163.65" y2="100.13"/><path class="cls-8" d="M155.29,99.27a.86.86,0,1,1-.86.86A.85.85,0,0,1,155.29,99.27Z"/><path class="cls-9" d="M155.29,99.27a.86.86,0,1,1-.86.86A.85.85,0,0,1,155.29,99.27Z"/><path class="cls-8" d="M157.67,99.27a.86.86,0,1,1-.85.86A.85.85,0,0,1,157.67,99.27Z"/><path class="cls-9" d="M157.67,99.27a.86.86,0,1,1-.85.86A.85.85,0,0,1,157.67,99.27Z"/><path class="cls-8" d="M157.67,96.54a.85.85,0,0,1,.86.86.86.86,0,1,1-.86-.86Z"/><path class="cls-9" d="M157.67,96.54a.85.85,0,0,1,.86.86.86.86,0,1,1-.86-.86Z"/><path class="cls-8" d="M157.67,93.81a.86.86,0,1,1-.85.85A.85.85,0,0,1,157.67,93.81Z"/><path class="cls-9" d="M157.67,93.81a.86.86,0,1,1-.85.85A.85.85,0,0,1,157.67,93.81Z"/><path class="cls-8" d="M156.76,91.6a.85.85,0,1,1,0,1.7.85.85,0,1,1,0-1.7Z"/><path class="cls-9" d="M156.76,91.6a.85.85,0,1,1,0,1.7.85.85,0,1,1,0-1.7Z"/><path class="cls-8" d="M157.67,89.39a.85.85,0,1,1-.85.85A.85.85,0,0,1,157.67,89.39Z"/><path class="cls-9" d="M157.67,89.39a.85.85,0,1,1-.85.85A.85.85,0,0,1,157.67,89.39Z"/><path class="cls-8" d="M157.67,86.65a.86.86,0,1,1-.85.86A.85.85,0,0,1,157.67,86.65Z"/><path class="cls-9" d="M157.67,86.65a.86.86,0,1,1-.85.86A.85.85,0,0,1,157.67,86.65Z"/><path class="cls-8" d="M156.76,84.44a.86.86,0,1,1-.85.86A.86.86,0,0,1,156.76,84.44Z"/><path class="cls-9" d="M156.76,84.44a.86.86,0,1,1-.85.86A.86.86,0,0,1,156.76,84.44Z"/><path class="cls-8" d="M157.67,82.23a.86.86,0,1,1-.85.86A.85.85,0,0,1,157.67,82.23Z"/><path class="cls-9" d="M157.67,82.23a.86.86,0,1,1-.85.86A.85.85,0,0,1,157.67,82.23Z"/><path class="cls-8" d="M157.67,79.5a.85.85,0,0,1,.86.86.86.86,0,0,1-1.71,0A.85.85,0,0,1,157.67,79.5Z"/><path class="cls-9" d="M157.67,79.5a.85.85,0,0,1,.86.86.86.86,0,0,1-1.71,0A.85.85,0,0,1,157.67,79.5Z"/><path class="cls-8" d="M156.23,78a.86.86,0,0,1,.85.86.86.86,0,1,1-.85-.86Z"/><path class="cls-9" d="M156.23,78a.86.86,0,0,1,.85.86.86.86,0,1,1-.85-.86Z"/><path class="cls-8" d="M155.71,75.92a.85.85,0,0,1,.85.85.86.86,0,1,1-.85-.85Z"/><path class="cls-9" d="M155.71,75.92a.85.85,0,0,1,.85.85.86.86,0,1,1-.85-.85Z"/><path class="cls-8" d="M156.25,73.88a.86.86,0,0,1,0,1.71.86.86,0,1,1,0-1.71Z"/><path class="cls-9" d="M156.25,73.88a.86.86,0,0,1,0,1.71.86.86,0,1,1,0-1.71Z"/><path class="cls-8" d="M157.72,72.36a.86.86,0,1,1-.85.86A.86.86,0,0,1,157.72,72.36Z"/><path class="cls-9" d="M157.72,72.36a.86.86,0,1,1-.85.86A.86.86,0,0,1,157.72,72.36Z"/><path class="cls-8" d="M157.76,69.64a.85.85,0,1,1-.86.85A.85.85,0,0,1,157.76,69.64Z"/><path class="cls-9" d="M157.76,69.64a.85.85,0,1,1-.86.85A.85.85,0,0,1,157.76,69.64Z"/><path class="cls-8" d="M157.8,66.9a.86.86,0,0,1,0,1.71.86.86,0,1,1,0-1.71Z"/><path class="cls-9" d="M157.8,66.9a.86.86,0,0,1,0,1.71.86.86,0,1,1,0-1.71Z"/><path class="cls-8" d="M157.83,64.17A.86.86,0,1,1,157,65,.85.85,0,0,1,157.83,64.17Z"/><path class="cls-9" d="M157.83,64.17A.86.86,0,1,1,157,65,.85.85,0,0,1,157.83,64.17Z"/><path class="cls-8" d="M157.88,61.44a.86.86,0,0,1,.85.85.86.86,0,1,1-1.71,0A.85.85,0,0,1,157.88,61.44Z"/><path class="cls-9" d="M157.88,61.44a.86.86,0,0,1,.85.85.86.86,0,1,1-1.71,0A.85.85,0,0,1,157.88,61.44Z"/><path class="cls-8" d="M157.91,58.7a.86.86,0,1,1-.86.85A.86.86,0,0,1,157.91,58.7Z"/><path class="cls-9" d="M157.91,58.7a.86.86,0,1,1-.86.85A.86.86,0,0,1,157.91,58.7Z"/><path class="cls-8" d="M155.67,57.87a.85.85,0,0,1,.85.85.86.86,0,1,1-.85-.85Z"/><path class="cls-9" d="M155.67,57.87a.85.85,0,0,1,.85.85.86.86,0,1,1-.85-.85Z"/><path class="cls-8" d="M153.69,56.52a.85.85,0,0,1,.85.86.85.85,0,1,1-1.7,0A.85.85,0,0,1,153.69,56.52Z"/><path class="cls-9" d="M153.69,56.52a.85.85,0,0,1,.85.86.85.85,0,1,1-1.7,0A.85.85,0,0,1,153.69,56.52Z"/><path class="cls-8" d="M151.48,58.14a.85.85,0,1,1-.85.84A.85.85,0,0,1,151.48,58.14Z"/><path class="cls-9" d="M151.48,58.14a.85.85,0,1,1-.85.84A.85.85,0,0,1,151.48,58.14Z"/><path class="cls-8" d="M149.28,59.74a.85.85,0,0,1,.85.85.86.86,0,1,1-1.71,0A.85.85,0,0,1,149.28,59.74Z"/><path class="cls-9" d="M149.28,59.74a.85.85,0,0,1,.85.85.86.86,0,1,1-1.71,0A.85.85,0,0,1,149.28,59.74Z"/><path class="cls-8" d="M148.89,61.44a.86.86,0,0,1,.85.85.86.86,0,1,1-1.71,0A.85.85,0,0,1,148.89,61.44Z"/><path class="cls-9" d="M148.89,61.44a.86.86,0,0,1,.85.85.86.86,0,1,1-1.71,0A.85.85,0,0,1,148.89,61.44Z"/><path class="cls-8" d="M147.49,62.47a.86.86,0,1,1-.86.86A.87.87,0,0,1,147.49,62.47Z"/><path class="cls-9" d="M147.49,62.47a.86.86,0,1,1-.86.86A.87.87,0,0,1,147.49,62.47Z"/><path class="cls-8" d="M145.75,62.35a.86.86,0,1,1,0,1.71.85.85,0,0,1-.85-.85A.86.86,0,0,1,145.75,62.35Z"/><path class="cls-9" d="M145.75,62.35a.86.86,0,1,1,0,1.71.85.85,0,0,1-.85-.85A.86.86,0,0,1,145.75,62.35Z"/><path class="cls-8" d="M143.57,64a.86.86,0,1,1,0,1.71.86.86,0,0,1,0-1.71Z"/><path class="cls-9" d="M143.57,64a.86.86,0,1,1,0,1.71.86.86,0,0,1,0-1.71Z"/><path class="cls-8" d="M142.9,66.3a.85.85,0,1,1,0,1.7.85.85,0,1,1,0-1.7Z"/><path class="cls-9" d="M142.9,66.3a.85.85,0,1,1,0,1.7.85.85,0,1,1,0-1.7Z"/><path class="cls-8" d="M141,67.75a.86.86,0,1,1,0,1.71.85.85,0,0,1-.84-.85A.86.86,0,0,1,141,67.75Z"/><path class="cls-9" d="M141,67.75a.86.86,0,1,1,0,1.71.85.85,0,0,1-.84-.85A.86.86,0,0,1,141,67.75Z"/><path class="cls-8" d="M138.62,67.8a.86.86,0,0,1,.85.86.86.86,0,0,1-1.71,0A.86.86,0,0,1,138.62,67.8Z"/><path class="cls-9" d="M138.62,67.8a.86.86,0,0,1,.85.86.86.86,0,0,1-1.71,0A.86.86,0,0,1,138.62,67.8Z"/><path class="cls-8" d="M136.65,66.44a.86.86,0,1,1-.85.85A.86.86,0,0,1,136.65,66.44Z"/><path class="cls-9" d="M136.65,66.44a.86.86,0,1,1-.85.85A.86.86,0,0,1,136.65,66.44Z"/><path class="cls-8" d="M135.88,64.18A.85.85,0,1,1,135,65,.86.86,0,0,1,135.88,64.18Z"/><path class="cls-9" d="M135.88,64.18A.85.85,0,1,1,135,65,.86.86,0,0,1,135.88,64.18Z"/><path class="cls-8" d="M136.59,61.89a.86.86,0,0,1,0,1.71.86.86,0,0,1,0-1.71Z"/><path class="cls-9" d="M136.59,61.89a.86.86,0,0,1,0,1.71.86.86,0,0,1,0-1.71Z"/><path class="cls-8" d="M138.5,60.46a.86.86,0,1,1-.85.86A.86.86,0,0,1,138.5,60.46Z"/><path class="cls-9" d="M138.5,60.46a.86.86,0,1,1-.85.86A.86.86,0,0,1,138.5,60.46Z"/><path class="cls-8" d="M140.9,60.45a.86.86,0,1,1-.86.86A.86.86,0,0,1,140.9,60.45Z"/><path class="cls-9" d="M140.9,60.45a.86.86,0,1,1-.86.86A.86.86,0,0,1,140.9,60.45Z"/><path class="cls-8" d="M143.08,58.81a.86.86,0,1,1-.86.86A.85.85,0,0,1,143.08,58.81Z"/><path class="cls-9" d="M143.08,58.81a.86.86,0,1,1-.86.86A.85.85,0,0,1,143.08,58.81Z"/><path class="cls-8" d="M146.66,56.15a.86.86,0,0,1,.85.86.85.85,0,0,1-1.7,0A.86.86,0,0,1,146.66,56.15Z"/><path class="cls-9" d="M146.66,56.15a.86.86,0,0,1,.85.86.85.85,0,0,1-1.7,0A.86.86,0,0,1,146.66,56.15Z"/><path class="cls-8" d="M148.87,54.55a.85.85,0,1,1-.86.85A.85.85,0,0,1,148.87,54.55Z"/><path class="cls-9" d="M148.87,54.55a.85.85,0,1,1-.86.85A.85.85,0,0,1,148.87,54.55Z"/><path class="cls-8" d="M151.07,52.94a.85.85,0,1,1-.85.85A.85.85,0,0,1,151.07,52.94Z"/><path class="cls-9" d="M151.07,52.94a.85.85,0,1,1-.85.85A.85.85,0,0,1,151.07,52.94Z"/><path class="cls-8" d="M150.53,51.27a.84.84,0,0,1,.85.85.85.85,0,1,1-1.7,0A.84.84,0,0,1,150.53,51.27Z"/><path class="cls-9" d="M150.53,51.27a.84.84,0,0,1,.85.85.85.85,0,1,1-1.7,0A.84.84,0,0,1,150.53,51.27Z"/><path class="cls-8" d="M150.28,49.52a.86.86,0,1,1-.86.86A.85.85,0,0,1,150.28,49.52Z"/><path class="cls-9" d="M150.28,49.52a.86.86,0,1,1-.86.86A.85.85,0,0,1,150.28,49.52Z"/><path class="cls-8" d="M150.33,47.77a.85.85,0,1,1-.85.84A.85.85,0,0,1,150.33,47.77Z"/><path class="cls-9" d="M150.33,47.77a.85.85,0,1,1-.85.84A.85.85,0,0,1,150.33,47.77Z"/><path class="cls-8" d="M150.7,46.05a.86.86,0,1,1-.85.85A.85.85,0,0,1,150.7,46.05Z"/><path class="cls-9" d="M150.7,46.05a.86.86,0,1,1-.85.85A.85.85,0,0,1,150.7,46.05Z"/><path class="cls-8" d="M151.36,44.42a.85.85,0,1,1,0,1.7.85.85,0,0,1,0-1.7Z"/><path class="cls-9" d="M151.36,44.42a.85.85,0,1,1,0,1.7.85.85,0,0,1,0-1.7Z"/><path class="cls-8" d="M149.28,42.66a.85.85,0,0,1,.85.85.86.86,0,1,1-.85-.85Z"/><path class="cls-9" d="M149.28,42.66a.85.85,0,0,1,.85.85.86.86,0,1,1-.85-.85Z"/><path class="cls-8" d="M146.92,42.25a.86.86,0,0,1,.85.86.85.85,0,1,1-.85-.86Z"/><path class="cls-9" d="M146.92,42.25a.86.86,0,0,1,.85.86.85.85,0,1,1-.85-.86Z"/><path class="cls-8" d="M145.38,40.43a.86.86,0,1,1-.86.86A.85.85,0,0,1,145.38,40.43Z"/><path class="cls-9" d="M145.38,40.43a.86.86,0,1,1-.86.86A.85.85,0,0,1,145.38,40.43Z"/><path class="cls-8" d="M145.37,38a.86.86,0,1,1,0,1.71.85.85,0,0,1-.85-.85A.86.86,0,0,1,145.37,38Z"/><path class="cls-9" d="M145.37,38a.86.86,0,1,1,0,1.71.85.85,0,0,1-.85-.85A.86.86,0,0,1,145.37,38Z"/><path class="cls-8" d="M146.91,36.22a.85.85,0,0,1,0,1.7.85.85,0,1,1,0-1.7Z"/><path class="cls-9" d="M146.91,36.22a.85.85,0,0,1,0,1.7.85.85,0,1,1,0-1.7Z"/><path class="cls-8" d="M149.26,35.81a.85.85,0,1,1-.85.84A.85.85,0,0,1,149.26,35.81Z"/><path class="cls-9" d="M149.26,35.81a.85.85,0,1,1-.85.84A.85.85,0,0,1,149.26,35.81Z"/><path class="cls-8" d="M151.33,37a.86.86,0,1,1-.86.85A.86.86,0,0,1,151.33,37Z"/><path class="cls-9" d="M151.33,37a.86.86,0,1,1-.86.85A.86.86,0,0,1,151.33,37Z"/><path class="cls-8" d="M152.13,39.26a.86.86,0,1,1-.85.85A.85.85,0,0,1,152.13,39.26Z"/><path class="cls-9" d="M152.13,39.26a.86.86,0,1,1-.85.85A.85.85,0,0,1,152.13,39.26Z"/><path class="cls-8" d="M154.22,41a.85.85,0,1,1,0,1.7.85.85,0,1,1,0-1.7Z"/><path class="cls-9" d="M154.22,41a.85.85,0,1,1,0,1.7.85.85,0,1,1,0-1.7Z"/><path class="cls-8" d="M156.06,39.92a.85.85,0,1,1-.85.85A.85.85,0,0,1,156.06,39.92Z"/><path class="cls-9" d="M156.06,39.92a.85.85,0,1,1-.85.85A.85.85,0,0,1,156.06,39.92Z"/><path class="cls-8" d="M158.1,39.23a.85.85,0,1,1-.86.85A.85.85,0,0,1,158.1,39.23Z"/><path class="cls-9" d="M158.1,39.23a.85.85,0,1,1-.86.85A.85.85,0,0,1,158.1,39.23Z"/><path class="cls-8" d="M158.11,36.5a.85.85,0,1,1-.85.85A.85.85,0,0,1,158.11,36.5Z"/><path class="cls-9" d="M158.11,36.5a.85.85,0,1,1-.85.85A.85.85,0,0,1,158.11,36.5Z"/><path class="cls-8" d="M158.13,33.76a.85.85,0,1,1-.86.86A.85.85,0,0,1,158.13,33.76Z"/><path class="cls-9" d="M158.13,33.76a.85.85,0,1,1-.86.86A.85.85,0,0,1,158.13,33.76Z"/><path class="cls-8" d="M158.14,31a.86.86,0,1,1-.85.86A.85.85,0,0,1,158.14,31Z"/><path class="cls-9" d="M158.14,31a.86.86,0,1,1-.85.86A.85.85,0,0,1,158.14,31Z"/><path class="cls-8" d="M158.16,28.3a.86.86,0,0,1,0,1.71.86.86,0,0,1,0-1.71Z"/><path class="cls-9" d="M158.16,28.3a.86.86,0,0,1,0,1.71.86.86,0,0,1,0-1.71Z"/><path class="cls-8" d="M158.17,25.57a.85.85,0,1,1-.85.85A.85.85,0,0,1,158.17,25.57Z"/><path class="cls-9" d="M158.17,25.57a.85.85,0,1,1-.85.85A.85.85,0,0,1,158.17,25.57Z"/><path class="cls-8" d="M158.19,22.84a.85.85,0,0,1,0,1.7.85.85,0,1,1,0-1.7Z"/><path class="cls-9" d="M158.19,22.84a.85.85,0,0,1,0,1.7.85.85,0,1,1,0-1.7Z"/><path class="cls-8" d="M158.2,20.1a.86.86,0,1,1,0,1.71.85.85,0,0,1-.85-.85A.86.86,0,0,1,158.2,20.1Z"/><path class="cls-9" d="M158.2,20.1a.86.86,0,1,1,0,1.71.85.85,0,0,1-.85-.85A.86.86,0,0,1,158.2,20.1Z"/><path class="cls-8" d="M156,19.13a.85.85,0,1,1-.86.85A.85.85,0,0,1,156,19.13Z"/><path class="cls-9" d="M156,19.13a.85.85,0,1,1-.86.85A.85.85,0,0,1,156,19.13Z"/><path class="cls-8" d="M154.2,17.57a.86.86,0,1,1-.86.86A.86.86,0,0,1,154.2,17.57Z"/><path class="cls-9" d="M154.2,17.57a.86.86,0,1,1-.86.86A.86.86,0,0,1,154.2,17.57Z"/><path class="cls-8" d="M152.89,15.58a.85.85,0,1,1-.85.85A.84.84,0,0,1,152.89,15.58Z"/><path class="cls-9" d="M152.89,15.58a.85.85,0,1,1-.85.85A.84.84,0,0,1,152.89,15.58Z"/><path class="cls-8" d="M152.2,13.28a.86.86,0,0,1,.86.87.86.86,0,0,1-1.71,0A.86.86,0,0,1,152.2,13.28Z"/><path class="cls-9" d="M152.2,13.28a.86.86,0,0,1,.86.87.86.86,0,0,1-1.71,0A.86.86,0,0,1,152.2,13.28Z"/><path class="cls-8" d="M152.2,10.89a.86.86,0,1,1-.85.86A.85.85,0,0,1,152.2,10.89Z"/><path class="cls-9" d="M152.2,10.89a.86.86,0,1,1-.85.86A.85.85,0,0,1,152.2,10.89Z"/><path class="cls-8" d="M152.87,8.6a.86.86,0,1,1-.86.85A.85.85,0,0,1,152.87,8.6Z"/><path class="cls-9" d="M152.87,8.6a.86.86,0,1,1-.86.85A.85.85,0,0,1,152.87,8.6Z"/><path class="cls-8" d="M154.16,6.59a.85.85,0,0,1,.85.85.86.86,0,1,1-.85-.85Z"/><path class="cls-9" d="M154.16,6.59a.85.85,0,0,1,.85.85.86.86,0,1,1-.85-.85Z"/><path class="cls-8" d="M156,5a.86.86,0,1,1-.85.86A.86.86,0,0,1,156,5Z"/><path class="cls-9" d="M156,5a.86.86,0,1,1-.85.86A.86.86,0,0,1,156,5Z"/><path class="cls-8" d="M158.15,4a.86.86,0,0,1,.85.86.86.86,0,1,1-1.71,0A.87.87,0,0,1,158.15,4Z"/><path class="cls-9" d="M158.15,4a.86.86,0,0,1,.85.86.86.86,0,1,1-1.71,0A.87.87,0,0,1,158.15,4Z"/><path class="cls-8" d="M160.51,3.71a.86.86,0,1,1-.85.85A.86.86,0,0,1,160.51,3.71Z"/><path class="cls-9" d="M160.51,3.71a.86.86,0,1,1-.85.85A.86.86,0,0,1,160.51,3.71Z"/><path class="cls-8" d="M162.88,4.07a.85.85,0,0,1,0,1.7.85.85,0,1,1,0-1.7Z"/><path class="cls-9" d="M162.88,4.07a.85.85,0,0,1,0,1.7.85.85,0,1,1,0-1.7Z"/><path class="cls-8" d="M165,5.08a.85.85,0,1,1-.85.85A.85.85,0,0,1,165,5.08Z"/><path class="cls-9" d="M165,5.08a.85.85,0,1,1-.85.85A.85.85,0,0,1,165,5.08Z"/><path class="cls-8" d="M166.84,6.66a.86.86,0,0,1,.85.86.86.86,0,0,1-1.71,0A.86.86,0,0,1,166.84,6.66Z"/><path class="cls-9" d="M166.84,6.66a.86.86,0,0,1,.85.86.86.86,0,0,1-1.71,0A.86.86,0,0,1,166.84,6.66Z"/><path class="cls-8" d="M168.1,8.69a.86.86,0,1,1-.84.85A.85.85,0,0,1,168.1,8.69Z"/><path class="cls-9" d="M168.1,8.69a.86.86,0,1,1-.84.85A.85.85,0,0,1,168.1,8.69Z"/><path class="cls-8" d="M168.75,11a.86.86,0,1,1-.85.85A.85.85,0,0,1,168.75,11Z"/><path class="cls-9" d="M168.75,11a.86.86,0,1,1-.85.85A.85.85,0,0,1,168.75,11Z"/><path class="cls-8" d="M168.72,13.38a.86.86,0,1,1-.86.86A.85.85,0,0,1,168.72,13.38Z"/><path class="cls-9" d="M168.72,13.38a.86.86,0,1,1-.86.86A.85.85,0,0,1,168.72,13.38Z"/><path class="cls-8" d="M168,15.66a.86.86,0,0,1,0,1.71.86.86,0,0,1,0-1.71Z"/><path class="cls-9" d="M168,15.66a.86.86,0,0,1,0,1.71.86.86,0,0,1,0-1.71Z"/><path class="cls-8" d="M166.67,17.65a.85.85,0,0,1,.86.86.86.86,0,1,1-.86-.86Z"/><path class="cls-9" d="M166.67,17.65a.85.85,0,0,1,.86.86.86.86,0,1,1-.86-.86Z"/><path class="cls-8" d="M164.83,19.18A.85.85,0,1,1,164,20,.85.85,0,0,1,164.83,19.18Z"/><path class="cls-9" d="M164.83,19.18A.85.85,0,1,1,164,20,.85.85,0,0,1,164.83,19.18Z"/><path class="cls-8" d="M162.64,20.12a.86.86,0,1,1,0,1.71.85.85,0,0,1-.85-.85A.86.86,0,0,1,162.64,20.12Z"/><path class="cls-9" d="M162.64,20.12a.86.86,0,1,1,0,1.71.85.85,0,0,1-.85-.85A.86.86,0,0,1,162.64,20.12Z"/><path class="cls-8" d="M162.62,22.86a.85.85,0,1,1-.85.85A.85.85,0,0,1,162.62,22.86Z"/><path class="cls-9" d="M162.62,22.86a.85.85,0,1,1-.85.85A.85.85,0,0,1,162.62,22.86Z"/><path class="cls-8" d="M162.61,25.59a.86.86,0,1,1-.85.85A.85.85,0,0,1,162.61,25.59Z"/><path class="cls-9" d="M162.61,25.59a.86.86,0,1,1-.85.85A.85.85,0,0,1,162.61,25.59Z"/><path class="cls-8" d="M162.59,28.33a.84.84,0,0,1,.86.84.85.85,0,0,1-.86.86.84.84,0,0,1-.84-.86A.83.83,0,0,1,162.59,28.33Z"/><path class="cls-9" d="M162.59,28.33a.84.84,0,0,1,.86.84.85.85,0,0,1-.86.86.84.84,0,0,1-.84-.86A.83.83,0,0,1,162.59,28.33Z"/><path class="cls-8" d="M162.58,31.05a.86.86,0,1,1-.86.85A.86.86,0,0,1,162.58,31.05Z"/><path class="cls-9" d="M162.58,31.05a.86.86,0,1,1-.86.85A.86.86,0,0,1,162.58,31.05Z"/><path class="cls-8" d="M162.57,33.79a.86.86,0,0,1,.85.85.86.86,0,1,1-1.71,0A.85.85,0,0,1,162.57,33.79Z"/><path class="cls-9" d="M162.57,33.79a.86.86,0,0,1,.85.85.86.86,0,1,1-1.71,0A.85.85,0,0,1,162.57,33.79Z"/><path class="cls-8" d="M162.55,36.52a.86.86,0,0,1,0,1.71.86.86,0,1,1,0-1.71Z"/><path class="cls-9" d="M162.55,36.52a.86.86,0,0,1,0,1.71.86.86,0,1,1,0-1.71Z"/><path class="cls-8" d="M162.54,39.25a.86.86,0,1,1-.86.86A.85.85,0,0,1,162.54,39.25Z"/><path class="cls-9" d="M162.54,39.25a.86.86,0,1,1-.86.86A.85.85,0,0,1,162.54,39.25Z"/><path class="cls-8" d="M166.2,41a.83.83,0,0,1,.85.84.85.85,0,0,1-.85.85.86.86,0,0,1-.86-.85A.84.84,0,0,1,166.2,41Z"/><path class="cls-9" d="M166.2,41a.83.83,0,0,1,.85.84.85.85,0,0,1-.85.85.86.86,0,0,1-.86-.85A.84.84,0,0,1,166.2,41Z"/><path class="cls-8" d="M168.28,39.16a.86.86,0,0,1,.85.86.86.86,0,1,1-.85-.86Z"/><path class="cls-9" d="M168.28,39.16a.86.86,0,0,1,.85.86.86.86,0,1,1-.85-.86Z"/><path class="cls-8" d="M170.34,37.38a.86.86,0,1,1-.85.86A.85.85,0,0,1,170.34,37.38Z"/><path class="cls-9" d="M170.34,37.38a.86.86,0,1,1-.85.86A.85.85,0,0,1,170.34,37.38Z"/><path class="cls-8" d="M172.23,35.93a.85.85,0,1,1-.85.85A.85.85,0,0,1,172.23,35.93Z"/><path class="cls-9" d="M172.23,35.93a.85.85,0,1,1-.85.85A.85.85,0,0,1,172.23,35.93Z"/><path class="cls-8" d="M174.48,36.75a.86.86,0,1,1,0,1.71.86.86,0,0,1,0-1.71Z"/><path class="cls-9" d="M174.48,36.75a.86.86,0,1,1,0,1.71.86.86,0,0,1,0-1.71Z"/><path class="cls-8" d="M175,39.1a.85.85,0,1,1-.86.85A.84.84,0,0,1,175,39.1Z"/><path class="cls-9" d="M175,39.1a.85.85,0,1,1-.86.85A.84.84,0,0,1,175,39.1Z"/><path class="cls-8" d="M173.24,40.75a.86.86,0,1,1-.86.85A.86.86,0,0,1,173.24,40.75Z"/><path class="cls-9" d="M173.24,40.75a.86.86,0,1,1-.86.85A.86.86,0,0,1,173.24,40.75Z"/><path class="cls-8" d="M171.17,42.53a.85.85,0,1,1-.86.86A.85.85,0,0,1,171.17,42.53Z"/><path class="cls-9" d="M171.17,42.53a.85.85,0,1,1-.86.86A.85.85,0,0,1,171.17,42.53Z"/><path class="cls-8" d="M169.1,44.32a.85.85,0,1,1-.85.84A.85.85,0,0,1,169.1,44.32Z"/><path class="cls-9" d="M169.1,44.32a.85.85,0,1,1-.85.84A.85.85,0,0,1,169.1,44.32Z"/><path class="cls-8" d="M170.09,47.2a.85.85,0,1,1-.85.85A.85.85,0,0,1,170.09,47.2Z"/><path class="cls-9" d="M170.09,47.2a.85.85,0,1,1-.85.85A.85.85,0,0,1,170.09,47.2Z"/><path class="cls-8" d="M170.17,50.24a.86.86,0,1,1-.85.86A.86.86,0,0,1,170.17,50.24Z"/><path class="cls-9" d="M170.17,50.24a.86.86,0,1,1-.85.86A.86.86,0,0,1,170.17,50.24Z"/><path class="cls-8" d="M169.33,53.18a.86.86,0,1,1-.85.85A.85.85,0,0,1,169.33,53.18Z"/><path class="cls-9" d="M169.33,53.18a.86.86,0,1,1-.85.85A.85.85,0,0,1,169.33,53.18Z"/><path class="cls-8" d="M171.5,54.85a.86.86,0,1,1-.85.85A.85.85,0,0,1,171.5,54.85Z"/><path class="cls-9" d="M171.5,54.85a.86.86,0,1,1-.85.85A.85.85,0,0,1,171.5,54.85Z"/><path class="cls-8" d="M173.66,56.52a.85.85,0,0,1,.85.85.85.85,0,1,1-1.7,0A.85.85,0,0,1,173.66,56.52Z"/><path class="cls-9" d="M173.66,56.52a.85.85,0,0,1,.85.85.85.85,0,1,1-1.7,0A.85.85,0,0,1,173.66,56.52Z"/><path class="cls-8" d="M175.83,58.19A.86.86,0,1,1,175,59,.85.85,0,0,1,175.83,58.19Z"/><path class="cls-9" d="M175.83,58.19A.86.86,0,1,1,175,59,.85.85,0,0,1,175.83,58.19Z"/><path class="cls-8" d="M178,59.86a.86.86,0,1,1-.86.85A.86.86,0,0,1,178,59.86Z"/><path class="cls-9" d="M178,59.86a.86.86,0,1,1-.86.85A.86.86,0,0,1,178,59.86Z"/><path class="cls-8" d="M179.8,61.41a.86.86,0,1,1,0,1.71.86.86,0,0,1,0-1.71Z"/><path class="cls-9" d="M179.8,61.41a.86.86,0,1,1,0,1.71.86.86,0,0,1,0-1.71Z"/><path class="cls-8" d="M179.44,63.78a.86.86,0,1,1-.85.85A.85.85,0,0,1,179.44,63.78Z"/><path class="cls-9" d="M179.44,63.78a.86.86,0,1,1-.85.85A.85.85,0,0,1,179.44,63.78Z"/><path class="cls-8" d="M177.25,64.73a.86.86,0,1,1-.86.86A.85.85,0,0,1,177.25,64.73Z"/><path class="cls-9" d="M177.25,64.73a.86.86,0,1,1-.86.86A.85.85,0,0,1,177.25,64.73Z"/><path class="cls-8" d="M175.28,63.37a.85.85,0,1,1-.86.86A.85.85,0,0,1,175.28,63.37Z"/><path class="cls-9" d="M175.28,63.37a.85.85,0,1,1-.86.86A.85.85,0,0,1,175.28,63.37Z"/><path class="cls-8" d="M173.11,61.7a.86.86,0,1,1,0,1.71.86.86,0,0,1,0-1.71Z"/><path class="cls-9" d="M173.11,61.7a.86.86,0,1,1,0,1.71.86.86,0,0,1,0-1.71Z"/><path class="cls-8" d="M171,60a.86.86,0,0,1,0,1.72A.86.86,0,0,1,171,60Z"/><path class="cls-9" d="M171,60a.86.86,0,0,1,0,1.72A.86.86,0,0,1,171,60Z"/><path class="cls-8" d="M168.79,58.37a.85.85,0,0,1,0,1.7.85.85,0,1,1,0-1.7Z"/><path class="cls-9" d="M168.79,58.37a.85.85,0,0,1,0,1.7.85.85,0,1,1,0-1.7Z"/><path class="cls-8" d="M166.62,56.7a.85.85,0,1,1-.85.86A.85.85,0,0,1,166.62,56.7Z"/><path class="cls-9" d="M166.62,56.7a.85.85,0,1,1-.85.86A.85.85,0,0,1,166.62,56.7Z"/><path class="cls-8" d="M164.61,58a.85.85,0,1,1-.85.85A.85.85,0,0,1,164.61,58Z"/><path class="cls-9" d="M164.61,58a.85.85,0,1,1-.85.85A.85.85,0,0,1,164.61,58Z"/><path class="cls-8" d="M162.35,58.76a.86.86,0,1,1-.86.86A.85.85,0,0,1,162.35,58.76Z"/><path class="cls-9" d="M162.35,58.76a.86.86,0,1,1-.86.86A.85.85,0,0,1,162.35,58.76Z"/><path class="cls-8" d="M162.31,61.5a.85.85,0,0,1,.85.85.85.85,0,1,1-1.7,0A.84.84,0,0,1,162.31,61.5Z"/><path class="cls-9" d="M162.31,61.5a.85.85,0,0,1,.85.85.85.85,0,1,1-1.7,0A.84.84,0,0,1,162.31,61.5Z"/><path class="cls-8" d="M162.27,64.23a.85.85,0,1,1-.85.84A.85.85,0,0,1,162.27,64.23Z"/><path class="cls-9" d="M162.27,64.23a.85.85,0,1,1-.85.84A.85.85,0,0,1,162.27,64.23Z"/><path class="cls-8" d="M162.24,67a.86.86,0,1,1-.85.86A.85.85,0,0,1,162.24,67Z"/><path class="cls-9" d="M162.24,67a.86.86,0,1,1-.85.86A.85.85,0,0,1,162.24,67Z"/><path class="cls-8" d="M162.2,69.69a.86.86,0,0,1,0,1.71.86.86,0,1,1,0-1.71Z"/><path class="cls-9" d="M162.2,69.69a.86.86,0,0,1,0,1.71.86.86,0,1,1,0-1.71Z"/><path class="cls-8" d="M162.17,72.43a.85.85,0,1,1-.86.85A.86.86,0,0,1,162.17,72.43Z"/><path class="cls-9" d="M162.17,72.43a.85.85,0,1,1-.86.85A.86.86,0,0,1,162.17,72.43Z"/><path class="cls-8" d="M163.87,74.6a.85.85,0,1,1-.86.86A.85.85,0,0,1,163.87,74.6Z"/><path class="cls-9" d="M163.87,74.6a.85.85,0,1,1-.86.86A.85.85,0,0,1,163.87,74.6Z"/><path class="cls-8" d="M163.85,77.35a.86.86,0,1,1-.86.85A.86.86,0,0,1,163.85,77.35Z"/><path class="cls-9" d="M163.85,77.35a.86.86,0,1,1-.86.85A.86.86,0,0,1,163.85,77.35Z"/><path class="cls-8" d="M162.12,79.5a.85.85,0,0,1,.85.86.83.83,0,0,1-.85.84.84.84,0,0,1-.86-.84A.86.86,0,0,1,162.12,79.5Z"/><path class="cls-9" d="M162.12,79.5a.85.85,0,0,1,.85.86.83.83,0,0,1-.85.84.84.84,0,0,1-.86-.84A.86.86,0,0,1,162.12,79.5Z"/><path class="cls-8" d="M162.12,82.23a.86.86,0,0,1,0,1.72.86.86,0,1,1,0-1.72Z"/><path class="cls-9" d="M162.12,82.23a.86.86,0,0,1,0,1.72.86.86,0,1,1,0-1.72Z"/><path class="cls-8" d="M163,84.44a.86.86,0,1,1-.85.86A.85.85,0,0,1,163,84.44Z"/><path class="cls-9" d="M163,84.44a.86.86,0,1,1-.85.86A.85.85,0,0,1,163,84.44Z"/><path class="cls-8" d="M162.12,86.65a.86.86,0,1,1-.86.86A.85.85,0,0,1,162.12,86.65Z"/><path class="cls-9" d="M162.12,86.65a.86.86,0,1,1-.86.86A.85.85,0,0,1,162.12,86.65Z"/><path class="cls-8" d="M162.12,89.39a.85.85,0,0,1,0,1.7.85.85,0,1,1,0-1.7Z"/><path class="cls-9" d="M162.12,89.39a.85.85,0,0,1,0,1.7.85.85,0,1,1,0-1.7Z"/><path class="cls-8" d="M163,91.6a.85.85,0,1,1-.85.85A.85.85,0,0,1,163,91.6Z"/><path class="cls-9" d="M163,91.6a.85.85,0,1,1-.85.85A.85.85,0,0,1,163,91.6Z"/><path class="cls-8" d="M162.12,93.81a.86.86,0,0,1,0,1.71.86.86,0,1,1,0-1.71Z"/><path class="cls-9" d="M162.12,93.81a.86.86,0,0,1,0,1.71.86.86,0,1,1,0-1.71Z"/><path class="cls-8" d="M162.12,96.54a.85.85,0,0,1,.85.86.84.84,0,0,1-.85.84.85.85,0,0,1-.86-.84A.86.86,0,0,1,162.12,96.54Z"/><path class="cls-9" d="M162.12,96.54a.85.85,0,0,1,.85.86.84.84,0,0,1-.85.84.85.85,0,0,1-.86-.84A.86.86,0,0,1,162.12,96.54Z"/><path class="cls-8" d="M162.12,99.27a.86.86,0,1,1-.86.86A.85.85,0,0,1,162.12,99.27Z"/><path class="cls-9" d="M162.12,99.27a.86.86,0,1,1-.86.86A.85.85,0,0,1,162.12,99.27Z"/><path class="cls-8" d="M164.5,99.27a.86.86,0,1,1-.85.86A.85.85,0,0,1,164.5,99.27Z"/><path class="cls-9" d="M164.5,99.27a.86.86,0,1,1-.85.86A.85.85,0,0,1,164.5,99.27Z"/><path class="cls-9" d="M144.9,57.53a.86.86,0,1,1-.85.86A.85.85,0,0,1,144.9,57.53Z"/><path class="cls-9" d="M164.27,40.16a.86.86,0,0,1,.85.86.85.85,0,0,1-.85.85.86.86,0,1,1,0-1.71Z"/><line class="cls-2" x1="127.3" y1="50.43" x2="80.63" y2="50.43"/><polygon class="cls-3" points="125.92 45.74 134.08 50.45 125.92 55.16 125.92 45.74"/><path class="cls-10" d="M121,178.63,96.83,167.78c7.72-16.09,27.71-17.5,38.26-7.5a26,26,0,0,1,.79,37c-10.11,10.45-27.89,9.73-38.3-6Z"/><path class="cls-11" d="M59.31,121.68c1.43-3.38-1-12.26-4.4-14.82-6.88-5.13-17.84-2.65-24.49,2.2-9.1,6.62-13.69,20.29-8.53,31.09,7,14.69,28.85,17.22,36.87,10.18,4.09-3.59,4.75-15.16,2.48-17.59-2-2.15-8.64,4.3-12.93,1.88A7.69,7.69,0,0,1,45,125C46.94,120.32,57.37,126.29,59.31,121.68Z"/><path class="cls-2" d="M116.14,50.43c-24.61-.79-24.61,17-24.61,39.44s-4.14,32.75-24.6,32.75"/></svg>