<svg xmlns="http://www.w3.org/2000/svg" viewBox="0 0 1559.96 731.02"><defs><style>.cls-1,.cls-5{fill:#fff;}.cls-2{fill:#ebf2ec;}.cls-3{fill:#2d2d2d;}.cls-4{fill:#d0e7f4;}.cls-13,.cls-15,.cls-19,.cls-5,.cls-9{stroke:#5f6666;}.cls-10,.cls-11,.cls-13,.cls-15,.cls-19,.cls-5,.cls-9{stroke-miterlimit:10;}.cls-5{stroke-width:1.85px;}.cls-6{fill:#9fe2e2;}.cls-7{fill:#b5f7ea;}.cls-8{fill:#0ee583;}.cls-10,.cls-11,.cls-13,.cls-15,.cls-19,.cls-9{fill:none;}.cls-11,.cls-13,.cls-15,.cls-19,.cls-9{stroke-linecap:round;}.cls-9{stroke-width:2.13px;stroke-dasharray:24.74 8.25;}.cls-10,.cls-11{stroke:#1a1818;stroke-width:3px;}.cls-12{fill:#34acea;opacity:0.7;}.cls-13{stroke-width:1.19px;}.cls-14{fill:#1f5266;}.cls-15{stroke-width:0.96px;}.cls-16{fill:#f7c7c6;}.cls-17{fill:#f4f4b5;}.cls-18{fill:#ff928b;}.cls-19{stroke-width:2.04px;stroke-dasharray:23.28 7.76;}</style></defs><title>hero</title><g id="Layer_3" data-name="Layer 3"><rect class="cls-1" x="-9.99" y="-40.98" width="1591" height="1047"/></g><g id="background"><path class="cls-2" d="M987,102.61C975.75,106.86,850.84,157,822.69,313,804.58,413.3,858,530.43,929.24,552.73c94.34,29.53,65-64.7,234.17-44,107.61,13.16,130.35,86.84,215.68,64.76,78-20.19,162.23-108.6,169.14-208.87,11.2-162.38-181.7-335.26-319.42-312.94-36.82,6-21.57,23.51-93.68,37.05C1033.65,107.78,1041.36,82.05,987,102.61Z"/><path class="cls-3" d="M244.81,34.48h21.06c7.62,0,11.56,1.16,15.33,4.48a13.92,13.92,0,0,1,5.11,11.11,14.48,14.48,0,0,1-4.22,10.49,11.85,11.85,0,0,1-5.73,3.22c8.33,2.51,12.37,7.53,12.37,15.69,0,8.6-5.38,16.49-16.32,17.21-2,.09-4.57.18-8,.18H244.81Zm12.37,10.66V59.48h7.44c2.95,0,4.3-.18,5.37-.8,1.71-.9,3.23-4,3.23-6.46A7.11,7.11,0,0,0,269.64,46a12.56,12.56,0,0,0-5.2-.81Zm.18,24.65V86.64h8.15a9.89,9.89,0,0,0,5.83-1.43A9.43,9.43,0,0,0,274.56,78c0-3.59-1.88-6.64-4.57-7.62a12.84,12.84,0,0,0-4.84-.54Z"/><path class="cls-3" d="M327.9,84.67l4.66,7.17a26.35,26.35,0,0,1-17.3,6.36c-13.17,0-21.69-9.32-21.69-23.75,0-8.24,1.7-13.71,5.74-18.19,3.76-4.22,8.33-6.19,14.43-6.19,5.29,0,10.31,1.79,13.26,4.84,4.22,4.3,6.1,10.49,6.1,20.08v2.78H306.57v.36c0,7.08,3.49,11.11,9.68,11.11A17.93,17.93,0,0,0,327.9,84.67ZM306.75,69h13.89v-.53c0-3.41-.36-5.2-1.43-6.91a5.82,5.82,0,0,0-5.29-2.68c-4.57,0-7.17,3.58-7.17,9.94Z"/><path class="cls-3" d="M339.64,56.44a34.25,34.25,0,0,1,7.44-3.77A31.11,31.11,0,0,1,359.63,50c7.71,0,13,2.87,14.79,8,.63,1.88.81,3.32.81,8.25L375,81.62v.81c0,4.93.81,6.81,4.3,9.41l-6.36,7.35a12.89,12.89,0,0,1-6.46-5.56,19.85,19.85,0,0,1-2.77,2.42,15.85,15.85,0,0,1-9.24,2.51c-10.21,0-15.77-5.2-15.77-14.34,0-10.76,7.44-15.77,22-15.77.89,0,1.43,0,2.69.09V66.65c0-5.11-1-6.81-5.38-6.81-3.86,0-8.34,1.88-13.27,5.2Zm23.58,20.34h-.54c-8.34,0-11.2,1.53-11.2,7,0,3.59,2.24,6,5.28,6A8.72,8.72,0,0,0,363,86.64Z"/><path class="cls-3" d="M386.52,52l11.84-2.24V79.29c0,4.12.26,6.28,1,7.53A4.83,4.83,0,0,0,403.55,89c3,0,6.55-2.15,7.44-4.39V52.31l11.48-2.42V84.94a13.34,13.34,0,0,0,2.77,8.33l-8.51,4.84a10.55,10.55,0,0,1-3.59-4.48C410.19,96.5,405.88,98,401,98c-6.45,0-12-3-13.53-7.44-.72-2.06-1-4.48-1-9.14Z"/><path class="cls-3" d="M471.77,32.41V80.1c0,11.29.89,15,1.7,16.76H462.71a8,8,0,0,1-.71-2.69A15.41,15.41,0,0,1,451.42,98c-11.65,0-19-9-19-23.3s8-24.2,19.63-24.2a12.37,12.37,0,0,1,8.15,2.6,55.59,55.59,0,0,1-.36-6.81V30.53ZM460,63.07c-2.24-2-4.39-3-6.54-3-5.38,0-7.71,4.48-7.71,14.7,0,9.86,2.06,13.09,8.34,13.09a8.58,8.58,0,0,0,5.91-3Z"/><path class="cls-3" d="M501.44,50.07c6.54,0,11.65,2.24,15.59,6.9,3.68,4.31,5.29,9.32,5.29,16.76,0,7.89-1.79,13.27-5.74,17.75-3.49,3.94-8.06,6.36-15.14,6.36-12.46,0-20.62-9.32-20.62-23.75S489.07,50.07,501.44,50.07Zm.17,8.87a6.49,6.49,0,0,0-6.18,4.67,32.59,32.59,0,0,0-1.25,10.21c0,5.29.53,9.24,1.52,11.57a6.62,6.62,0,0,0,6.09,3.76c5.2,0,7.44-4.66,7.44-15.51,0-6.18-.8-10.21-2.42-12.28A6.42,6.42,0,0,0,501.61,58.94Z"/><path class="cls-3" d="M536.13,30.89a7.33,7.33,0,0,1,7.26,7.44,7.4,7.4,0,1,1-7.26-7.44Zm-6.19,20.88,12-1.88v47h-12Z"/><path class="cls-3" d="M551.45,52.85l10.67-3.05a11.74,11.74,0,0,1,1.7,5.74,42,42,0,0,1,5.29-3.41,19,19,0,0,1,8.25-2c5.11,0,9.59,2.69,11,6.63a18.51,18.51,0,0,1,.9,6.55V96.86H577.45V67c0-5.2-.9-6.72-4-6.72-2.42,0-5.55,1.61-8.33,4.12V96.86h-12V63.61A33,33,0,0,0,551.45,52.85Z"/><path class="cls-3" d="M631.41,34.57h12.82V86.46h22.31l-2.24,10.4H631.41Z"/><path class="cls-3" d="M671.84,56.44a34,34,0,0,1,7.43-3.77A31.15,31.15,0,0,1,691.82,50c7.71,0,13,2.87,14.79,8,.63,1.88.81,3.32.81,8.25l-.27,15.41v.81c0,4.93.81,6.81,4.3,9.41l-6.36,7.35a12.89,12.89,0,0,1-6.46-5.56,19.85,19.85,0,0,1-2.77,2.42,15.82,15.82,0,0,1-9.24,2.51c-10.21,0-15.77-5.2-15.77-14.34,0-10.76,7.44-15.77,22-15.77.89,0,1.43,0,2.69.09V66.65c0-5.11-1-6.81-5.38-6.81-3.85,0-8.34,1.88-13.27,5.2Zm23.57,20.34h-.54c-8.34,0-11.2,1.53-11.2,7,0,3.59,2.24,6,5.29,6a8.7,8.7,0,0,0,6.27-3.14Z"/><path class="cls-3" d="M730.1,30.44a62,62,0,0,1,.45,8.16V49.44a24.38,24.38,0,0,1-.27,4c2.33-2.51,5.55-3.68,9.77-3.68,11.2,0,18.19,9,18.19,23.31,0,9.32-3,16.49-8.51,21.06a15.2,15.2,0,0,1-10,3.58c-4.48,0-7.62-1.34-10.22-4.21a7.88,7.88,0,0,1-1.25,3.32H717.46c.9-2.06,1.17-3.41,1.17-9.77V44.6c0-5.64-.18-8.69-.81-11.29Zm.63,33V84.58c1.61,1.43,3.49,3,6.72,3,3,0,4.84-1.17,5.82-3.59s1.35-4.93,1.35-10.57a32.78,32.78,0,0,0-.54-7.8c-.9-3.95-3.41-5.83-6.54-5.83S732.25,61.72,730.73,63.43Z"/><path class="cls-3" d="M241.27,117.81h7V140.2c0,2.55.09,3.13.58,4.06.79,1.52,2.4,2.36,4.66,2.36,3,0,4.9-1.47,5.19-4a21.27,21.27,0,0,0,.1-3v-21.8h7v22.93c0,3.23,0,3.87-.54,5.34-.88,2.69-4.22,6.42-11.56,6.42-5.2,0-9-1.57-10.93-4.56-1.13-1.77-1.47-3.14-1.47-6.42Z"/><path class="cls-3" d="M269,127.8l5.83-1.66a6.35,6.35,0,0,1,.93,3.13,22.94,22.94,0,0,1,2.89-1.86,10.32,10.32,0,0,1,4.51-1.08c2.79,0,5.24,1.47,6,3.63a10.18,10.18,0,0,1,.49,3.57v18.33h-6.47V135.54c0-2.84-.49-3.67-2.2-3.67a7.65,7.65,0,0,0-4.56,2.25v17.74h-6.57V133.68A18.08,18.08,0,0,0,269,127.8Z"/><path class="cls-3" d="M299,115.8a4,4,0,0,1,4,4.06,4,4,0,1,1-8.09,0A4.1,4.1,0,0,1,299,115.8Zm-3.38,11.41,6.56-1v25.68h-6.56Z"/><path class="cls-3" d="M304.92,127.16l6.71-.83,3.63,11.32c.54,1.67,1.27,4.41,1.61,6a43.29,43.29,0,0,1,1.52-6.37l3.38-10.54h6.86l-9.16,25.09H314Z"/><path class="cls-3" d="M348.43,145.19l2.55,3.92a14.36,14.36,0,0,1-9.46,3.48c-7.2,0-11.86-5.09-11.86-13,0-4.51.93-7.5,3.14-10a9.88,9.88,0,0,1,7.89-3.38,10.25,10.25,0,0,1,7.25,2.65c2.3,2.35,3.33,5.73,3.33,11v1.52h-14.5v.2c0,3.87,1.91,6.07,5.29,6.07A9.8,9.8,0,0,0,348.43,145.19Zm-11.56-8.57h7.59v-.29a6.54,6.54,0,0,0-.78-3.78,3.18,3.18,0,0,0-2.89-1.47c-2.5,0-3.92,2-3.92,5.44Z"/><path class="cls-3" d="M355.19,127.75l5.88-1.57a8.08,8.08,0,0,1,1,3.58,11.25,11.25,0,0,1,3.73-3.18,5.68,5.68,0,0,1,2.15-.4,5.08,5.08,0,0,1,2.45.54l-1.81,5.78a3.74,3.74,0,0,0-1.91-.48,5.22,5.22,0,0,0-4,2.1v17.74h-6.57V135.1A22.72,22.72,0,0,0,355.19,127.75Z"/><path class="cls-3" d="M389.69,128.44l-2.16,4.41a13.18,13.18,0,0,0-6.17-1.81c-1.91,0-3.19,1-3.19,2.44,0,1.28.84,2,3.14,2.55l3,.79c3.08.78,4.11,1.71,5,2.84a6.64,6.64,0,0,1,1.38,4.26c0,5.19-4.32,8.72-10.73,8.72a22.34,22.34,0,0,1-10.15-2.89l2.36-4.8c2,1.22,5.48,2.84,8.32,2.84a3.07,3.07,0,0,0,3.34-2.84c0-1.72-1.23-2.6-3.87-3.09l-2.94-.54a8.86,8.86,0,0,1-4.61-2.54,7.62,7.62,0,0,1-1.42-4.51c0-4.9,3.87-8.18,9.7-8.18A18.84,18.84,0,0,1,389.69,128.44Z"/><path class="cls-3" d="M398.31,115.8a4,4,0,0,1,4,4.06,4,4,0,1,1-4-4.06Zm-3.38,11.41,6.57-1v25.68h-6.57Z"/><path class="cls-3" d="M420.07,126.72l-1.67,4.36h-4.21v12.79c0,3.19.59,4,2.84,4a8.65,8.65,0,0,0,2.35-.49l.83,3.92a13.83,13.83,0,0,1-5.34,1.13c-3.33,0-6-1.47-6.76-3.68a9.25,9.25,0,0,1-.44-3.87V131.08h-2.5v-4.26h2.5a43.41,43.41,0,0,1,.25-6l6.66-1.66a72.52,72.52,0,0,0-.39,7.54Z"/><path class="cls-3" d="M419.33,127.21l6.72-.78,4.36,14.6c.44,1.52,1.32,5.19,1.32,5.19s.49-2.79.78-4c.39-1.57.49-1.82,1-3.48l3.78-11.91h6.9l-9.11,25.43c-1.71,4.85-3,7-4.8,8.28a13.14,13.14,0,0,1-6.08,2.3l-2.25-4.31a14.86,14.86,0,0,0,4.07-1.66,7.72,7.72,0,0,0,1.86-2.06,15,15,0,0,0,1.42-2.94h-1.67c-.39-1.18-.58-1.67-1-2.94-.49-1.52-1.27-4-1.32-4.12Z"/><path class="cls-3" d="M472.69,126.28a10.52,10.52,0,0,1,8.53,3.78c2,2.35,2.89,5.09,2.89,9.16,0,4.31-1,7.25-3.14,9.7a10.26,10.26,0,0,1-8.28,3.48c-6.81,0-11.27-5.1-11.27-13S465.93,126.28,472.69,126.28Zm.1,4.85a3.54,3.54,0,0,0-3.38,2.55,17.9,17.9,0,0,0-.69,5.59,17.69,17.69,0,0,0,.84,6.32,3.61,3.61,0,0,0,3.33,2c2.84,0,4.07-2.54,4.07-8.47,0-3.38-.45-5.59-1.33-6.71A3.48,3.48,0,0,0,472.79,131.13Z"/><path class="cls-3" d="M500.62,121.19a5.49,5.49,0,0,0-2.69-.84,2.58,2.58,0,0,0-2.75,2.85v3.52h6.37l-1.66,4.61h-4.66v20.53h-6.42V131.33h-2.25v-4.61H489a24.44,24.44,0,0,1-.24-3.38c0-5,2.94-7.79,8.08-7.79a11.3,11.3,0,0,1,5.93,1.57Z"/><path class="cls-3" d="M541.19,119.77l-3.08,4.65a9,9,0,0,0-5.44-1.91,7,7,0,0,0-5.78,2.94c-1.33,2-1.92,4.8-1.92,8.77,0,4.65.4,7.25,1.43,9.11a7.06,7.06,0,0,0,6.56,3.82,8.82,8.82,0,0,0,5.15-1.66l.68-.54,3.14,4.31a13.91,13.91,0,0,1-9.46,3.19c-4.7,0-8.33-1.52-11.12-4.71s-4.12-7.2-4.12-12.2A21.78,21.78,0,0,1,519.54,125a14.61,14.61,0,0,1,13-7.89C536,117.07,539.33,118.15,541.19,119.77Z"/><path class="cls-3" d="M554.57,126.28a10.49,10.49,0,0,1,8.52,3.78c2,2.35,2.9,5.09,2.9,9.16,0,4.31-1,7.25-3.14,9.7a10.26,10.26,0,0,1-8.28,3.48c-6.81,0-11.27-5.1-11.27-13S547.81,126.28,554.57,126.28Zm.1,4.85a3.54,3.54,0,0,0-3.38,2.55,17.9,17.9,0,0,0-.69,5.59,17.74,17.74,0,0,0,.83,6.32,3.63,3.63,0,0,0,3.34,2c2.84,0,4.06-2.54,4.06-8.47,0-3.38-.44-5.59-1.32-6.71A3.51,3.51,0,0,0,554.67,131.13Z"/><path class="cls-3" d="M569.66,127.8l5.83-1.66a6.35,6.35,0,0,1,.93,3.13,22.94,22.94,0,0,1,2.89-1.86,10.32,10.32,0,0,1,4.51-1.08c2.79,0,5.24,1.47,6,3.63a10.18,10.18,0,0,1,.49,3.57v18.33h-6.47V135.54c0-2.84-.49-3.67-2.2-3.67a7.65,7.65,0,0,0-4.56,2.25v17.74h-6.57V133.68A18.08,18.08,0,0,0,569.66,127.8Z"/><path class="cls-3" d="M595.78,127.8l5.83-1.66a6.35,6.35,0,0,1,.93,3.13,22.24,22.24,0,0,1,2.89-1.86,10.29,10.29,0,0,1,4.51-1.08c2.79,0,5.24,1.47,6,3.63a9.92,9.92,0,0,1,.5,3.57v18.33H610V135.54c0-2.84-.49-3.67-2.21-3.67a7.63,7.63,0,0,0-4.55,2.25v17.74h-6.57V133.68A18.08,18.08,0,0,0,595.78,127.8Z"/><path class="cls-3" d="M639.73,145.19l2.55,3.92a14.36,14.36,0,0,1-9.46,3.48c-7.2,0-11.86-5.09-11.86-13,0-4.51.93-7.5,3.14-10a9.88,9.88,0,0,1,7.89-3.38,10.25,10.25,0,0,1,7.25,2.65c2.3,2.35,3.33,5.73,3.33,11v1.52h-14.5v.2c0,3.87,1.91,6.07,5.29,6.07A9.8,9.8,0,0,0,639.73,145.19Zm-11.56-8.57h7.59v-.29a6.54,6.54,0,0,0-.78-3.78,3.18,3.18,0,0,0-2.89-1.47c-2.5,0-3.92,2-3.92,5.44Z"/><path class="cls-3" d="M664.47,128.93l-3.18,4.31a6.33,6.33,0,0,0-4-2c-2.94,0-4.26,2.55-4.26,8.43,0,3.28.39,5.24,1.27,6.32a3.8,3.8,0,0,0,2.94,1.42,6.72,6.72,0,0,0,4.51-2.06l.39-.34,3,4a10.41,10.41,0,0,1-2.3,1.86,11.76,11.76,0,0,1-6.13,1.57c-6.91,0-10.92-4.81-10.92-12.94,0-5.78,2.2-9.6,5.14-11.61a11.88,11.88,0,0,1,6.22-1.86,11.62,11.62,0,0,1,4.85,1.12A10.82,10.82,0,0,1,664.47,128.93Z"/><path class="cls-3" d="M680.79,126.72l-1.66,4.36h-4.22v12.79c0,3.19.59,4,2.84,4a8.77,8.77,0,0,0,2.36-.49l.83,3.92a13.86,13.86,0,0,1-5.34,1.13c-3.33,0-6-1.47-6.76-3.68-.4-1.08-.45-1.57-.45-3.87V131.08H665.9v-4.26h2.49a43.41,43.41,0,0,1,.25-6l6.66-1.66a75.39,75.39,0,0,0-.39,7.54Z"/><path class="cls-3" d="M686.18,115.8a4,4,0,0,1,4,4.06,4,4,0,1,1-4-4.06Zm-3.38,11.41,6.57-1v25.68H682.8Z"/><path class="cls-3" d="M712.64,128.93l-3.18,4.31a6.38,6.38,0,0,0-4-2c-2.94,0-4.27,2.55-4.27,8.43,0,3.28.4,5.24,1.28,6.32a3.78,3.78,0,0,0,2.94,1.42,6.72,6.72,0,0,0,4.51-2.06l.39-.34,3,4a10.22,10.22,0,0,1-2.31,1.86,11.7,11.7,0,0,1-6.12,1.57c-6.91,0-10.93-4.81-10.93-12.94,0-5.78,2.21-9.6,5.15-11.61a11.82,11.82,0,0,1,6.22-1.86,11.62,11.62,0,0,1,4.85,1.12A11.28,11.28,0,0,1,712.64,128.93Z"/><path class="cls-3" d="M716.51,127.36l6.47-1.22v16.12c0,2.25.15,3.43.54,4.11a2.62,2.62,0,0,0,2.3,1.18,4.87,4.87,0,0,0,4.07-2.4V127.51l6.27-1.33v19.16a7.3,7.3,0,0,0,1.52,4.56L733,152.54a5.71,5.71,0,0,1-2-2.45,9.35,9.35,0,0,1-6.61,2.41c-3.53,0-6.57-1.67-7.4-4.07a15.06,15.06,0,0,1-.54-5Z"/><path class="cls-3" d="M755.27,126.72l-1.67,4.36h-4.21v12.79c0,3.19.59,4,2.84,4a8.65,8.65,0,0,0,2.35-.49l.84,3.92a13.86,13.86,0,0,1-5.34,1.13c-3.34,0-6-1.47-6.77-3.68a9.25,9.25,0,0,1-.44-3.87V131.08h-2.5v-4.26h2.5a43.41,43.41,0,0,1,.25-6l6.66-1.66a75.39,75.39,0,0,0-.39,7.54Z"/><path class="cls-4" d="M490,221.65c136.61,47.72,291,186.4,254.66,307.17-39,129.6-293.79,224.95-473.76,166.35C105.64,641.36-26.6,448,26,326.22,80.29,200.4,326.18,164.42,490,221.65Z"/></g><g id="Layer_1" data-name="Layer 1"><path class="cls-5" d="M314,641.3c-32.44,0-76.65-14.4-94.7-41.09-10.37-15.34-13.52-34.93-9.12-56.64,8.64-42.58,44-85.55,72.91-104.37,8.18-5.32,27.34-17.79,45.87-17.79a35,35,0,0,1,17.27,4.28c1.85,1,4.54,2.71,8.25,5,8.56,5.38,22.9,14.37,33.07,18.72a45.87,45.87,0,0,0,5.43,2,27.39,27.39,0,0,1,7.18,3.15c16.67,10.22,23.86,31.88,23.48,47.68-.39,16.63-8.89,25.62-17.89,35.14A144.45,144.45,0,0,0,389,557.78c-10.55,15.9-12.83,27.58-14.84,37.88-2.12,10.83-4.31,22-15.46,32C348.7,636.59,333.25,641.3,314,641.3Z"/><path class="cls-6" d="M291.26,449.94c9.45-6.16,34.85-22.73,51.6-13.37,6,3.34,27.89,18.25,43.29,24.84,7.22,3.1,7.74,2.27,11.25,4.43,12,7.38,18.37,24.74,18.06,37.88-.47,19.95-16.16,24.34-33.27,50.17-23.35,35.27-11.63,53.58-28.84,69C328,645.68,252,630.08,229.72,597.14,199.64,552.56,249.63,477.1,291.26,449.94Z"/><circle class="cls-7" cx="319.5" cy="572.65" r="42.01"/><circle class="cls-8" cx="318.43" cy="573.72" r="36.69"/><circle class="cls-9" cx="319.5" cy="572.65" r="42.01"/><path class="cls-10" d="M1405.13,207.87s-24.46-20.68-54.31-20.68-69.61,35.43-111.16,35.43-51.25-14.75-51.25-14.75"/><path class="cls-11" d="M1233.93,404.85s116.65,2.59,119.24,0,1.17-42.27,0-44.31-7.2-8.21-7.2-14a17.18,17.18,0,0,1,34.35,0c0,5.76-5.07,12-7.2,14s-2.87,39.95,0,42.95,60.45,1.26,62.16.13,8.2-7.2,14-7.2a17.18,17.18,0,0,1,0,34.35c-5.76,0-11.67-6.11-14-7.2s-91.41-.91-92.85,0-.56,23.78,0,25.85,7.2,8.2,7.2,14a17.18,17.18,0,1,1-34.35,0c0-5.76,6.68-12,7.2-14s1.48-23.76,0-25.85-62.49,0-62.49,0"/><path class="cls-5" d="M215.3,368.48c-11.55,0-33.62-13-50.18-24a8.84,8.84,0,0,0-4-.9,10.34,10.34,0,0,0-1.56.12c-3.06.46-3.13.5-4.93,1.56a70.44,70.44,0,0,1-7.58,3.95c-5,2.23-33.27,13.59-47.7,13.6a19.3,19.3,0,0,1-11-2.93c-10.13-6.84-5.66-18.1-4.05-21.38a68.52,68.52,0,0,1,7.48-11.29c.4-.51.75-1,1-1.33a18.72,18.72,0,0,0,3-8.38c-1.4-.86-3.54-2-5.48-3.09-10.15-5.56-20.64-11.3-17.53-21.28,3-9.66,15.26-9.66,19.87-9.66,16.21,0,33.1,4.92,45.43,8.52a120.66,120.66,0,0,0,12.53,3.27,56.35,56.35,0,0,0,7.23.43,175.19,175.19,0,0,0,19.31-1.53l2-.22a11,11,0,0,1-.24-2.09l0-.26c-1.28-11.61,6.05-19.46,21.8-23.32A78,78,0,0,1,219.26,266c13.05,0,24.15,3.25,30.44,8.91.93.83,1.75,1.63,2.53,2.39,2.59,2.51,2.59,2.51,5.63,2.51,1.11,0,2.41-.06,3.88-.19,3-.28,7.33-.41,13.12-.41,20.14,0,58.06,1.83,65.44,3.16,4.72.85,20.24,3.81,35.1,7.27,31,7.21,36.59,11.22,39.69,14.71a18.91,18.91,0,0,1,4.46,17.45c-2.23,9.11-10.86,17.45-24.31,23.5-17.06,7.67-64.36,16.26-102.14,16.26-4.68,0-9.16-.13-13.39-.39-4.19,3.44-11,6.81-21.72,6.81a59.34,59.34,0,0,1-10.39-1,16.06,16.06,0,0,1-10.72-6.58C230.64,364.63,222.89,368.48,215.3,368.48Z"/><path class="cls-12" d="M172,338.19a20,20,0,0,0-14.43-2.89c-8.66,1.44-7.22,2.89-15.88,7.21s-40.4,17.32-46.17,13,4.32-17.31,7.21-21.64,8.66-18.76,1.44-24.54S71,292,92.64,292s46.18,11.54,56.28,13,20.2,0,31.75-1.44,26-4.33,26-4.33-15.87-7.21-15.87-10.1-2.89-10.1,13-14.43,31.74-1.44,37.52,4.33,7.21,10.1,21.64,8.66,67.83,1.44,75,2.88,62.05,13,67.83,20.21,1.44,18.76-15.88,27.42-76.48,20.2-115.44,15.87c0,0-4.52,11.22-24.54,7.21-7.21-1.44-1.44-13-1.44-13l-8.66-1.45s-14.43,15.88-24.53,15.88S172,338.19,172,338.19Z"/><path class="cls-13" d="M336.69,317.23s-81.05-3.57-113.23-3.57-94.15,3.57-94.15,3.57"/><path class="cls-13" d="M272.92,323.79S262.79,322,230.61,322s-94.15,3.58-94.15,3.58"/><path class="cls-13" d="M273.52,333.92c-32.18,0-95.94-.6-95.94-.6"/><circle class="cls-14" cx="366.48" cy="314.85" r="10.13"/><path class="cls-13" d="M327.73,338.63s18,3.11,41.73.11"/><circle class="cls-15" cx="365.59" cy="314.55" r="12.22"/><path class="cls-11" d="M918,289.09A61.33,61.33,0,0,0,944.3,274c7.29-7.28,7.32-11.41,12.75-15.13,12.78-8.78,34.43-.86,46.19,6.37,22.07,13.56,41.52,44.48,31.86,65.31-7.55,16.25-32.38,25.38-49.38,27.07-10,1-17-.59-24.69,4.78-7.94,5.54-14.23,16.82-11.95,26.28,4.17,17.33,35.33,21.58,53.36,19.92,8.88-.82,22.09-2,28.67-11.95,6.24-9.39,3-21.22,0-31.86-1.41-5.09-5.43-18.87-17.52-29.47-6.88-6-9-4.54-15.13-10.35-1.58-1.49-13.49-13-14.34-27.87-1.22-21.59,21.67-37.14,32.66-44.6,11.44-7.78,22.33-15.17,36.63-13.54,19.95,2.27,34.16,20.68,39,35.84,6.31,19.65-.84,40.85-1.59,43-2.61,7.45-6.3,13.64-7.17,24.69a60.6,60.6,0,0,0,1.59,19.12"/><path class="cls-5" d="M552.14,398c-2.72.69-43.51,11.74-58,50.11-15.1,40.1,8.15,84.54,38.64,105.07,47.66,32.09,125.93,14.43,143.71-31.4,14.38-37-15.12-81.29-42.87-102.65C625,412.45,592.8,387.68,552.14,398Z"/><path class="cls-16" d="M555.52,407.19c-2.43.61-38.74,10.45-51.6,44.61-13.43,35.68,7.26,75.24,34.4,93.51,42.42,28.57,112.09,12.85,127.92-27.94C679,484.39,652.78,445,628.08,426,620.35,420.05,591.71,398,555.52,407.19Z"/><circle class="cls-17" cx="588.61" cy="505.98" r="29.65"/><circle class="cls-18" cx="587.86" cy="506.73" r="25.9"/><circle class="cls-19" cx="588.61" cy="505.98" r="29.65" transform="translate(-5.12 1005.94) rotate(-80.78)"/></g></svg>