<svg id="Layer_2" data-name="Layer 2" xmlns="http://www.w3.org/2000/svg" viewBox="0 0 192 192"><defs><style>.cls-1{fill:#edf4f4;}.cls-2{fill:#06c;}.cls-2,.cls-4{stroke:#055bd6;stroke-width:16.59px;}.cls-3,.cls-4{fill:#055bd6;}.cls-5{fill:#41b741;}</style></defs><title>icon</title><rect class="cls-1" width="192" height="192" rx="20" ry="20"/><line class="cls-2" x1="108.46" y1="183.31" x2="108.46" y2="85.47"/><path class="cls-3" d="M29.54,108.76A21.19,21.19,0,1,1,50.73,87.57,21.22,21.22,0,0,1,29.54,108.76Z"/><path class="cls-3" d="M29.54,72.23A15.34,15.34,0,1,1,14.21,87.57,15.35,15.35,0,0,1,29.54,72.23m0-11.71a27,27,0,1,0,27.05,27,27,27,0,0,0-27.05-27Z"/><line class="cls-4" x1="108.46" y1="85.47" x2="29.54" y2="87.57"/><path class="cls-3" d="M164.61,41a16.15,16.15,0,1,1,16.15-16.15A16.17,16.17,0,0,1,164.61,41Z"/><path class="cls-3" d="M164.61,14.56a10.3,10.3,0,1,1-10.3,10.29,10.3,10.3,0,0,1,10.3-10.29m0-11.72a22,22,0,1,0,22,22,22,22,0,0,0-22-22Z"/><line class="cls-4" x1="164.61" y1="24.85" x2="108.46" y2="85.47"/><path class="cls-5" d="M108.46,117.22a33.5,33.5,0,0,1-4-.25,32.06,32.06,0,1,1,4,.25Z"/><path class="cls-5" d="M108.46,61A24.47,24.47,0,1,1,84,85.47,24.5,24.5,0,0,1,108.46,61m0-14.56a39,39,0,0,0-4.93,77.75,40,40,0,0,0,4.93.31,40.6,40.6,0,0,0,5.77-.42,39,39,0,0,0-5.77-77.64Z"/><line class="cls-2" x1="164.02" y1="179.28" x2="68.86" y2="179.28"/></svg>