<svg id="Layer_1" data-name="Layer 1" xmlns="http://www.w3.org/2000/svg" viewBox="0 0 242.94 126.89"><defs><style>.cls-1{fill:#b93b5e;}.cls-1,.cls-10,.cls-11,.cls-12,.cls-13,.cls-14,.cls-15,.cls-16,.cls-17,.cls-18,.cls-19,.cls-2,.cls-20,.cls-21,.cls-22,.cls-23,.cls-24,.cls-25,.cls-26,.cls-3,.cls-4,.cls-5,.cls-6,.cls-7,.cls-8,.cls-9{stroke:#231f20;}.cls-1,.cls-11,.cls-12,.cls-2,.cls-24{stroke-linecap:square;}.cls-1,.cls-11,.cls-12,.cls-2,.cls-24,.cls-3{stroke-linejoin:round;}.cls-1,.cls-11,.cls-16,.cls-18,.cls-20,.cls-3,.cls-5,.cls-6,.cls-7{stroke-width:0.65px;}.cls-2{fill:#882e4b;}.cls-10,.cls-12,.cls-14,.cls-17,.cls-19,.cls-2,.cls-21,.cls-8{stroke-width:0.32px;}.cls-15,.cls-26,.cls-3,.cls-6{fill:none;}.cls-15,.cls-3,.cls-5,.cls-6,.cls-7{stroke-linecap:round;}.cls-10,.cls-4{fill:#f0895d;}.cls-10,.cls-13,.cls-14,.cls-15,.cls-16,.cls-17,.cls-18,.cls-19,.cls-20,.cls-21,.cls-22,.cls-23,.cls-25,.cls-26,.cls-4,.cls-5,.cls-6,.cls-7,.cls-8,.cls-9{stroke-miterlimit:10;}.cls-13,.cls-4,.cls-9{stroke-width:0.5px;}.cls-5{fill:#fff;}.cls-7{fill:#667d91;}.cls-8{fill:#a64725;}.cls-9{fill:#f6b593;}.cls-11{fill:#dca7ad;}.cls-12{fill:#c36274;}.cls-13{fill:#d34c1e;}.cls-14{fill:#a43910;}.cls-15{stroke-width:0.67px;}.cls-16,.cls-25{fill:#ddd5dd;}.cls-17{fill:#d4a9cf;}.cls-18,.cls-21{fill:#6a3564;}.cls-19{fill:#977299;}.cls-20{fill:#827592;}.cls-22{fill:#939598;}.cls-22,.cls-23,.cls-24,.cls-25{stroke-width:0.48px;}.cls-23{fill:#fcdfce;}.cls-24{fill:#e7c7c9;}.cls-27{fill:#231f20;}</style></defs><title>nerual_differentiation</title><path class="cls-1" d="M169.31,60.57c-3.07-.1-6.46,2.89-6.74,8.08-1.48-2.67-6.57-4.41-10.32-1.84,1.95-3.08.62-7.12-3.58-9.92,3.43.36,7.59-2.35,6.74-8.08,3.58,4.89,8.85,2.58,10.32,1.84C165.54,54.72,163.91,57.53,169.31,60.57Z"/><ellipse class="cls-2" cx="159.19" cy="58.98" rx="3.24" ry="3.27"/><path class="cls-3" d="M155.41,48.81a40.59,40.59,0,0,1-1.81-5.73"/><path class="cls-3" d="M154.09,45a4.15,4.15,0,0,0-2.34-1.15"/><path class="cls-3" d="M148.67,56.89s-3.46-1.11-4.65-.57"/><path class="cls-3" d="M145.34,56.19a2.61,2.61,0,0,1-.7-1.36"/><path class="cls-3" d="M152.25,66.81s-2.23,2.64-1.85,4.78"/><path class="cls-3" d="M150.75,69.09a7.93,7.93,0,0,1-1.77.72"/><path class="cls-3" d="M162.57,68.65s1.12,4.12-.14,5.48"/><path class="cls-3" d="M163.08,72.23s.9.89,1.21.89"/><path class="cls-3" d="M169.31,60.57l4,.77a2.74,2.74,0,0,1,1.6,1.93"/><path class="cls-3" d="M173.27,61.34s1.91.25,2.5-.77"/><path class="cls-3" d="M165.73,50.65s1.75-3.4,2.82-3.35"/><path class="cls-3" d="M167,46.68c.19.43.53,1.16.13,1.71"/><ellipse class="cls-4" cx="216.1" cy="62.06" rx="4.11" ry="7.32"/><line class="cls-5" x1="216.1" y1="78.6" x2="216.1" y2="69.38"/><polyline class="cls-6" points="219.5 79.17 216.1 75.92 213.96 79.59"/><line class="cls-7" x1="216.1" y1="54.74" x2="216.1" y2="41.96"/><polyline class="cls-6" points="219.15 41.11 216.1 45.21 213.96 42.24"/><ellipse class="cls-8" cx="216.1" cy="62.06" rx="2" ry="2.02"/><ellipse class="cls-9" cx="238.59" cy="66.76" rx="4.11" ry="7.32"/><line class="cls-5" x1="238.59" y1="83.3" x2="238.59" y2="74.08"/><polyline class="cls-6" points="241.99 83.87 238.59 80.61 236.45 84.29"/><line class="cls-7" x1="238.59" y1="59.44" x2="238.59" y2="46.66"/><polyline class="cls-6" points="241.64 45.81 238.59 49.91 236.45 46.94"/><ellipse class="cls-10" cx="238.59" cy="66.76" rx="2" ry="2.02"/><path class="cls-11" d="M195.66,80.66c-3.07-.1-6.45,2.89-6.73,8.08-1.49-2.68-6.57-4.41-10.32-1.84,1.94-3.08.62-7.12-3.58-9.92,3.42.36,7.58-2.35,6.74-8.08,3.58,4.89,8.85,2.58,10.32,1.84C191.89,74.81,190.27,77.62,195.66,80.66Z"/><ellipse class="cls-12" cx="185.55" cy="79.07" rx="3.24" ry="3.27"/><path class="cls-3" d="M181.77,68.9A40.59,40.59,0,0,1,180,63.17"/><path class="cls-3" d="M180.45,65.12A4.15,4.15,0,0,0,178.11,64"/><path class="cls-3" d="M175,77s-3.46-1.11-4.66-.57"/><path class="cls-3" d="M171.69,76.28a2.63,2.63,0,0,1-.69-1.36"/><path class="cls-3" d="M178.61,86.9s-2.23,2.64-1.86,4.78"/><path class="cls-3" d="M177.11,89.18a7.93,7.93,0,0,1-1.77.72"/><path class="cls-3" d="M188.93,88.74s1.11,4.12-.14,5.48"/><path class="cls-3" d="M189.44,92.32s.89.89,1.21.89"/><path class="cls-3" d="M195.66,80.66l4,.77a2.74,2.74,0,0,1,1.6,1.93"/><path class="cls-3" d="M199.63,81.43s1.91.25,2.5-.77"/><path class="cls-3" d="M192.09,70.74s1.75-3.4,2.82-3.35"/><path class="cls-3" d="M193.38,66.77c.19.43.52,1.15.12,1.71"/><ellipse class="cls-13" cx="227.37" cy="76.68" rx="4.11" ry="7.32"/><line class="cls-5" x1="227.37" y1="93.22" x2="227.37" y2="84"/><polyline class="cls-6" points="230.78 93.79 227.37 90.54 225.23 94.21"/><line class="cls-7" x1="227.37" y1="69.36" x2="227.37" y2="56.58"/><polyline class="cls-6" points="230.43 55.73 227.37 59.84 225.23 56.87"/><ellipse class="cls-14" cx="227.37" cy="76.68" rx="2" ry="2.02"/><line class="cls-15" x1="179.66" y1="46.35" x2="175.01" y2="50.89"/><polyline class="cls-15" points="174.72 48.49 176.49 49.38 176.66 51.6"/><line class="cls-15" x1="195.68" y1="47.12" x2="201.34" y2="51.3"/><polyline class="cls-15" points="200.17 52.08 199.88 50.13 202.03 49.61"/><line class="cls-15" x1="187.55" y1="32.68" x2="187.55" y2="28.02"/><path class="cls-16" d="M187.58,32.14c-1.89,3.07-6.89,9.44-8.78,15,2.51.93,11.07,1.38,17.29.34C194.12,41.6,189.74,34.06,187.58,32.14Z"/><ellipse class="cls-17" cx="187.82" cy="41.57" rx="2.85" ry="2.87"/><polyline class="cls-15" points="189.03 28.41 187.66 29.82 185.96 28.39"/><line class="cls-15" x1="201.84" y1="28.02" x2="197.19" y2="32.57"/><polyline class="cls-15" points="196.9 30.17 198.67 31.05 198.84 33.27"/><line class="cls-15" x1="217.87" y1="28.79" x2="223.52" y2="32.97"/><polyline class="cls-15" points="222.36 33.75 222.06 31.8 224.21 31.29"/><line class="cls-15" x1="209.74" y1="14.35" x2="209.74" y2="9.7"/><path class="cls-18" d="M209.76,13.81c-1.89,3.07-6.89,9.45-8.77,15,2.51.93,11.06,1.38,17.28.35C216.3,23.28,211.92,15.74,209.76,13.81Z"/><ellipse class="cls-19" cx="210" cy="23.25" rx="2.85" ry="2.87"/><polyline class="cls-15" points="211.21 10.09 209.84 11.49 208.14 10.06"/><line class="cls-15" x1="176" y1="18.33" x2="171.35" y2="22.87"/><polyline class="cls-15" points="171.06 20.47 172.83 21.36 173 23.57"/><line class="cls-15" x1="192.02" y1="19.09" x2="197.68" y2="23.27"/><polyline class="cls-15" points="196.51 24.05 196.22 22.1 198.36 21.59"/><line class="cls-15" x1="183.89" y1="4.65" x2="183.89"/><path class="cls-20" d="M183.91,4.11c-1.88,3.07-6.88,9.45-8.77,15,2.51.93,11.07,1.39,17.29.35C190.46,13.58,186.08,6,183.91,4.11Z"/><ellipse class="cls-21" cx="184.16" cy="13.55" rx="2.85" ry="2.87"/><polyline class="cls-15" points="185.37 0.39 183.99 1.79 182.3 0.37"/><ellipse class="cls-22" cx="21.38" cy="60.57" rx="6.06" ry="6.11"/><ellipse class="cls-23" cx="114.65" cy="86.9" rx="6.06" ry="6.11"/><ellipse class="cls-23" cx="98.82" cy="28.02" rx="6.06" ry="6.11"/><ellipse class="cls-24" cx="77.07" cy="43.43" rx="6.06" ry="6.11"/><ellipse class="cls-25" cx="89.19" cy="61.22" rx="6.06" ry="6.11"/><ellipse class="cls-25" cx="75.08" cy="78.69" rx="6.06" ry="6.11"/><ellipse class="cls-24" cx="116.92" cy="55.31" rx="6.06" ry="6.11"/><line class="cls-26" x1="40.25" y1="64.38" x2="52.92" y2="64.38"/><polygon class="cls-27" points="52.19 66.88 56.51 64.39 52.19 61.89 52.19 66.88"/><line class="cls-26" x1="125.16" y1="64.38" x2="137.83" y2="64.38"/><polygon class="cls-27" points="137.1 66.88 141.41 64.39 137.1 61.89 137.1 66.88"/><path class="cls-27" d="M87,104.88h1.86l1.6,3.34a16.38,16.38,0,0,1,.91,2.36c-.06-.65-.12-1.71-.13-2.29l0-3.41h1.6v8.34H91L89.58,110c-.46-1-1-2.22-1.13-2.74.06.69.07,1.67.09,2.37l0,3.56H87Z"/><path class="cls-27" d="M98.17,111.59l.62,1a3.53,3.53,0,0,1-2.31.85,2.86,2.86,0,0,1-2.9-3.18,3.35,3.35,0,0,1,.76-2.43,2.41,2.41,0,0,1,1.93-.83,2.52,2.52,0,0,1,1.78.65,3.6,3.6,0,0,1,.82,2.68v.37H95.32v0c0,1,.46,1.49,1.29,1.49A2.39,2.39,0,0,0,98.17,111.59Zm-2.83-2.1H97.2v-.07a1.64,1.64,0,0,0-.19-.93.79.79,0,0,0-.71-.36c-.61,0-1,.48-1,1.34Z"/><path class="cls-27" d="M100,107.22l1.59-.3v4a2.2,2.2,0,0,0,.13,1,.65.65,0,0,0,.56.28,1.19,1.19,0,0,0,1-.58v-4.32l1.53-.32v4.68a1.8,1.8,0,0,0,.37,1.12l-1.14.65a1.51,1.51,0,0,1-.48-.6,2.3,2.3,0,0,1-1.62.59,1.86,1.86,0,0,1-1.81-1,3.86,3.86,0,0,1-.13-1.22Z"/><path class="cls-27" d="M106.27,107.32l1.44-.38a1.81,1.81,0,0,1,.25.87,2.8,2.8,0,0,1,.92-.78,1.38,1.38,0,0,1,.52-.09,1.21,1.21,0,0,1,.6.13l-.44,1.41a1,1,0,0,0-.47-.12,1.27,1.27,0,0,0-1,.52v4.34H106.5v-4.1A5.61,5.61,0,0,0,106.27,107.32Z"/><path class="cls-27" d="M110.24,107.81a4.45,4.45,0,0,1,1-.5,4,4,0,0,1,1.68-.36,1.89,1.89,0,0,1,2,1.06,3.27,3.27,0,0,1,.11,1.11l0,2.06v.11a1.27,1.27,0,0,0,.57,1.26l-.85,1a1.71,1.71,0,0,1-.86-.74,2.83,2.83,0,0,1-.37.32,2.09,2.09,0,0,1-1.24.34c-1.36,0-2.11-.7-2.11-1.92,0-1.44,1-2.11,3-2.11h.36v-.25c0-.69-.13-.91-.72-.91a3.41,3.41,0,0,0-1.77.69Zm3.16,2.72h-.07c-1.12,0-1.5.21-1.5.94a.73.73,0,0,0,.71.8,1.18,1.18,0,0,0,.84-.42Z"/><path class="cls-27" d="M118,104.34a9.4,9.4,0,0,1,.08,1.6v4.78c0,1.06,0,1.2.11,1.37a.37.37,0,0,0,.33.17.56.56,0,0,0,.17,0l.28,1a2.88,2.88,0,0,1-1,.16,1.45,1.45,0,0,1-1.43-.84,3.34,3.34,0,0,1-.14-1.38v-4.58a15.82,15.82,0,0,0-.08-1.84Z"/><path class="cls-27" d="M74.09,118.24l1.43-.25a2.56,2.56,0,0,1,.11.58,2.05,2.05,0,0,1,1.51-.58,2.19,2.19,0,0,1,1.21.37A2.92,2.92,0,0,1,79.49,121a3.36,3.36,0,0,1-.85,2.68,2.19,2.19,0,0,1-1.64.69,2.65,2.65,0,0,1-1.29-.32,3.71,3.71,0,0,1,0,.5v1.92l-1.55.41v-7.1A7.35,7.35,0,0,0,74.09,118.24Zm1.66,4.51a1.51,1.51,0,0,0,.89.36c.79,0,1.1-.54,1.1-1.94a4.3,4.3,0,0,0-.16-1.36.74.74,0,0,0-.76-.51,1.48,1.48,0,0,0-1.07.46Z"/><path class="cls-27" d="M80.6,118.35,82,118a1.93,1.93,0,0,1,.25.87,2.9,2.9,0,0,1,.91-.78,1.44,1.44,0,0,1,.53-.09,1.21,1.21,0,0,1,.6.13l-.45,1.41a.9.9,0,0,0-.46-.12,1.29,1.29,0,0,0-1,.52v4.34h-1.6v-4.1A5.61,5.61,0,0,0,80.6,118.35Z"/><path class="cls-27" d="M87.08,118a2.57,2.57,0,0,1,2.08.92,3.17,3.17,0,0,1,.71,2.25,3.32,3.32,0,0,1-.77,2.37,2.47,2.47,0,0,1-2,.85c-1.67,0-2.76-1.25-2.76-3.18S85.42,118,87.08,118Zm0,1.19a.88.88,0,0,0-.83.62,4.69,4.69,0,0,0-.16,1.37,4.38,4.38,0,0,0,.2,1.54.88.88,0,0,0,.82.51c.69,0,1-.63,1-2.08a2.93,2.93,0,0,0-.32-1.64A.88.88,0,0,0,87.1,119.18Z"/><path class="cls-27" d="M96.42,117.76l.68,1a1.56,1.56,0,0,1-1.13.46,3.66,3.66,0,0,1-.42,0,1.49,1.49,0,0,1,.36,1c0,1.05-1,1.82-2.27,1.82H93.4c-.41.19-.63.34-.63.5s.09.15.26.15h.86a2.47,2.47,0,0,1,1.86.55,1.69,1.69,0,0,1,.53,1.31,1.77,1.77,0,0,1-.49,1.27,3.33,3.33,0,0,1-2.42.79,3.41,3.41,0,0,1-2.33-.66,1.42,1.42,0,0,1-.5-1.09,1.21,1.21,0,0,1,.14-.62h1.49a.81.81,0,0,0-.08.39c0,.49.41.76,1.16.76a1.81,1.81,0,0,0,1-.21.77.77,0,0,0,.39-.62.62.62,0,0,0-.29-.55,1.9,1.9,0,0,0-.84-.18h-.68a4.88,4.88,0,0,1-1.48-.2.78.78,0,0,1-.35-.3,1.12,1.12,0,0,1-.12-.5.8.8,0,0,1,.2-.56,1.86,1.86,0,0,1,.93-.47,1.59,1.59,0,0,1-1.32-1.7c0-1.26,1-2.08,2.59-2.08a4,4,0,0,1,1.11.16,2.7,2.7,0,0,0,.75.13A1.89,1.89,0,0,0,96.42,117.76Zm-3.14,1.42a.85.85,0,0,0-1,.91c0,.62.39.87,1,.87s1-.31,1-.87A.86.86,0,0,0,93.28,119.18Z"/><path class="cls-27" d="M101.76,122.62l.63,1a3.56,3.56,0,0,1-2.32.85,2.86,2.86,0,0,1-2.9-3.18,3.35,3.35,0,0,1,.77-2.43,2.38,2.38,0,0,1,1.93-.83,2.48,2.48,0,0,1,1.77.65,3.56,3.56,0,0,1,.82,2.68v.38H98.91v0c0,1,.47,1.49,1.3,1.49A2.36,2.36,0,0,0,101.76,122.62Zm-2.83-2.1h1.86v-.07a1.56,1.56,0,0,0-.19-.93.79.79,0,0,0-.71-.36c-.61,0-1,.48-1,1.34Z"/><path class="cls-27" d="M103.4,118.36l1.43-.41a1.64,1.64,0,0,1,.22.77,6.21,6.21,0,0,1,.71-.45,2.52,2.52,0,0,1,1.11-.27,1.52,1.52,0,0,1,1.47.89,2.56,2.56,0,0,1,.12.87v4.49h-1.58v-4c0-.7-.12-.9-.54-.9a1.84,1.84,0,0,0-1.12.55v4.34h-1.6V119.8A4.54,4.54,0,0,0,103.4,118.36Z"/><path class="cls-27" d="M110.74,115.42a1,1,0,1,1-1,1A1,1,0,0,1,110.74,115.42Zm-.83,2.8,1.61-.25v6.28h-1.61Z"/><path class="cls-27" d="M116.07,118.1l-.41,1.06h-1v3.13c0,.78.14,1,.7,1a2.29,2.29,0,0,0,.57-.12l.2,1a3.33,3.33,0,0,1-1.3.27,1.65,1.65,0,0,1-1.66-.9,2.3,2.3,0,0,1-.11-.94v-3.39h-.61v-1H113a10.72,10.72,0,0,1,.06-1.46l1.64-.41a18,18,0,0,0-.1,1.85Z"/><path class="cls-27" d="M119,118a2.59,2.59,0,0,1,2.09.92,3.22,3.22,0,0,1,.71,2.25,3.32,3.32,0,0,1-.77,2.37,2.51,2.51,0,0,1-2,.85c-1.67,0-2.76-1.25-2.76-3.18S117.31,118,119,118Zm0,1.19a.86.86,0,0,0-.83.62,4.32,4.32,0,0,0-.17,1.37,4.38,4.38,0,0,0,.2,1.54.9.9,0,0,0,.82.51c.7,0,1-.63,1-2.08a2.84,2.84,0,0,0-.32-1.64A.86.86,0,0,0,119,119.18Z"/><path class="cls-27" d="M122.68,118.35l1.44-.38a1.81,1.81,0,0,1,.25.87,2.93,2.93,0,0,1,.92-.78,1.38,1.38,0,0,1,.52-.09,1.21,1.21,0,0,1,.6.13l-.44,1.41a1,1,0,0,0-.47-.12,1.27,1.27,0,0,0-1,.52v4.34h-1.61v-4.1A5.61,5.61,0,0,0,122.68,118.35Z"/><path class="cls-27" d="M131.13,118.52l-.53,1.08a3.3,3.3,0,0,0-1.51-.45c-.47,0-.78.24-.78.6s.2.48.77.63l.74.19a1.89,1.89,0,0,1,1.22.69,1.63,1.63,0,0,1,.34,1c0,1.27-1.06,2.13-2.63,2.13a5.45,5.45,0,0,1-2.48-.71l.58-1.17a4.46,4.46,0,0,0,2,.69.75.75,0,0,0,.82-.69c0-.42-.3-.64-.95-.76l-.72-.13a2.16,2.16,0,0,1-1.12-.62,1.86,1.86,0,0,1-.35-1.11,2.09,2.09,0,0,1,2.37-2A4.58,4.58,0,0,1,131.13,118.52Z"/><path class="cls-27" d="M172.32,104.91h4.52l-.19,1.35H174v1.91h2.12v1.37H174v3.68h-1.68Z"/><path class="cls-27" d="M177.43,107.22l1.58-.3v4a2.16,2.16,0,0,0,.14,1,.65.65,0,0,0,.56.28,1.2,1.2,0,0,0,1-.58v-4.32l1.53-.32v4.68a1.8,1.8,0,0,0,.37,1.12l-1.14.65a1.51,1.51,0,0,1-.48-.6,2.3,2.3,0,0,1-1.62.59,1.86,1.86,0,0,1-1.81-1,3.86,3.86,0,0,1-.13-1.22Z"/><path class="cls-27" d="M183.65,107.33l1.42-.41a1.52,1.52,0,0,1,.23.77,5.45,5.45,0,0,1,.71-.45,2.48,2.48,0,0,1,1.1-.27,1.52,1.52,0,0,1,1.48.89,2.56,2.56,0,0,1,.12.87v4.49h-1.59v-4c0-.7-.12-.9-.54-.9a1.84,1.84,0,0,0-1.11.55v4.34h-1.61v-4.45A4.55,4.55,0,0,0,183.65,107.33Z"/><path class="cls-27" d="M194.47,107.61l-.78,1a1.56,1.56,0,0,0-1-.48c-.72,0-1.05.63-1.05,2.07a2.47,2.47,0,0,0,.32,1.54.9.9,0,0,0,.72.35,1.68,1.68,0,0,0,1.1-.5l.09-.09.74,1a2.44,2.44,0,0,1-.57.46,2.88,2.88,0,0,1-1.5.38c-1.69,0-2.67-1.17-2.67-3.16a3.29,3.29,0,0,1,1.26-2.85,2.78,2.78,0,0,1,2.71-.18A2.82,2.82,0,0,1,194.47,107.61Z"/><path class="cls-27" d="M198.46,107.07l-.4,1.06h-1v3.13c0,.78.14,1,.69,1a2.26,2.26,0,0,0,.58-.12l.2,1a3.41,3.41,0,0,1-1.31.27,1.65,1.65,0,0,1-1.65-.9,2.14,2.14,0,0,1-.11-.94v-3.39h-.61v-1h.61a10.72,10.72,0,0,1,.06-1.46l1.63-.41a18.06,18.06,0,0,0-.09,1.85Z"/><path class="cls-27" d="M199.79,104.39a1,1,0,0,1,1,1,1,1,0,0,1-1,1,1,1,0,0,1-1-1A1,1,0,0,1,199.79,104.39Zm-.83,2.8,1.61-.25v6.28H199Z"/><path class="cls-27" d="M204.36,107a2.57,2.57,0,0,1,2.08.92,3.16,3.16,0,0,1,.71,2.24,3.33,3.33,0,0,1-.77,2.38,2.49,2.49,0,0,1-2,.85c-1.67,0-2.76-1.25-2.76-3.18S202.7,107,204.36,107Zm0,1.19a.88.88,0,0,0-.83.62,4.69,4.69,0,0,0-.16,1.37,4.38,4.38,0,0,0,.2,1.54.88.88,0,0,0,.82.51c.69,0,1-.63,1-2.08a2.93,2.93,0,0,0-.32-1.64A.88.88,0,0,0,204.38,108.15Z"/><path class="cls-27" d="M208.05,107.33l1.43-.41a1.63,1.63,0,0,1,.23.77,4.85,4.85,0,0,1,.71-.45,2.48,2.48,0,0,1,1.1-.27,1.54,1.54,0,0,1,1.48.89,2.56,2.56,0,0,1,.12.87v4.49h-1.59v-4c0-.7-.12-.9-.54-.9a1.84,1.84,0,0,0-1.11.55v4.34h-1.61v-4.45A4.27,4.27,0,0,0,208.05,107.33Z"/><path class="cls-27" d="M214.39,107.81a4.39,4.39,0,0,1,1-.5,4,4,0,0,1,1.68-.36c1,0,1.74.38,2,1.06a3,3,0,0,1,.11,1.11l0,2.06v.11a1.25,1.25,0,0,0,.57,1.26l-.85,1a1.67,1.67,0,0,1-.86-.74,2.7,2.7,0,0,1-.38.32,2.08,2.08,0,0,1-1.23.34c-1.37,0-2.11-.7-2.11-1.92,0-1.44,1-2.11,3-2.11h.36v-.25c0-.69-.13-.91-.72-.91a3.4,3.4,0,0,0-1.78.69Zm3.15,2.72h-.07c-1.11,0-1.5.21-1.5.94a.73.73,0,0,0,.71.8,1.14,1.14,0,0,0,.84-.42Z"/><path class="cls-27" d="M222.17,104.34a10.63,10.63,0,0,1,.08,1.6v4.78c0,1.06,0,1.2.11,1.37a.36.36,0,0,0,.32.17.62.62,0,0,0,.18,0l.28,1a2.93,2.93,0,0,1-1,.16,1.43,1.43,0,0,1-1.43-.84,3.34,3.34,0,0,1-.14-1.38v-4.58a15.54,15.54,0,0,0-.09-1.84Z"/><path class="cls-27" d="M168.22,118.36l1.43-.41a1.66,1.66,0,0,1,.23.77,5.46,5.46,0,0,1,.7-.45,2.56,2.56,0,0,1,1.11-.27,1.52,1.52,0,0,1,1.47.89,2.33,2.33,0,0,1,.12.87v4.49H171.7v-4c0-.7-.12-.9-.54-.9a1.89,1.89,0,0,0-1.12.55v4.34h-1.6V119.8A4.27,4.27,0,0,0,168.22,118.36Z"/><path class="cls-27" d="M179,122.62l.63,1a3.58,3.58,0,0,1-2.32.85,2.86,2.86,0,0,1-2.9-3.18,3.35,3.35,0,0,1,.77-2.43,2.38,2.38,0,0,1,1.93-.83,2.49,2.49,0,0,1,1.77.65,3.56,3.56,0,0,1,.82,2.68v.38h-3.55v0c0,1,.47,1.49,1.29,1.49A2.39,2.39,0,0,0,179,122.62Zm-2.83-2.1H178v-.07a1.64,1.64,0,0,0-.19-.93.8.8,0,0,0-.71-.36c-.61,0-1,.48-1,1.34Z"/><path class="cls-27" d="M180.84,118.25l1.59-.3v4a2.2,2.2,0,0,0,.13,1,.65.65,0,0,0,.56.28,1.19,1.19,0,0,0,1-.58v-4.32l1.53-.32v4.69a1.8,1.8,0,0,0,.38,1.11l-1.14.65a1.35,1.35,0,0,1-.48-.6,2.32,2.32,0,0,1-1.62.59,1.84,1.84,0,0,1-1.81-1,3.52,3.52,0,0,1-.14-1.22Z"/><path class="cls-27" d="M187.08,118.35l1.44-.38a1.94,1.94,0,0,1,.26.87,2.79,2.79,0,0,1,.91-.78,1.42,1.42,0,0,1,.52-.09,1.25,1.25,0,0,1,.61.13l-.45,1.41a1,1,0,0,0-.47-.12,1.27,1.27,0,0,0-1,.52v4.34h-1.61v-4.1A5.34,5.34,0,0,0,187.08,118.35Z"/><path class="cls-27" d="M191.06,118.84a4.19,4.19,0,0,1,1-.5,4,4,0,0,1,1.68-.36,1.89,1.89,0,0,1,2,1.06,3.27,3.27,0,0,1,.11,1.11l0,2.06v.11a1.25,1.25,0,0,0,.58,1.26l-.85,1a1.69,1.69,0,0,1-.87-.74,2.28,2.28,0,0,1-.37.32,2.08,2.08,0,0,1-1.23.34c-1.37,0-2.12-.7-2.12-1.92,0-1.44,1-2.11,3-2.11h.36v-.25c0-.69-.14-.91-.72-.91a3.4,3.4,0,0,0-1.78.69Zm3.15,2.72h-.07c-1.12,0-1.5.21-1.5.94a.73.73,0,0,0,.71.8,1.14,1.14,0,0,0,.84-.42Z"/><path class="cls-27" d="M198.83,115.37a9.07,9.07,0,0,1,.09,1.6v4.78c0,1.06,0,1.21.1,1.37a.38.38,0,0,0,.33.17.65.65,0,0,0,.18,0l.27,1a2.84,2.84,0,0,1-1,.16,1.43,1.43,0,0,1-1.42-.84,3.27,3.27,0,0,1-.15-1.38v-4.58a15.82,15.82,0,0,0-.08-1.84Z"/><path class="cls-27" d="M208.75,118.64l-.78,1a1.53,1.53,0,0,0-1-.48c-.72,0-1,.63-1,2.07a2.56,2.56,0,0,0,.31,1.54.91.91,0,0,0,.72.35,1.66,1.66,0,0,0,1.1-.5l.1-.09.73,1a2.64,2.64,0,0,1-.56.46,2.88,2.88,0,0,1-1.5.38c-1.69,0-2.68-1.17-2.68-3.16a3.29,3.29,0,0,1,1.26-2.85,3,3,0,0,1,1.53-.45,2.73,2.73,0,0,1,1.18.28A2.52,2.52,0,0,1,208.75,118.64Z"/><path class="cls-27" d="M213.84,122.62l.62,1a3.53,3.53,0,0,1-2.31.85,2.86,2.86,0,0,1-2.9-3.18,3.35,3.35,0,0,1,.77-2.43A2.38,2.38,0,0,1,212,118a2.49,2.49,0,0,1,1.77.65,3.56,3.56,0,0,1,.82,2.68v.38H211v0c0,1,.47,1.49,1.29,1.49A2.39,2.39,0,0,0,213.84,122.62Zm-2.83-2.1h1.86v-.07a1.64,1.64,0,0,0-.19-.93.81.81,0,0,0-.71-.36c-.61,0-1,.48-1,1.34Z"/><path class="cls-27" d="M217.2,115.37a9.07,9.07,0,0,1,.09,1.6v4.78c0,1.06,0,1.21.1,1.37a.39.39,0,0,0,.33.17.65.65,0,0,0,.18,0l.27,1a2.84,2.84,0,0,1-1,.16,1.43,1.43,0,0,1-1.42-.84,3.27,3.27,0,0,1-.15-1.38v-4.58a15.82,15.82,0,0,0-.08-1.84Z"/><path class="cls-27" d="M220.43,115.37a9.07,9.07,0,0,1,.09,1.6v4.78c0,1.06,0,1.21.1,1.37a.38.38,0,0,0,.33.17.65.65,0,0,0,.18,0l.27,1a2.84,2.84,0,0,1-1,.16,1.43,1.43,0,0,1-1.42-.84,3.27,3.27,0,0,1-.15-1.38v-4.58a15.82,15.82,0,0,0-.08-1.84Z"/><path class="cls-27" d="M226.35,118.52l-.53,1.08a3.3,3.3,0,0,0-1.51-.45c-.47,0-.78.24-.78.6s.2.48.76.63l.75.19a1.92,1.92,0,0,1,1.22.69,1.63,1.63,0,0,1,.34,1c0,1.27-1.06,2.13-2.63,2.13a5.45,5.45,0,0,1-2.48-.71l.57-1.17a4.54,4.54,0,0,0,2,.69.75.75,0,0,0,.82-.69c0-.42-.3-.64-.95-.76l-.72-.13a2.19,2.19,0,0,1-1.13-.62,1.92,1.92,0,0,1-.34-1.11c0-1.19.94-2,2.37-2A4.62,4.62,0,0,1,226.35,118.52Z"/><ellipse class="cls-25" cx="101.31" cy="47.12" rx="6.06" ry="6.11"/><ellipse class="cls-23" cx="101.23" cy="74.13" rx="6.06" ry="6.11"/><ellipse class="cls-22" cx="27.44" cy="34.9" rx="6.11" ry="6.06" transform="translate(-9.91 58.89) rotate(-84.55)"/><ellipse class="cls-22" cx="9.26" cy="40.12" rx="6.06" ry="6.11"/><ellipse class="cls-22" cx="26.03" cy="82.01" rx="6.06" ry="6.11"/><ellipse class="cls-22" cx="8.27" cy="73.12" rx="6.06" ry="6.11"/><ellipse class="cls-22" cx="33.5" cy="50.89" rx="6.11" ry="6.06" transform="translate(-20.35 79.4) rotate(-84.55)"/><path class="cls-27" d="M7.3,111.61l-.79,1.2a3.58,3.58,0,0,0-1.95-.64,1,1,0,0,0-1.16,1c0,.44.23.65.92.84l1,.28a2.5,2.5,0,0,1,2.11,2.48c0,1.69-1.36,2.81-3.44,2.81a6,6,0,0,1-2.84-.76l.62-1.3a4.81,4.81,0,0,0,2.29.67c1,0,1.47-.4,1.47-1.14,0-.54-.35-.89-1.1-1.08l-.92-.25a2.54,2.54,0,0,1-1.64-1.06,2.38,2.38,0,0,1-.35-1.27c0-1.52,1.22-2.58,3-2.58A4.86,4.86,0,0,1,7.3,111.61Z"/><path class="cls-27" d="M11.45,113.21,11,114.27H10v3.13c0,.78.15,1,.7,1a2.21,2.21,0,0,0,.57-.12l.21,1a3.41,3.41,0,0,1-1.31.27,1.65,1.65,0,0,1-1.65-.9,2.14,2.14,0,0,1-.11-.94v-3.39H7.81v-1h.61a10.72,10.72,0,0,1,.06-1.46l1.63-.41a18,18,0,0,0-.1,1.85Z"/><path class="cls-27" d="M16.19,117.73l.63,1a3.58,3.58,0,0,1-2.32.85,2.86,2.86,0,0,1-2.9-3.18,3.38,3.38,0,0,1,.77-2.44,2.41,2.41,0,0,1,1.93-.82,2.49,2.49,0,0,1,1.77.65,3.6,3.6,0,0,1,.82,2.68v.37H13.34v0c0,1,.46,1.49,1.29,1.49A2.44,2.44,0,0,0,16.19,117.73Zm-2.83-2.1h1.86v-.07a1.64,1.64,0,0,0-.19-.93.79.79,0,0,0-.71-.36c-.61,0-1,.48-1,1.33Z"/><path class="cls-27" d="M17.84,113.5l1.45-.39a1.54,1.54,0,0,1,.21.62,2.15,2.15,0,0,1,1.5-.62,1.67,1.67,0,0,1,1.25.5c.08.09.12.14.24.3a2.27,2.27,0,0,1,1.74-.8,1.88,1.88,0,0,1,1.21.38c.35.3.46.66.46,1.5v4.37H24.34V115.3c0-.73-.09-.87-.51-.87a1.82,1.82,0,0,0-1.06.51v4.42H21.24v-4c0-.76-.1-.94-.55-.94a1.67,1.67,0,0,0-1.05.46v4.48H18.07v-4.28A3.2,3.2,0,0,0,17.84,113.5Z"/><path class="cls-27" d="M35.67,113.75l-.78,1a1.56,1.56,0,0,0-1-.48c-.72,0-1.05.62-1.05,2.06a2.57,2.57,0,0,0,.31,1.55.93.93,0,0,0,.72.35,1.65,1.65,0,0,0,1.11-.51l.09-.08.73,1a2.23,2.23,0,0,1-.56.46,2.88,2.88,0,0,1-1.5.38c-1.69,0-2.67-1.17-2.67-3.17a3.28,3.28,0,0,1,1.26-2.84,2.91,2.91,0,0,1,1.52-.45,3,3,0,0,1,1.19.27A2.82,2.82,0,0,1,35.67,113.75Z"/><path class="cls-27" d="M40.75,117.73l.63,1a3.56,3.56,0,0,1-2.32.85,2.86,2.86,0,0,1-2.9-3.18,3.38,3.38,0,0,1,.77-2.44,2.41,2.41,0,0,1,1.93-.82,2.48,2.48,0,0,1,1.77.65,3.56,3.56,0,0,1,.82,2.68v.37H37.9v0c0,1,.47,1.49,1.3,1.49A2.42,2.42,0,0,0,40.75,117.73Zm-2.83-2.1h1.86v-.07a1.56,1.56,0,0,0-.19-.93.77.77,0,0,0-.71-.36c-.61,0-1,.48-1,1.33Z"/><path class="cls-27" d="M44.12,110.48a9.32,9.32,0,0,1,.08,1.6v4.78c0,1.06,0,1.2.11,1.37a.36.36,0,0,0,.32.17.42.42,0,0,0,.18,0l.28,1a2.65,2.65,0,0,1-1,.17,1.43,1.43,0,0,1-1.43-.84,3.34,3.34,0,0,1-.14-1.38V112.7a15.84,15.84,0,0,0-.09-1.85Z"/><path class="cls-27" d="M47.34,110.48a9,9,0,0,1,.09,1.6v4.78c0,1.06,0,1.2.11,1.37a.36.36,0,0,0,.32.17.42.42,0,0,0,.18,0l.28,1a2.69,2.69,0,0,1-1,.17,1.43,1.43,0,0,1-1.43-.84,3.34,3.34,0,0,1-.14-1.38V112.7a15.84,15.84,0,0,0-.09-1.85Z"/><path class="cls-27" d="M53.26,113.63l-.53,1.07a3.24,3.24,0,0,0-1.51-.44c-.47,0-.78.24-.78.6s.2.48.77.62l.74.2a1.89,1.89,0,0,1,1.22.69,1.63,1.63,0,0,1,.34,1c0,1.28-1,2.14-2.63,2.14a5.45,5.45,0,0,1-2.48-.71l.58-1.17a4.46,4.46,0,0,0,2,.69.75.75,0,0,0,.81-.69c0-.42-.3-.64-.95-.76l-.72-.13a2.16,2.16,0,0,1-1.12-.62,1.86,1.86,0,0,1-.35-1.11c0-1.2,1-2,2.37-2A4.55,4.55,0,0,1,53.26,113.63Z"/></svg>