<svg id="Layer_1" data-name="Layer 1" xmlns="http://www.w3.org/2000/svg" viewBox="0 0 167.04 167.25"><defs><style>.cls-1,.cls-11,.cls-2{fill:#d68fd6;}.cls-1,.cls-2{stroke:#d68fd6;stroke-width:0.57px;}.cls-1,.cls-2,.cls-20,.cls-21,.cls-3,.cls-32,.cls-4,.cls-41,.cls-5,.cls-6,.cls-7{stroke-linecap:round;}.cls-2,.cls-22,.cls-26,.cls-31,.cls-34,.cls-37,.cls-4,.cls-41,.cls-6,.cls-7,.cls-8,.cls-9{stroke-miterlimit:10;}.cls-22,.cls-3,.cls-4{fill:#86c3d1;}.cls-3,.cls-4{stroke:#86c3d1;stroke-width:0.56px;}.cls-19,.cls-5,.cls-6{fill:#88ce88;}.cls-5,.cls-6{stroke:#88ce88;stroke-width:0.6px;}.cls-20,.cls-21,.cls-26,.cls-27,.cls-35,.cls-40,.cls-41,.cls-7,.cls-8{fill:none;}.cls-34,.cls-37,.cls-7,.cls-8,.cls-9{stroke:#231f20;}.cls-23,.cls-9{fill:#231f20;}.cls-9{stroke-width:0.61px;}.cls-10{font-size:11px;font-family:ArialMT, Arial;letter-spacing:-0.06em;}.cls-12{fill:#bc94de;}.cls-13{fill:#a399e7;}.cls-14{fill:#899eef;}.cls-15{fill:#6fa3f7;}.cls-16{fill:#75aedb;}.cls-17{fill:#7cb9c0;}.cls-18{fill:#82c3a4;}.cls-20{stroke:#f4b571;stroke-width:5px;}.cls-20,.cls-21{stroke-linejoin:round;}.cls-21{stroke:#5b5b5b;stroke-width:3px;}.cls-22{stroke:#565656;}.cls-24{opacity:0.9;}.cls-25{fill:#d3d3d3;}.cls-26{stroke:#6a6c6e;stroke-width:0.38px;}.cls-28{fill:#eaeae9;}.cls-29{opacity:0.86;}.cls-30{fill:#fff;}.cls-31,.cls-33{fill:#fbeaa5;}.cls-31{stroke:#444;stroke-width:0.25px;}.cls-32{fill:#fff8ea;stroke:#535353;stroke-width:0.39px;}.cls-33,.cls-35,.cls-36,.cls-38,.cls-39,.cls-40{stroke:#010101;}.cls-33,.cls-34,.cls-37{stroke-width:0.17px;}.cls-34{fill:#efe5d8;}.cls-35,.cls-36,.cls-38,.cls-39{stroke-width:0.08px;}.cls-36{fill:#f4e1aa;}.cls-37{fill:#f1e8dd;}.cls-38{fill:#5b5c5b;}.cls-39{fill:#f6d4a8;}.cls-40{stroke-width:0.08px;}.cls-41{stroke:#4c4c4c;stroke-dasharray:3 3;}.cls-42{fill:#4c4c4c;}</style></defs><title>translation-regulation</title><line class="cls-1" x1="115.04" y1="75.63" x2="115.27" y2="75.63"/><line class="cls-1" x1="115.83" y1="75.63" x2="116.06" y2="75.63"/><line class="cls-1" x1="116.62" y1="75.63" x2="116.85" y2="75.63"/><line class="cls-1" x1="117.41" y1="75.63" x2="117.64" y2="75.63"/><line class="cls-1" x1="117.92" y1="75.35" x2="117.92" y2="75.01"/><line class="cls-1" x1="117.92" y1="74.44" x2="117.92" y2="74.11"/><line class="cls-1" x1="117.75" y1="73.6" x2="117.62" y2="73.42"/><line class="cls-1" x1="117.45" y1="72.9" x2="117.45" y2="72.68"/><line class="cls-1" x1="117.62" y1="72.17" x2="117.75" y2="71.99"/><line class="cls-1" x1="117.92" y1="71.48" x2="117.92" y2="71.14"/><line class="cls-1" x1="117.92" y1="70.58" x2="117.92" y2="70.24"/><line class="cls-1" x1="117.92" y1="69.67" x2="117.92" y2="69.34"/><line class="cls-1" x1="117.92" y1="68.77" x2="117.92" y2="68.43"/><line class="cls-1" x1="117.65" y1="68.07" x2="117.43" y2="68.01"/><line class="cls-1" x1="116.91" y1="67.81" x2="116.71" y2="67.7"/><line class="cls-1" x1="116.23" y1="67.41" x2="116.05" y2="67.27"/><line class="cls-1" x1="115.64" y1="66.88" x2="115.49" y2="66.71"/><line class="cls-1" x1="115.17" y1="66.26" x2="115.05" y2="66.06"/><line class="cls-1" x1="114.82" y1="65.55" x2="114.74" y2="65.34"/><line class="cls-1" x1="114.61" y1="64.79" x2="114.58" y2="64.57"/><line class="cls-1" x1="114.55" y1="64.01" x2="114.56" y2="63.78"/><line class="cls-1" x1="114.64" y1="63.23" x2="114.7" y2="63.01"/><line class="cls-1" x1="114.88" y1="62.48" x2="114.97" y2="62.27"/><line class="cls-1" x1="115.26" y1="61.79" x2="115.39" y2="61.61"/><line class="cls-1" x1="115.76" y1="61.18" x2="115.92" y2="61.03"/><line class="cls-1" x1="116.37" y1="60.68" x2="116.56" y2="60.57"/><line class="cls-1" x1="117.06" y1="60.31" x2="117.27" y2="60.23"/><line class="cls-1" x1="117.81" y1="60.08" x2="118.03" y2="60.04"/><line class="cls-1" x1="118.59" y1="59.99" x2="118.82" y2="59.99"/><line class="cls-1" x1="119.38" y1="60.05" x2="119.6" y2="60.1"/><line class="cls-1" x1="120.13" y1="60.27" x2="120.34" y2="60.35"/><line class="cls-1" x1="120.84" y1="60.62" x2="121.03" y2="60.74"/><line class="cls-1" x1="121.46" y1="61.1" x2="121.62" y2="61.26"/><line class="cls-1" x1="121.98" y1="61.69" x2="122.11" y2="61.88"/><line class="cls-1" x1="122.38" y1="62.37" x2="122.47" y2="62.57"/><line class="cls-1" x1="122.64" y1="63.11" x2="122.69" y2="63.33"/><line class="cls-1" x1="122.75" y1="63.89" x2="122.76" y2="64.12"/><line class="cls-1" x1="123.04" y1="64.47" x2="123.37" y2="64.56"/><line class="cls-1" x1="123.91" y1="64.69" x2="124.24" y2="64.78"/><line class="cls-1" x1="124.79" y1="64.92" x2="125.11" y2="65"/><line class="cls-1" x1="125.66" y1="65.15" x2="125.99" y2="65.23"/><line class="cls-1" x1="126.48" y1="65.12" x2="126.65" y2="64.98"/><line class="cls-1" x1="127.14" y1="64.71" x2="127.36" y2="64.65"/><line class="cls-1" x1="127.9" y1="64.61" x2="128.13" y2="64.65"/><line class="cls-1" x1="128.6" y1="64.49" x2="128.84" y2="64.24"/><line class="cls-1" x1="129.23" y1="63.83" x2="129.46" y2="63.59"/><line class="cls-1" x1="129.85" y1="63.18" x2="130.08" y2="62.93"/><line class="cls-1" x1="130.47" y1="62.52" x2="130.7" y2="62.28"/><line class="cls-1" x1="131.09" y1="61.87" x2="131.33" y2="61.63"/><line class="cls-1" x1="131.41" y1="61.16" x2="131.33" y2="60.95"/><line class="cls-1" x1="131.19" y1="60.41" x2="131.16" y2="60.19"/><line class="cls-1" x1="131.18" y1="59.63" x2="131.22" y2="59.41"/><line class="cls-1" x1="131.4" y1="58.88" x2="131.5" y2="58.68"/><line class="cls-1" x1="131.82" y1="58.22" x2="131.97" y2="58.05"/><line class="cls-1" x1="132.41" y1="57.7" x2="132.6" y2="57.59"/><line class="cls-1" x1="133.12" y1="57.38" x2="133.34" y2="57.33"/><line class="cls-1" x1="133.9" y1="57.27" x2="134.12" y2="57.28"/><line class="cls-1" x1="134.67" y1="57.38" x2="134.88" y2="57.46"/><line class="cls-1" x1="135.38" y1="57.71" x2="135.57" y2="57.84"/><line class="cls-1" x1="135.97" y1="58.23" x2="136.11" y2="58.41"/><line class="cls-1" x1="136.39" y1="58.89" x2="136.47" y2="59.1"/><line class="cls-1" x1="136.6" y1="59.64" x2="136.62" y2="59.87"/><line class="cls-1" x1="136.59" y1="60.42" x2="136.55" y2="60.64"/><line class="cls-1" x1="136.36" y1="61.17" x2="136.26" y2="61.37"/><line class="cls-1" x1="135.93" y1="61.83" x2="135.77" y2="61.99"/><line class="cls-1" x1="135.33" y1="62.33" x2="135.13" y2="62.44"/><line class="cls-1" x1="134.61" y1="62.64" x2="134.39" y2="62.69"/><line class="cls-1" x1="133.83" y1="62.74" x2="133.61" y2="62.72"/><line class="cls-1" x1="133.06" y1="62.61" x2="132.85" y2="62.53"/><line class="cls-1" x1="132.39" y1="62.64" x2="132.16" y2="62.88"/><line class="cls-1" x1="131.77" y1="63.29" x2="131.53" y2="63.54"/><line class="cls-1" x1="131.14" y1="63.95" x2="130.91" y2="64.19"/><line class="cls-1" x1="130.52" y1="64.6" x2="130.29" y2="64.85"/><line class="cls-1" x1="129.9" y1="65.25" x2="129.66" y2="65.5"/><line class="cls-1" x1="129.52" y1="65.98" x2="129.57" y2="66.2"/><line class="cls-1" x1="129.56" y1="66.75" x2="129.51" y2="66.97"/><line class="cls-1" x1="129.27" y1="67.47" x2="129.13" y2="67.65"/><line class="cls-1" x1="128.71" y1="68.01" x2="128.51" y2="68.11"/><line class="cls-1" x1="127.98" y1="68.26" x2="127.76" y2="68.28"/><line class="cls-1" x1="127.21" y1="68.2" x2="127" y2="68.12"/><line class="cls-1" x1="126.53" y1="67.82" x2="126.37" y2="67.66"/><line class="cls-1" x1="126.07" y1="67.2" x2="126" y2="66.99"/><line class="cls-1" x1="125.62" y1="66.65" x2="125.3" y2="66.57"/><line class="cls-1" x1="124.75" y1="66.43" x2="124.42" y2="66.34"/><line class="cls-1" x1="123.87" y1="66.2" x2="123.55" y2="66.12"/><line class="cls-1" x1="123" y1="65.97" x2="122.67" y2="65.89"/><line class="cls-1" x1="122.26" y1="66.06" x2="122.14" y2="66.26"/><line class="cls-1" x1="121.81" y1="66.71" x2="121.67" y2="66.88"/><line class="cls-1" x1="121.26" y1="67.27" x2="121.08" y2="67.41"/><line class="cls-1" x1="120.6" y1="67.7" x2="120.4" y2="67.81"/><line class="cls-1" x1="119.88" y1="68.01" x2="119.66" y2="68.07"/><line class="cls-1" x1="119.39" y1="68.43" x2="119.39" y2="68.77"/><line class="cls-1" x1="119.39" y1="69.34" x2="119.39" y2="69.67"/><line class="cls-1" x1="119.39" y1="70.24" x2="119.39" y2="70.58"/><line class="cls-1" x1="119.39" y1="71.14" x2="119.39" y2="71.48"/><line class="cls-1" x1="119.56" y1="71.99" x2="119.69" y2="72.17"/><line class="cls-1" x1="119.86" y1="72.68" x2="119.86" y2="72.9"/><line class="cls-1" x1="119.69" y1="73.42" x2="119.56" y2="73.6"/><line class="cls-1" x1="119.39" y1="74.11" x2="119.39" y2="74.44"/><line class="cls-1" x1="119.39" y1="75.01" x2="119.39" y2="75.35"/><line class="cls-1" x1="119.67" y1="75.63" x2="119.9" y2="75.63"/><line class="cls-1" x1="120.46" y1="75.63" x2="120.69" y2="75.63"/><line class="cls-1" x1="121.25" y1="75.63" x2="121.48" y2="75.63"/><line class="cls-1" x1="122.04" y1="75.63" x2="122.27" y2="75.63"/><line class="cls-1" x1="122.83" y1="75.63" x2="123.06" y2="75.63"/><path class="cls-2" d="M114.76,75.35a.28.28,0,0,1,.28.28.28.28,0,0,1-.56,0A.28.28,0,0,1,114.76,75.35Z"/><path class="cls-1" d="M114.76,75.35a.28.28,0,0,1,.28.28.28.28,0,0,1-.56,0A.28.28,0,0,1,114.76,75.35Z"/><path class="cls-2" d="M115.55,75.35a.29.29,0,0,1,.28.28.28.28,0,0,1-.28.28.27.27,0,0,1-.28-.28A.28.28,0,0,1,115.55,75.35Z"/><path class="cls-1" d="M115.55,75.35a.29.29,0,0,1,.28.28.28.28,0,0,1-.28.28.27.27,0,0,1-.28-.28A.28.28,0,0,1,115.55,75.35Z"/><path class="cls-2" d="M116.34,75.35a.28.28,0,0,1,.28.28.28.28,0,0,1-.56,0A.28.28,0,0,1,116.34,75.35Z"/><path class="cls-1" d="M116.34,75.35a.28.28,0,0,1,.28.28.28.28,0,0,1-.56,0A.28.28,0,0,1,116.34,75.35Z"/><path class="cls-2" d="M117.13,75.35a.28.28,0,0,1,.28.28.27.27,0,0,1-.28.28.28.28,0,0,1-.28-.28A.29.29,0,0,1,117.13,75.35Z"/><path class="cls-1" d="M117.13,75.35a.28.28,0,0,1,.28.28.27.27,0,0,1-.28.28.28.28,0,0,1-.28-.28A.29.29,0,0,1,117.13,75.35Z"/><path class="cls-2" d="M117.92,75.35a.28.28,0,0,1,.28.28.28.28,0,0,1-.56,0A.28.28,0,0,1,117.92,75.35Z"/><path class="cls-1" d="M117.92,75.35a.28.28,0,0,1,.28.28.28.28,0,0,1-.56,0A.28.28,0,0,1,117.92,75.35Z"/><path class="cls-2" d="M117.92,74.44a.29.29,0,1,1-.28.29A.28.28,0,0,1,117.92,74.44Z"/><path class="cls-1" d="M117.92,74.44a.29.29,0,1,1-.28.29A.28.28,0,0,1,117.92,74.44Z"/><path class="cls-2" d="M117.92,73.54a.29.29,0,1,1-.28.28A.28.28,0,0,1,117.92,73.54Z"/><path class="cls-1" d="M117.92,73.54a.29.29,0,1,1-.28.28A.28.28,0,0,1,117.92,73.54Z"/><path class="cls-2" d="M117.45,72.9a.29.29,0,0,1,.29.29.28.28,0,0,1-.29.28.27.27,0,0,1-.28-.28A.28.28,0,0,1,117.45,72.9Z"/><path class="cls-1" d="M117.45,72.9a.29.29,0,0,1,.29.29.28.28,0,0,1-.29.28.27.27,0,0,1-.28-.28A.28.28,0,0,1,117.45,72.9Z"/><path class="cls-2" d="M117.45,72.12a.28.28,0,0,1,.29.28.29.29,0,0,1-.29.28.28.28,0,0,1-.28-.28A.27.27,0,0,1,117.45,72.12Z"/><path class="cls-1" d="M117.45,72.12a.28.28,0,0,1,.29.28.29.29,0,0,1-.29.28.28.28,0,0,1-.28-.28A.27.27,0,0,1,117.45,72.12Z"/><path class="cls-2" d="M117.92,71.48a.28.28,0,1,1-.28.28A.28.28,0,0,1,117.92,71.48Z"/><path class="cls-1" d="M117.92,71.48a.28.28,0,1,1-.28.28A.28.28,0,0,1,117.92,71.48Z"/><path class="cls-2" d="M117.92,70.58a.27.27,0,0,1,.28.28.28.28,0,0,1-.56,0A.27.27,0,0,1,117.92,70.58Z"/><path class="cls-1" d="M117.92,70.58a.27.27,0,0,1,.28.28.28.28,0,0,1-.56,0A.27.27,0,0,1,117.92,70.58Z"/><path class="cls-2" d="M117.92,69.67a.29.29,0,1,1-.28.29A.28.28,0,0,1,117.92,69.67Z"/><path class="cls-1" d="M117.92,69.67a.29.29,0,1,1-.28.29A.28.28,0,0,1,117.92,69.67Z"/><path class="cls-2" d="M117.92,68.77a.29.29,0,1,1-.28.28A.28.28,0,0,1,117.92,68.77Z"/><path class="cls-1" d="M117.92,68.77a.29.29,0,1,1-.28.28A.28.28,0,0,1,117.92,68.77Z"/><path class="cls-2" d="M117.92,67.87a.28.28,0,1,1-.28.28A.27.27,0,0,1,117.92,67.87Z"/><path class="cls-1" d="M117.92,67.87a.28.28,0,1,1-.28.28A.27.27,0,0,1,117.92,67.87Z"/><path class="cls-2" d="M117.16,67.65a.29.29,0,1,1-.28.28A.28.28,0,0,1,117.16,67.65Z"/><path class="cls-1" d="M117.16,67.65a.29.29,0,1,1-.28.28A.28.28,0,0,1,117.16,67.65Z"/><path class="cls-2" d="M116.45,67.3a.28.28,0,1,1-.28.28A.28.28,0,0,1,116.45,67.3Z"/><path class="cls-1" d="M116.45,67.3a.28.28,0,1,1-.28.28A.28.28,0,0,1,116.45,67.3Z"/><path class="cls-2" d="M115.83,66.81a.29.29,0,1,1-.28.28A.28.28,0,0,1,115.83,66.81Z"/><path class="cls-1" d="M115.83,66.81a.29.29,0,1,1-.28.28A.28.28,0,0,1,115.83,66.81Z"/><path class="cls-2" d="M115.31,66.22a.28.28,0,0,1,.28.28.28.28,0,0,1-.56,0A.28.28,0,0,1,115.31,66.22Z"/><path class="cls-1" d="M115.31,66.22a.28.28,0,0,1,.28.28.28.28,0,0,1-.56,0A.28.28,0,0,1,115.31,66.22Z"/><path class="cls-2" d="M114.91,65.54a.27.27,0,0,1,.28.28.28.28,0,0,1-.28.28.29.29,0,0,1-.28-.28A.28.28,0,0,1,114.91,65.54Z"/><path class="cls-1" d="M114.91,65.54a.27.27,0,0,1,.28.28.28.28,0,0,1-.28.28.29.29,0,0,1-.28-.28A.28.28,0,0,1,114.91,65.54Z"/><path class="cls-2" d="M114.65,64.79a.29.29,0,1,1-.28.28A.28.28,0,0,1,114.65,64.79Z"/><path class="cls-1" d="M114.65,64.79a.29.29,0,1,1-.28.28A.28.28,0,0,1,114.65,64.79Z"/><path class="cls-2" d="M114.54,64a.29.29,0,0,1,.28.28.29.29,0,0,1-.57,0A.29.29,0,0,1,114.54,64Z"/><path class="cls-1" d="M114.54,64a.29.29,0,0,1,.28.28.29.29,0,0,1-.57,0A.29.29,0,0,1,114.54,64Z"/><path class="cls-2" d="M114.57,63.22a.28.28,0,0,1,.29.28.29.29,0,1,1-.57,0A.28.28,0,0,1,114.57,63.22Z"/><path class="cls-1" d="M114.57,63.22a.28.28,0,0,1,.29.28.29.29,0,1,1-.57,0A.28.28,0,0,1,114.57,63.22Z"/><path class="cls-2" d="M114.76,62.45a.29.29,0,0,1,0,.57.29.29,0,0,1,0-.57Z"/><path class="cls-1" d="M114.76,62.45a.29.29,0,0,1,0,.57.29.29,0,0,1,0-.57Z"/><path class="cls-2" d="M115.09,61.73a.29.29,0,1,1,0,.57.29.29,0,0,1,0-.57Z"/><path class="cls-1" d="M115.09,61.73a.29.29,0,1,1,0,.57.29.29,0,0,1,0-.57Z"/><path class="cls-2" d="M115.56,61.09a.29.29,0,0,1,0,.57.29.29,0,1,1,0-.57Z"/><path class="cls-1" d="M115.56,61.09a.29.29,0,0,1,0,.57.29.29,0,1,1,0-.57Z"/><path class="cls-2" d="M116.13,60.55a.29.29,0,1,1-.28.28A.28.28,0,0,1,116.13,60.55Z"/><path class="cls-1" d="M116.13,60.55a.29.29,0,1,1-.28.28A.28.28,0,0,1,116.13,60.55Z"/><path class="cls-2" d="M116.8,60.13a.29.29,0,0,1,.28.28.28.28,0,0,1-.28.28.27.27,0,0,1-.28-.28A.28.28,0,0,1,116.8,60.13Z"/><path class="cls-1" d="M116.8,60.13a.29.29,0,0,1,.28.28.28.28,0,0,1-.28.28.27.27,0,0,1-.28-.28A.28.28,0,0,1,116.8,60.13Z"/><path class="cls-2" d="M117.54,59.84a.29.29,0,0,1,0,.57.29.29,0,1,1,0-.57Z"/><path class="cls-1" d="M117.54,59.84a.29.29,0,0,1,0,.57.29.29,0,1,1,0-.57Z"/><path class="cls-2" d="M118.31,59.7a.29.29,0,0,1,0,.57.29.29,0,0,1,0-.57Z"/><path class="cls-1" d="M118.31,59.7a.29.29,0,0,1,0,.57.29.29,0,0,1,0-.57Z"/><path class="cls-2" d="M119.1,59.71a.29.29,0,1,1-.28.28A.29.29,0,0,1,119.1,59.71Z"/><path class="cls-1" d="M119.1,59.71a.29.29,0,1,1-.28.28A.29.29,0,0,1,119.1,59.71Z"/><path class="cls-2" d="M119.88,59.87a.29.29,0,1,1-.29.29A.29.29,0,0,1,119.88,59.87Z"/><path class="cls-1" d="M119.88,59.87a.29.29,0,1,1-.29.29A.29.29,0,0,1,119.88,59.87Z"/><path class="cls-2" d="M120.61,60.18a.29.29,0,0,1,.28.28.29.29,0,0,1-.57,0A.29.29,0,0,1,120.61,60.18Z"/><path class="cls-1" d="M120.61,60.18a.29.29,0,0,1,.28.28.29.29,0,0,1-.57,0A.29.29,0,0,1,120.61,60.18Z"/><circle class="cls-2" cx="121.26" cy="60.9" r="0.28"/><circle class="cls-1" cx="121.26" cy="60.9" r="0.28"/><path class="cls-2" d="M121.82,61.18a.28.28,0,0,1,.29.28.29.29,0,0,1-.57,0A.28.28,0,0,1,121.82,61.18Z"/><path class="cls-1" d="M121.82,61.18a.28.28,0,0,1,.29.28.29.29,0,0,1-.57,0A.28.28,0,0,1,121.82,61.18Z"/><path class="cls-2" d="M122.27,61.83a.28.28,0,0,1,0,.56.28.28,0,0,1,0-.56Z"/><path class="cls-1" d="M122.27,61.83a.28.28,0,0,1,0,.56.28.28,0,0,1,0-.56Z"/><path class="cls-2" d="M122.58,62.55a.29.29,0,1,1-.28.28A.28.28,0,0,1,122.58,62.55Z"/><path class="cls-1" d="M122.58,62.55a.29.29,0,1,1-.28.28A.28.28,0,0,1,122.58,62.55Z"/><path class="cls-2" d="M122.75,63.33a.28.28,0,0,1,0,.56.28.28,0,1,1,0-.56Z"/><path class="cls-1" d="M122.75,63.33a.28.28,0,0,1,0,.56.28.28,0,1,1,0-.56Z"/><path class="cls-2" d="M122.76,64.12a.28.28,0,1,1-.28.28A.28.28,0,0,1,122.76,64.12Z"/><path class="cls-1" d="M122.76,64.12a.28.28,0,1,1-.28.28A.28.28,0,0,1,122.76,64.12Z"/><path class="cls-2" d="M123.64,64.34a.29.29,0,1,1-.28.28A.28.28,0,0,1,123.64,64.34Z"/><path class="cls-1" d="M123.64,64.34a.29.29,0,1,1-.28.28A.28.28,0,0,1,123.64,64.34Z"/><path class="cls-2" d="M124.51,64.57a.28.28,0,0,1,.29.28.29.29,0,0,1-.57,0A.28.28,0,0,1,124.51,64.57Z"/><path class="cls-1" d="M124.51,64.57a.28.28,0,0,1,.29.28.29.29,0,0,1-.57,0A.28.28,0,0,1,124.51,64.57Z"/><path class="cls-2" d="M125.39,64.79a.29.29,0,0,1,0,.57.29.29,0,0,1,0-.57Z"/><path class="cls-1" d="M125.39,64.79a.29.29,0,0,1,0,.57.29.29,0,0,1,0-.57Z"/><path class="cls-2" d="M126.26,65a.28.28,0,0,1,.28.28.27.27,0,0,1-.28.28.28.28,0,0,1-.28-.28A.29.29,0,0,1,126.26,65Z"/><path class="cls-1" d="M126.26,65a.28.28,0,0,1,.28.28.27.27,0,0,1-.28.28.28.28,0,0,1-.28-.28A.29.29,0,0,1,126.26,65Z"/><path class="cls-2" d="M126.87,64.51a.29.29,0,0,1,.28.28.29.29,0,0,1-.57,0A.29.29,0,0,1,126.87,64.51Z"/><path class="cls-1" d="M126.87,64.51a.29.29,0,0,1,.28.28.29.29,0,0,1-.57,0A.29.29,0,0,1,126.87,64.51Z"/><path class="cls-2" d="M127.63,64.29a.29.29,0,0,1,0,.57.29.29,0,1,1,0-.57Z"/><path class="cls-1" d="M127.63,64.29a.29.29,0,0,1,0,.57.29.29,0,1,1,0-.57Z"/><path class="cls-2" d="M128.41,64.41a.29.29,0,0,1,.28.28.28.28,0,0,1-.28.28.27.27,0,0,1-.28-.28A.28.28,0,0,1,128.41,64.41Z"/><path class="cls-1" d="M128.41,64.41a.29.29,0,0,1,.28.28.28.28,0,0,1-.28.28.27.27,0,0,1-.28-.28A.28.28,0,0,1,128.41,64.41Z"/><path class="cls-2" d="M129,63.75a.29.29,0,1,1-.28.29A.28.28,0,0,1,129,63.75Z"/><path class="cls-1" d="M129,63.75a.29.29,0,1,1-.28.29A.28.28,0,0,1,129,63.75Z"/><path class="cls-2" d="M129.65,63.1a.29.29,0,0,1,.29.28.29.29,0,0,1-.57,0A.29.29,0,0,1,129.65,63.1Z"/><path class="cls-1" d="M129.65,63.1a.29.29,0,0,1,.29.28.29.29,0,0,1-.57,0A.29.29,0,0,1,129.65,63.1Z"/><path class="cls-2" d="M130.28,62.45a.28.28,0,1,1-.29.28A.28.28,0,0,1,130.28,62.45Z"/><path class="cls-1" d="M130.28,62.45a.28.28,0,1,1-.29.28A.28.28,0,0,1,130.28,62.45Z"/><path class="cls-2" d="M130.9,61.8a.28.28,0,0,1,.28.27.29.29,0,0,1-.28.29.28.28,0,0,1-.28-.29A.27.27,0,0,1,130.9,61.8Z"/><path class="cls-1" d="M130.9,61.8a.28.28,0,0,1,.28.27.29.29,0,0,1-.28.29.28.28,0,0,1-.28-.29A.27.27,0,0,1,130.9,61.8Z"/><path class="cls-2" d="M131.52,61.14a.28.28,0,0,1,.28.28.27.27,0,0,1-.28.28.28.28,0,0,1-.28-.28A.29.29,0,0,1,131.52,61.14Z"/><path class="cls-1" d="M131.52,61.14a.28.28,0,0,1,.28.28.27.27,0,0,1-.28.28.28.28,0,0,1-.28-.28A.29.29,0,0,1,131.52,61.14Z"/><path class="cls-2" d="M131.22,60.41a.29.29,0,0,1,.28.28.28.28,0,0,1-.28.28.27.27,0,0,1-.28-.28A.28.28,0,0,1,131.22,60.41Z"/><path class="cls-1" d="M131.22,60.41a.29.29,0,0,1,.28.28.28.28,0,0,1-.28.28.27.27,0,0,1-.28-.28A.28.28,0,0,1,131.22,60.41Z"/><path class="cls-2" d="M131.13,59.62a.29.29,0,0,1,0,.57.29.29,0,0,1,0-.57Z"/><path class="cls-1" d="M131.13,59.62a.29.29,0,0,1,0,.57.29.29,0,0,1,0-.57Z"/><path class="cls-2" d="M131.27,58.85a.28.28,0,0,1,0,.56.28.28,0,1,1,0-.56Z"/><path class="cls-1" d="M131.27,58.85a.28.28,0,0,1,0,.56.28.28,0,1,1,0-.56Z"/><path class="cls-2" d="M131.63,58.14a.29.29,0,0,1,0,.57.29.29,0,1,1,0-.57Z"/><path class="cls-1" d="M131.63,58.14a.29.29,0,0,1,0,.57.29.29,0,1,1,0-.57Z"/><path class="cls-2" d="M132.17,57.56a.29.29,0,0,1,0,.57.29.29,0,0,1,0-.57Z"/><path class="cls-1" d="M132.17,57.56a.29.29,0,0,1,0,.57.29.29,0,0,1,0-.57Z"/><path class="cls-2" d="M132.85,57.16a.29.29,0,0,1,0,.57.29.29,0,0,1,0-.57Z"/><path class="cls-1" d="M132.85,57.16a.29.29,0,0,1,0,.57.29.29,0,0,1,0-.57Z"/><path class="cls-2" d="M133.61,57a.29.29,0,1,1,0,.57.29.29,0,0,1,0-.57Z"/><path class="cls-1" d="M133.61,57a.29.29,0,1,1,0,.57.29.29,0,0,1,0-.57Z"/><path class="cls-2" d="M134.4,57a.28.28,0,1,1-.28.28A.28.28,0,0,1,134.4,57Z"/><path class="cls-1" d="M134.4,57a.28.28,0,1,1-.28.28A.28.28,0,0,1,134.4,57Z"/><path class="cls-2" d="M135.15,57.27a.27.27,0,0,1,.28.28.28.28,0,0,1-.56,0A.27.27,0,0,1,135.15,57.27Z"/><path class="cls-1" d="M135.15,57.27a.27.27,0,0,1,.28.28.28.28,0,0,1-.56,0A.27.27,0,0,1,135.15,57.27Z"/><path class="cls-2" d="M135.8,57.72a.29.29,0,0,1,0,.57.29.29,0,1,1,0-.57Z"/><path class="cls-1" d="M135.8,57.72a.29.29,0,0,1,0,.57.29.29,0,1,1,0-.57Z"/><path class="cls-2" d="M136.28,58.34a.29.29,0,0,1,0,.57.29.29,0,0,1,0-.57Z"/><path class="cls-1" d="M136.28,58.34a.29.29,0,0,1,0,.57.29.29,0,0,1,0-.57Z"/><path class="cls-2" d="M136.57,59.08a.28.28,0,1,1-.28.28A.28.28,0,0,1,136.57,59.08Z"/><path class="cls-1" d="M136.57,59.08a.28.28,0,1,1-.28.28A.28.28,0,0,1,136.57,59.08Z"/><path class="cls-2" d="M136.65,59.86a.29.29,0,1,1-.29.29A.29.29,0,0,1,136.65,59.86Z"/><path class="cls-1" d="M136.65,59.86a.29.29,0,1,1-.29.29A.29.29,0,0,1,136.65,59.86Z"/><path class="cls-2" d="M136.49,60.64a.29.29,0,0,1,.29.28.29.29,0,0,1-.57,0A.29.29,0,0,1,136.49,60.64Z"/><path class="cls-1" d="M136.49,60.64a.29.29,0,0,1,.29.28.29.29,0,0,1-.57,0A.29.29,0,0,1,136.49,60.64Z"/><path class="cls-2" d="M136.13,61.34a.29.29,0,0,1,0,.57.29.29,0,1,1,0-.57Z"/><path class="cls-1" d="M136.13,61.34a.29.29,0,0,1,0,.57.29.29,0,1,1,0-.57Z"/><path class="cls-2" d="M135.58,61.91a.28.28,0,0,1,.28.28.29.29,0,0,1-.57,0A.28.28,0,0,1,135.58,61.91Z"/><path class="cls-1" d="M135.58,61.91a.28.28,0,0,1,.28.28.29.29,0,0,1-.57,0A.28.28,0,0,1,135.58,61.91Z"/><path class="cls-2" d="M134.89,62.3a.28.28,0,0,1,.28.27.29.29,0,1,1-.57,0A.28.28,0,0,1,134.89,62.3Z"/><path class="cls-1" d="M134.89,62.3a.28.28,0,0,1,.28.27.29.29,0,1,1-.57,0A.28.28,0,0,1,134.89,62.3Z"/><path class="cls-2" d="M134.12,62.47a.29.29,0,0,1,0,.57.29.29,0,1,1,0-.57Z"/><path class="cls-1" d="M134.12,62.47a.29.29,0,0,1,0,.57.29.29,0,1,1,0-.57Z"/><path class="cls-2" d="M133.33,62.42a.29.29,0,0,1,0,.57.29.29,0,0,1,0-.57Z"/><path class="cls-1" d="M133.33,62.42a.29.29,0,0,1,0,.57.29.29,0,0,1,0-.57Z"/><path class="cls-2" d="M132.59,62.15a.29.29,0,1,1-.29.29A.29.29,0,0,1,132.59,62.15Z"/><path class="cls-1" d="M132.59,62.15a.29.29,0,1,1-.29.29A.29.29,0,0,1,132.59,62.15Z"/><path class="cls-2" d="M132,62.81a.28.28,0,0,1,0,.56.28.28,0,1,1,0-.56Z"/><path class="cls-1" d="M132,62.81a.28.28,0,0,1,0,.56.28.28,0,1,1,0-.56Z"/><path class="cls-2" d="M131.34,63.46a.29.29,0,0,1,.28.28.28.28,0,0,1-.28.28.27.27,0,0,1-.28-.28A.28.28,0,0,1,131.34,63.46Z"/><path class="cls-1" d="M131.34,63.46a.29.29,0,0,1,.28.28.28.28,0,0,1-.28.28.27.27,0,0,1-.28-.28A.28.28,0,0,1,131.34,63.46Z"/><path class="cls-2" d="M130.72,64.11a.29.29,0,1,1-.29.29A.29.29,0,0,1,130.72,64.11Z"/><path class="cls-1" d="M130.72,64.11a.29.29,0,1,1-.29.29A.29.29,0,0,1,130.72,64.11Z"/><path class="cls-2" d="M130.09,64.77a.28.28,0,1,1,0,.56.28.28,0,1,1,0-.56Z"/><path class="cls-1" d="M130.09,64.77a.28.28,0,1,1,0,.56.28.28,0,1,1,0-.56Z"/><path class="cls-2" d="M129.47,65.42a.29.29,0,1,1-.28.28A.28.28,0,0,1,129.47,65.42Z"/><path class="cls-1" d="M129.47,65.42a.29.29,0,1,1-.28.28A.28.28,0,0,1,129.47,65.42Z"/><path class="cls-2" d="M129.62,66.2a.28.28,0,1,1-.28.28A.28.28,0,0,1,129.62,66.2Z"/><path class="cls-1" d="M129.62,66.2a.28.28,0,1,1-.28.28A.28.28,0,0,1,129.62,66.2Z"/><path class="cls-2" d="M129.44,67a.29.29,0,0,1,0,.57.29.29,0,0,1,0-.57Z"/><path class="cls-1" d="M129.44,67a.29.29,0,0,1,0,.57.29.29,0,0,1,0-.57Z"/><path class="cls-2" d="M129,67.59a.29.29,0,1,1-.28.28A.28.28,0,0,1,129,67.59Z"/><path class="cls-1" d="M129,67.59a.29.29,0,1,1-.28.28A.28.28,0,0,1,129,67.59Z"/><path class="cls-2" d="M128.26,68a.29.29,0,1,1,0,.57.29.29,0,0,1,0-.57Z"/><path class="cls-1" d="M128.26,68a.29.29,0,1,1,0,.57.29.29,0,0,1,0-.57Z"/><path class="cls-2" d="M127.47,68a.28.28,0,0,1,.29.28.29.29,0,0,1-.57,0A.28.28,0,0,1,127.47,68Z"/><path class="cls-1" d="M127.47,68a.28.28,0,0,1,.29.28.29.29,0,0,1-.57,0A.28.28,0,0,1,127.47,68Z"/><path class="cls-2" d="M126.73,67.74A.29.29,0,0,1,127,68a.29.29,0,0,1-.57,0A.29.29,0,0,1,126.73,67.74Z"/><path class="cls-1" d="M126.73,67.74A.29.29,0,0,1,127,68a.29.29,0,0,1-.57,0A.29.29,0,0,1,126.73,67.74Z"/><path class="cls-2" d="M126.18,67.18a.29.29,0,0,1,.28.28.29.29,0,0,1-.57,0A.29.29,0,0,1,126.18,67.18Z"/><path class="cls-1" d="M126.18,67.18a.29.29,0,0,1,.28.28.29.29,0,0,1-.57,0A.29.29,0,0,1,126.18,67.18Z"/><path class="cls-2" d="M125.9,66.44a.29.29,0,0,1,.28.28.29.29,0,0,1-.57,0A.29.29,0,0,1,125.9,66.44Z"/><path class="cls-1" d="M125.9,66.44a.29.29,0,0,1,.28.28.29.29,0,0,1-.57,0A.29.29,0,0,1,125.9,66.44Z"/><path class="cls-2" d="M125,66.21a.29.29,0,0,1,0,.57.29.29,0,0,1,0-.57Z"/><path class="cls-1" d="M125,66.21a.29.29,0,0,1,0,.57.29.29,0,0,1,0-.57Z"/><path class="cls-2" d="M124.15,66a.29.29,0,0,1,.28.28.29.29,0,0,1-.57,0A.29.29,0,0,1,124.15,66Z"/><path class="cls-1" d="M124.15,66a.29.29,0,0,1,.28.28.29.29,0,0,1-.57,0A.29.29,0,0,1,124.15,66Z"/><path class="cls-2" d="M123.27,65.76A.29.29,0,1,1,123,66,.29.29,0,0,1,123.27,65.76Z"/><path class="cls-1" d="M123.27,65.76A.29.29,0,1,1,123,66,.29.29,0,0,1,123.27,65.76Z"/><path class="cls-2" d="M122.4,65.54a.28.28,0,0,1,.28.28.29.29,0,0,1-.28.28.28.28,0,0,1-.28-.28A.27.27,0,0,1,122.4,65.54Z"/><path class="cls-1" d="M122.4,65.54a.28.28,0,0,1,.28.28.29.29,0,0,1-.28.28.28.28,0,0,1-.28-.28A.27.27,0,0,1,122.4,65.54Z"/><path class="cls-2" d="M122,66.22a.28.28,0,0,1,.28.28.28.28,0,0,1-.56,0A.28.28,0,0,1,122,66.22Z"/><path class="cls-1" d="M122,66.22a.28.28,0,0,1,.28.28.28.28,0,0,1-.56,0A.28.28,0,0,1,122,66.22Z"/><path class="cls-2" d="M121.48,66.81a.29.29,0,1,1-.28.28A.28.28,0,0,1,121.48,66.81Z"/><path class="cls-1" d="M121.48,66.81a.29.29,0,1,1-.28.28A.28.28,0,0,1,121.48,66.81Z"/><path class="cls-2" d="M120.86,67.3a.28.28,0,1,1-.29.28A.28.28,0,0,1,120.86,67.3Z"/><path class="cls-1" d="M120.86,67.3a.28.28,0,1,1-.29.28A.28.28,0,0,1,120.86,67.3Z"/><path class="cls-2" d="M120.15,67.65a.29.29,0,0,1,0,.57.29.29,0,0,1,0-.57Z"/><path class="cls-1" d="M120.15,67.65a.29.29,0,0,1,0,.57.29.29,0,0,1,0-.57Z"/><path class="cls-2" d="M119.39,67.87a.28.28,0,1,1-.28.28A.27.27,0,0,1,119.39,67.87Z"/><path class="cls-1" d="M119.39,67.87a.28.28,0,1,1-.28.28A.27.27,0,0,1,119.39,67.87Z"/><path class="cls-2" d="M119.39,68.77a.29.29,0,1,1-.28.28A.28.28,0,0,1,119.39,68.77Z"/><path class="cls-1" d="M119.39,68.77a.29.29,0,1,1-.28.28A.28.28,0,0,1,119.39,68.77Z"/><path class="cls-2" d="M119.39,69.67a.29.29,0,1,1-.28.29A.28.28,0,0,1,119.39,69.67Z"/><path class="cls-1" d="M119.39,69.67a.29.29,0,1,1-.28.29A.28.28,0,0,1,119.39,69.67Z"/><path class="cls-2" d="M119.39,70.58a.27.27,0,0,1,.28.28.28.28,0,0,1-.56,0A.27.27,0,0,1,119.39,70.58Z"/><path class="cls-1" d="M119.39,70.58a.27.27,0,0,1,.28.28.28.28,0,0,1-.56,0A.27.27,0,0,1,119.39,70.58Z"/><path class="cls-2" d="M119.39,71.48a.28.28,0,1,1-.28.28A.28.28,0,0,1,119.39,71.48Z"/><path class="cls-1" d="M119.39,71.48a.28.28,0,1,1-.28.28A.28.28,0,0,1,119.39,71.48Z"/><path class="cls-2" d="M119.86,72.12a.28.28,0,0,1,.28.28.29.29,0,0,1-.28.28.28.28,0,0,1-.28-.28A.27.27,0,0,1,119.86,72.12Z"/><path class="cls-1" d="M119.86,72.12a.28.28,0,0,1,.28.28.29.29,0,0,1-.28.28.28.28,0,0,1-.28-.28A.27.27,0,0,1,119.86,72.12Z"/><path class="cls-2" d="M119.86,72.9a.29.29,0,0,1,.28.29.28.28,0,0,1-.28.28.27.27,0,0,1-.28-.28A.28.28,0,0,1,119.86,72.9Z"/><path class="cls-1" d="M119.86,72.9a.29.29,0,0,1,.28.29.28.28,0,0,1-.28.28.27.27,0,0,1-.28-.28A.28.28,0,0,1,119.86,72.9Z"/><path class="cls-2" d="M119.39,73.54a.29.29,0,1,1-.28.28A.28.28,0,0,1,119.39,73.54Z"/><path class="cls-1" d="M119.39,73.54a.29.29,0,1,1-.28.28A.28.28,0,0,1,119.39,73.54Z"/><path class="cls-2" d="M119.39,74.44a.29.29,0,1,1-.28.29A.28.28,0,0,1,119.39,74.44Z"/><path class="cls-1" d="M119.39,74.44a.29.29,0,1,1-.28.29A.28.28,0,0,1,119.39,74.44Z"/><path class="cls-2" d="M119.39,75.35a.28.28,0,0,1,.28.28.28.28,0,0,1-.56,0A.28.28,0,0,1,119.39,75.35Z"/><path class="cls-1" d="M119.39,75.35a.28.28,0,0,1,.28.28.28.28,0,0,1-.56,0A.28.28,0,0,1,119.39,75.35Z"/><path class="cls-2" d="M120.18,75.35a.28.28,0,0,1,.28.28.28.28,0,1,1-.56,0A.28.28,0,0,1,120.18,75.35Z"/><path class="cls-1" d="M120.18,75.35a.28.28,0,0,1,.28.28.28.28,0,1,1-.56,0A.28.28,0,0,1,120.18,75.35Z"/><path class="cls-2" d="M121,75.35a.29.29,0,0,1,.28.28.28.28,0,0,1-.28.28.27.27,0,0,1-.28-.28A.28.28,0,0,1,121,75.35Z"/><path class="cls-1" d="M121,75.35a.29.29,0,0,1,.28.28.28.28,0,0,1-.28.28.27.27,0,0,1-.28-.28A.28.28,0,0,1,121,75.35Z"/><path class="cls-2" d="M121.76,75.35a.29.29,0,0,1,.28.28.28.28,0,0,1-.28.28.27.27,0,0,1-.28-.28A.28.28,0,0,1,121.76,75.35Z"/><path class="cls-1" d="M121.76,75.35a.29.29,0,0,1,.28.28.28.28,0,0,1-.28.28.27.27,0,0,1-.28-.28A.28.28,0,0,1,121.76,75.35Z"/><path class="cls-2" d="M122.55,75.35a.28.28,0,0,1,.28.28.28.28,0,0,1-.56,0A.28.28,0,0,1,122.55,75.35Z"/><path class="cls-1" d="M122.55,75.35a.28.28,0,0,1,.28.28.28.28,0,0,1-.56,0A.28.28,0,0,1,122.55,75.35Z"/><path class="cls-2" d="M123.34,75.35a.28.28,0,0,1,.28.28.28.28,0,0,1-.56,0A.28.28,0,0,1,123.34,75.35Z"/><path class="cls-1" d="M123.34,75.35a.28.28,0,0,1,.28.28.28.28,0,0,1-.56,0A.28.28,0,0,1,123.34,75.35Z"/><line class="cls-3" x1="123.26" y1="50.57" x2="123.26" y2="50.24"/><line class="cls-3" x1="123.26" y1="49.7" x2="123.26" y2="49.37"/><line class="cls-3" x1="122.99" y1="49.03" x2="122.78" y2="48.99"/><line class="cls-3" x1="122.26" y1="48.82" x2="122.05" y2="48.74"/><line class="cls-3" x1="121.57" y1="48.49" x2="121.38" y2="48.38"/><line class="cls-3" x1="120.94" y1="48.06" x2="120.77" y2="47.92"/><line class="cls-3" x1="120.38" y1="47.54" x2="120.24" y2="47.36"/><line class="cls-3" x1="119.92" y1="46.93" x2="119.8" y2="46.74"/><line class="cls-3" x1="119.56" y1="46.26" x2="119.47" y2="46.05"/><line class="cls-3" x1="119.31" y1="45.53" x2="119.26" y2="45.32"/><line class="cls-3" x1="119.17" y1="44.78" x2="119.16" y2="44.56"/><line class="cls-3" x1="119.16" y1="44.02" x2="119.18" y2="43.8"/><line class="cls-3" x1="119.27" y1="43.26" x2="119.32" y2="43.05"/><line class="cls-3" x1="119.5" y1="42.53" x2="119.58" y2="42.33"/><line class="cls-3" x1="119.46" y1="41.92" x2="119.2" y2="41.72"/><line class="cls-3" x1="118.7" y1="41.57" x2="118.49" y2="41.57"/><line class="cls-3" x1="117.99" y1="41.41" x2="117.81" y2="41.28"/><line class="cls-3" x1="117.5" y1="40.87" x2="117.44" y2="40.66"/><line class="cls-3" x1="117.44" y1="40.14" x2="117.5" y2="39.93"/><line class="cls-3" x1="117.81" y1="39.51" x2="117.98" y2="39.38"/><line class="cls-3" x1="118.48" y1="39.22" x2="118.7" y2="39.22"/><line class="cls-3" x1="119.19" y1="39.39" x2="119.37" y2="39.52"/><line class="cls-3" x1="119.67" y1="39.94" x2="119.73" y2="40.15"/><line class="cls-3" x1="120.04" y1="40.57" x2="120.3" y2="40.77"/><line class="cls-3" x1="120.74" y1="40.77" x2="121.55" y2="40.18"/><line class="cls-3" x1="122.03" y1="39.93" x2="122.98" y2="39.63"/><line class="cls-3" x1="123.24" y1="39.27" x2="123.24" y2="38.94"/><line class="cls-3" x1="123.24" y1="38.39" x2="123.24" y2="38.06"/><line class="cls-3" x1="123.24" y1="37.52" x2="123.24" y2="37.19"/><line class="cls-3" x1="123.24" y1="36.64" x2="123.23" y2="36.31"/><line class="cls-3" x1="123.23" y1="35.77" x2="123.23" y2="35.44"/><line class="cls-3" x1="123.23" y1="34.89" x2="123.23" y2="34.56"/><line class="cls-3" x1="122.98" y1="34.17" x2="121.39" y2="33.42"/><line class="cls-3" x1="120.93" y1="33.48" x2="120.67" y2="33.68"/><line class="cls-3" x1="120.25" y1="34.03" x2="120" y2="34.24"/><line class="cls-3" x1="119.57" y1="34.58" x2="119.32" y2="34.79"/><line class="cls-3" x1="118.89" y1="35.13" x2="118.64" y2="35.34"/><line class="cls-3" x1="118.45" y1="35.79" x2="118.47" y2="36.01"/><line class="cls-3" x1="118.39" y1="36.54" x2="118.32" y2="36.74"/><line class="cls-3" x1="118.03" y1="37.2" x2="117.88" y2="37.36"/><line class="cls-3" x1="117.44" y1="37.65" x2="117.23" y2="37.73"/><line class="cls-3" x1="116.71" y1="37.82" x2="116.49" y2="37.81"/><line class="cls-3" x1="115.97" y1="37.68" x2="115.77" y2="37.58"/><line class="cls-3" x1="115.36" y1="37.25" x2="115.22" y2="37.08"/><line class="cls-3" x1="114.97" y1="36.6" x2="114.92" y2="36.39"/><line class="cls-3" x1="114.89" y1="35.85" x2="114.92" y2="35.64"/><line class="cls-3" x1="115.12" y1="35.14" x2="115.24" y2="34.96"/><line class="cls-3" x1="115.62" y1="34.58" x2="115.8" y2="34.47"/><line class="cls-3" x1="116.3" y1="34.28" x2="116.52" y2="34.24"/><line class="cls-3" x1="117.05" y1="34.28" x2="117.27" y2="34.34"/><line class="cls-3" x1="117.74" y1="34.24" x2="117.99" y2="34.03"/><line class="cls-3" x1="118.42" y1="33.69" x2="118.67" y2="33.48"/><line class="cls-3" x1="119.1" y1="33.13" x2="119.35" y2="32.93"/><line class="cls-3" x1="119.77" y1="32.58" x2="120.03" y2="32.37"/><line class="cls-3" x1="120.13" y1="31.95" x2="120.05" y2="31.8"/><line class="cls-3" x1="119.87" y1="31.29" x2="119.83" y2="31.13"/><line class="cls-3" x1="119.73" y1="30.59" x2="119.71" y2="30.43"/><line class="cls-3" x1="119.71" y1="29.88" x2="119.72" y2="29.71"/><line class="cls-3" x1="119.81" y1="29.17" x2="119.85" y2="29.01"/><line class="cls-3" x1="120.02" y1="28.5" x2="120.09" y2="28.34"/><line class="cls-3" x1="120.35" y1="27.87" x2="120.44" y2="27.72"/><line class="cls-3" x1="120.77" y1="27.3" x2="120.89" y2="27.17"/><line class="cls-3" x1="121.29" y1="26.81" x2="121.42" y2="26.7"/><line class="cls-3" x1="121.88" y1="26.41" x2="122.03" y2="26.33"/><line class="cls-3" x1="122.53" y1="26.12" x2="122.69" y2="26.06"/><line class="cls-3" x1="123.22" y1="25.94" x2="123.39" y2="25.92"/><line class="cls-3" x1="123.93" y1="25.88" x2="124.1" y2="25.88"/><line class="cls-3" x1="124.64" y1="25.94" x2="124.8" y2="25.97"/><line class="cls-3" x1="125.33" y1="26.12" x2="125.48" y2="26.18"/><line class="cls-3" x1="125.98" y1="26.41" x2="126.12" y2="26.5"/><line class="cls-3" x1="126.57" y1="26.81" x2="126.69" y2="26.91"/><line class="cls-3" x1="127.08" y1="27.3" x2="127.19" y2="27.43"/><line class="cls-3" x1="127.51" y1="27.87" x2="127.59" y2="28.01"/><line class="cls-3" x1="127.83" y1="28.5" x2="127.9" y2="28.65"/><line class="cls-3" x1="128.05" y1="29.18" x2="128.08" y2="29.34"/><line class="cls-3" x1="128.15" y1="29.88" x2="128.15" y2="30.05"/><line class="cls-3" x1="128.13" y1="30.59" x2="128.1" y2="30.76"/><line class="cls-3" x1="127.98" y1="31.29" x2="127.93" y2="31.45"/><line class="cls-3" x1="127.73" y1="31.95" x2="127.65" y2="32.1"/><line class="cls-3" x1="127.36" y1="32.57" x2="127.26" y2="32.7"/><line class="cls-3" x1="126.9" y1="33.1" x2="126.78" y2="33.22"/><line class="cls-3" x1="126.36" y1="33.56" x2="126.22" y2="33.66"/><line class="cls-3" x1="125.74" y1="33.92" x2="125.59" y2="33.99"/><line class="cls-3" x1="125.08" y1="34.17" x2="124.91" y2="34.21"/><line class="cls-3" x1="124.65" y1="34.56" x2="124.65" y2="34.89"/><line class="cls-3" x1="124.65" y1="35.43" x2="124.66" y2="35.76"/><line class="cls-3" x1="124.66" y1="36.31" x2="124.66" y2="36.64"/><line class="cls-3" x1="124.66" y1="37.18" x2="124.66" y2="37.51"/><line class="cls-3" x1="124.66" y1="38.06" x2="124.66" y2="38.39"/><line class="cls-3" x1="124.66" y1="38.93" x2="124.66" y2="39.26"/><line class="cls-3" x1="124.93" y1="39.59" x2="125.07" y2="39.63"/><line class="cls-3" x1="125.59" y1="39.78" x2="125.72" y2="39.83"/><line class="cls-3" x1="126.22" y1="40.06" x2="126.34" y2="40.12"/><line class="cls-3" x1="126.8" y1="40.42" x2="126.92" y2="40.5"/><line class="cls-3" x1="127.33" y1="40.86" x2="127.42" y2="40.96"/><line class="cls-3" x1="127.78" y1="41.37" x2="127.87" y2="41.49"/><line class="cls-3" x1="128.17" y1="41.95" x2="128.23" y2="42.07"/><line class="cls-3" x1="128.46" y1="42.57" x2="128.51" y2="42.7"/><line class="cls-3" x1="128.66" y1="43.22" x2="128.69" y2="43.36"/><line class="cls-3" x1="128.77" y1="43.9" x2="128.78" y2="44.04"/><line class="cls-3" x1="128.78" y1="44.58" x2="128.77" y2="44.72"/><line class="cls-3" x1="128.69" y1="45.26" x2="128.66" y2="45.4"/><line class="cls-3" x1="128.51" y1="45.92" x2="128.46" y2="46.05"/><line class="cls-3" x1="128.24" y1="46.55" x2="128.17" y2="46.68"/><line class="cls-3" x1="127.87" y1="47.14" x2="127.79" y2="47.25"/><line class="cls-3" x1="127.44" y1="47.66" x2="127.34" y2="47.76"/><line class="cls-3" x1="126.93" y1="48.12" x2="126.81" y2="48.21"/><line class="cls-3" x1="126.36" y1="48.5" x2="126.24" y2="48.57"/><line class="cls-3" x1="125.74" y1="48.8" x2="125.61" y2="48.85"/><line class="cls-3" x1="125.08" y1="49" x2="124.95" y2="49.03"/><line class="cls-3" x1="124.68" y1="49.37" x2="124.68" y2="49.7"/><line class="cls-3" x1="124.68" y1="50.24" x2="124.68" y2="50.57"/><line class="cls-3" x1="124.95" y1="50.85" x2="125.17" y2="50.85"/><line class="cls-3" x1="125.72" y1="50.85" x2="125.94" y2="50.85"/><line class="cls-3" x1="126.48" y1="50.85" x2="126.7" y2="50.85"/><path class="cls-4" d="M123.26,50.57a.28.28,0,0,1,0,.55.28.28,0,1,1,0-.55Z"/><path class="cls-3" d="M123.26,50.57a.28.28,0,0,1,0,.55.28.28,0,1,1,0-.55Z"/><path class="cls-4" d="M123.26,49.7a.27.27,0,1,1,0,.54.27.27,0,1,1,0-.54Z"/><path class="cls-3" d="M123.26,49.7a.27.27,0,1,1,0,.54.27.27,0,1,1,0-.54Z"/><path class="cls-4" d="M123.26,48.83a.26.26,0,0,1,.27.27.28.28,0,0,1-.27.27.28.28,0,0,1-.28-.27A.27.27,0,0,1,123.26,48.83Z"/><path class="cls-3" d="M123.26,48.83a.26.26,0,0,1,.27.27.28.28,0,0,1-.27.27.28.28,0,0,1-.28-.27A.27.27,0,0,1,123.26,48.83Z"/><path class="cls-4" d="M122.51,48.65a.27.27,0,0,1,.27.28.27.27,0,0,1-.54,0A.27.27,0,0,1,122.51,48.65Z"/><path class="cls-3" d="M122.51,48.65a.27.27,0,0,1,.27.28.27.27,0,0,1-.54,0A.27.27,0,0,1,122.51,48.65Z"/><path class="cls-4" d="M121.8,48.36a.28.28,0,1,1-.27.27A.27.27,0,0,1,121.8,48.36Z"/><path class="cls-3" d="M121.8,48.36a.28.28,0,1,1-.27.27A.27.27,0,0,1,121.8,48.36Z"/><path class="cls-4" d="M121.14,48a.28.28,0,0,1,.28.28.28.28,0,0,1-.55,0A.28.28,0,0,1,121.14,48Z"/><path class="cls-3" d="M121.14,48a.28.28,0,0,1,.28.28.28.28,0,0,1-.55,0A.28.28,0,0,1,121.14,48Z"/><path class="cls-4" d="M120.56,47.47a.27.27,0,1,1,0,.54.27.27,0,0,1,0-.54Z"/><path class="cls-3" d="M120.56,47.47a.27.27,0,1,1,0,.54.27.27,0,0,1,0-.54Z"/><path class="cls-4" d="M120.06,46.89a.27.27,0,1,1,0,.54.27.27,0,0,1,0-.54Z"/><path class="cls-3" d="M120.06,46.89a.27.27,0,1,1,0,.54.27.27,0,0,1,0-.54Z"/><path class="cls-4" d="M119.66,46.23a.28.28,0,0,1,.27.28.27.27,0,1,1-.54,0A.28.28,0,0,1,119.66,46.23Z"/><path class="cls-3" d="M119.66,46.23a.28.28,0,0,1,.27.28.27.27,0,1,1-.54,0A.28.28,0,0,1,119.66,46.23Z"/><path class="cls-4" d="M119.37,45.53a.27.27,0,1,1-.27.27A.27.27,0,0,1,119.37,45.53Z"/><path class="cls-3" d="M119.37,45.53a.27.27,0,1,1-.27.27A.27.27,0,0,1,119.37,45.53Z"/><path class="cls-4" d="M119.19,44.78a.28.28,0,1,1,0,.55.28.28,0,0,1,0-.55Z"/><path class="cls-3" d="M119.19,44.78a.28.28,0,1,1,0,.55.28.28,0,0,1,0-.55Z"/><path class="cls-4" d="M119.14,44a.27.27,0,1,1,0,.54.27.27,0,1,1,0-.54Z"/><path class="cls-3" d="M119.14,44a.27.27,0,1,1,0,.54.27.27,0,1,1,0-.54Z"/><path class="cls-4" d="M119.2,43.26a.27.27,0,1,1,0,.54.27.27,0,0,1,0-.54Z"/><path class="cls-3" d="M119.2,43.26a.27.27,0,1,1,0,.54.27.27,0,0,1,0-.54Z"/><path class="cls-4" d="M119.39,42.51a.27.27,0,0,1,.27.27.28.28,0,0,1-.27.28.29.29,0,0,1-.28-.28A.28.28,0,0,1,119.39,42.51Z"/><path class="cls-3" d="M119.39,42.51a.27.27,0,0,1,.27.27.28.28,0,0,1-.27.28.29.29,0,0,1-.28-.28A.28.28,0,0,1,119.39,42.51Z"/><path class="cls-4" d="M119.69,41.81a.27.27,0,1,1,0,.54.27.27,0,1,1,0-.54Z"/><path class="cls-3" d="M119.69,41.81a.27.27,0,1,1,0,.54.27.27,0,1,1,0-.54Z"/><path class="cls-4" d="M119,41.29a.28.28,0,0,1,0,.55.28.28,0,1,1,0-.55Z"/><path class="cls-3" d="M119,41.29a.28.28,0,0,1,0,.55.28.28,0,1,1,0-.55Z"/><path class="cls-4" d="M118.21,41.3a.28.28,0,0,1,.28.27.29.29,0,0,1-.28.28.28.28,0,0,1-.27-.28A.27.27,0,0,1,118.21,41.3Z"/><path class="cls-3" d="M118.21,41.3a.28.28,0,0,1,.28.27.29.29,0,0,1-.28.28.28.28,0,0,1-.27-.28A.27.27,0,0,1,118.21,41.3Z"/><path class="cls-4" d="M117.59,40.85a.28.28,0,1,1-.27.28A.27.27,0,0,1,117.59,40.85Z"/><path class="cls-3" d="M117.59,40.85a.28.28,0,1,1-.27.28A.27.27,0,0,1,117.59,40.85Z"/><path class="cls-4" d="M117.35,40.13a.27.27,0,1,1-.27.27A.27.27,0,0,1,117.35,40.13Z"/><path class="cls-3" d="M117.35,40.13a.27.27,0,1,1-.27.27A.27.27,0,0,1,117.35,40.13Z"/><path class="cls-4" d="M117.59,39.4a.27.27,0,1,1,0,.54.27.27,0,1,1,0-.54Z"/><path class="cls-3" d="M117.59,39.4a.27.27,0,1,1,0,.54.27.27,0,1,1,0-.54Z"/><path class="cls-4" d="M118.21,39a.27.27,0,0,1,.27.27.28.28,0,0,1-.27.28.29.29,0,0,1-.28-.28A.28.28,0,0,1,118.21,39Z"/><path class="cls-3" d="M118.21,39a.27.27,0,0,1,.27.27.28.28,0,0,1-.27.28.29.29,0,0,1-.28-.28A.28.28,0,0,1,118.21,39Z"/><path class="cls-4" d="M119,39a.29.29,0,0,1,.28.28.28.28,0,0,1-.28.27.27.27,0,0,1-.27-.27A.28.28,0,0,1,119,39Z"/><path class="cls-3" d="M119,39a.29.29,0,0,1,.28.28.28.28,0,0,1-.28.27.27.27,0,0,1-.27-.27A.28.28,0,0,1,119,39Z"/><path class="cls-4" d="M119.59,39.41a.27.27,0,0,1,.27.27.26.26,0,0,1-.27.27.27.27,0,0,1-.28-.27A.28.28,0,0,1,119.59,39.41Z"/><path class="cls-3" d="M119.59,39.41a.27.27,0,0,1,.27.27.26.26,0,0,1-.27.27.27.27,0,0,1-.28-.27A.28.28,0,0,1,119.59,39.41Z"/><path class="cls-4" d="M119.82,40.14a.28.28,0,0,1,0,.55.28.28,0,1,1,0-.55Z"/><path class="cls-3" d="M119.82,40.14a.28.28,0,0,1,0,.55.28.28,0,1,1,0-.55Z"/><path class="cls-4" d="M120.52,40.65a.29.29,0,0,1,.28.28.28.28,0,0,1-.28.27.27.27,0,0,1-.27-.27A.28.28,0,0,1,120.52,40.65Z"/><path class="cls-3" d="M120.52,40.65a.29.29,0,0,1,.28.28.28.28,0,0,1-.28.27.27.27,0,0,1-.27-.27A.28.28,0,0,1,120.52,40.65Z"/><path class="cls-4" d="M121.77,39.74a.28.28,0,1,1,0,.55.28.28,0,0,1,0-.55Z"/><path class="cls-3" d="M121.77,39.74a.28.28,0,1,1,0,.55.28.28,0,0,1,0-.55Z"/><path class="cls-4" d="M123.24,39.27a.27.27,0,1,1,0,.54.27.27,0,0,1,0-.54Z"/><path class="cls-3" d="M123.24,39.27a.27.27,0,1,1,0,.54.27.27,0,0,1,0-.54Z"/><path class="cls-4" d="M123.24,38.39a.28.28,0,1,1-.27.28A.27.27,0,0,1,123.24,38.39Z"/><path class="cls-3" d="M123.24,38.39a.28.28,0,1,1-.27.28A.27.27,0,0,1,123.24,38.39Z"/><path class="cls-4" d="M123.24,37.52a.27.27,0,0,1,0,.54.27.27,0,1,1,0-.54Z"/><path class="cls-3" d="M123.24,37.52a.27.27,0,0,1,0,.54.27.27,0,1,1,0-.54Z"/><path class="cls-4" d="M123.24,36.64a.27.27,0,0,1,.27.28.28.28,0,0,1-.27.27.28.28,0,0,1-.28-.27A.28.28,0,0,1,123.24,36.64Z"/><path class="cls-3" d="M123.24,36.64a.27.27,0,0,1,.27.28.28.28,0,0,1-.27.27.28.28,0,0,1-.28-.27A.28.28,0,0,1,123.24,36.64Z"/><path class="cls-4" d="M123.23,35.77a.27.27,0,1,1,0,.54.27.27,0,1,1,0-.54Z"/><path class="cls-3" d="M123.23,35.77a.27.27,0,1,1,0,.54.27.27,0,1,1,0-.54Z"/><path class="cls-4" d="M123.23,34.89a.27.27,0,0,1,.27.28.27.27,0,0,1-.54,0A.27.27,0,0,1,123.23,34.89Z"/><path class="cls-3" d="M123.23,34.89a.27.27,0,0,1,.27.28.27.27,0,0,1-.54,0A.27.27,0,0,1,123.23,34.89Z"/><path class="cls-4" d="M123.23,34a.28.28,0,0,1,.27.28.27.27,0,0,1-.27.27.28.28,0,0,1-.28-.27A.29.29,0,0,1,123.23,34Z"/><path class="cls-3" d="M123.23,34a.28.28,0,0,1,.27.28.27.27,0,0,1-.27.27.28.28,0,0,1-.28-.27A.29.29,0,0,1,123.23,34Z"/><path class="cls-4" d="M121.14,33a.27.27,0,0,1,.27.27.27.27,0,1,1-.54,0A.27.27,0,0,1,121.14,33Z"/><path class="cls-3" d="M121.14,33a.27.27,0,0,1,.27.27.27.27,0,1,1-.54,0A.27.27,0,0,1,121.14,33Z"/><path class="cls-4" d="M120.46,33.58a.28.28,0,0,1,.28.27.28.28,0,0,1-.28.28.27.27,0,0,1-.27-.28A.28.28,0,0,1,120.46,33.58Z"/><path class="cls-3" d="M120.46,33.58a.28.28,0,0,1,.28.27.28.28,0,0,1-.28.28.27.27,0,0,1-.27-.28A.28.28,0,0,1,120.46,33.58Z"/><path class="cls-4" d="M119.78,34.13a.29.29,0,0,1,.28.28.28.28,0,0,1-.28.27.27.27,0,0,1-.27-.27A.28.28,0,0,1,119.78,34.13Z"/><path class="cls-3" d="M119.78,34.13a.29.29,0,0,1,.28.28.28.28,0,0,1-.28.27.27.27,0,0,1-.27-.27A.28.28,0,0,1,119.78,34.13Z"/><path class="cls-4" d="M119.11,34.69a.27.27,0,0,1,.27.27.28.28,0,0,1-.55,0A.27.27,0,0,1,119.11,34.69Z"/><path class="cls-3" d="M119.11,34.69a.27.27,0,0,1,.27.27.28.28,0,0,1-.55,0A.27.27,0,0,1,119.11,34.69Z"/><path class="cls-4" d="M118.43,35.24a.28.28,0,0,1,0,.55.28.28,0,1,1,0-.55Z"/><path class="cls-3" d="M118.43,35.24a.28.28,0,0,1,0,.55.28.28,0,1,1,0-.55Z"/><path class="cls-4" d="M118.48,36a.27.27,0,1,1-.27.27A.27.27,0,0,1,118.48,36Z"/><path class="cls-3" d="M118.48,36a.27.27,0,1,1-.27.27A.27.27,0,0,1,118.48,36Z"/><path class="cls-4" d="M118.22,36.73a.27.27,0,0,1,.28.27.28.28,0,1,1-.55,0A.27.27,0,0,1,118.22,36.73Z"/><path class="cls-3" d="M118.22,36.73a.27.27,0,0,1,.28.27.28.28,0,1,1-.55,0A.27.27,0,0,1,118.22,36.73Z"/><path class="cls-4" d="M117.69,37.28a.27.27,0,0,1,.27.27.27.27,0,1,1-.54,0A.27.27,0,0,1,117.69,37.28Z"/><path class="cls-3" d="M117.69,37.28a.27.27,0,0,1,.27.27.27.27,0,1,1-.54,0A.27.27,0,0,1,117.69,37.28Z"/><path class="cls-4" d="M117,37.56a.28.28,0,1,1-.27.27A.27.27,0,0,1,117,37.56Z"/><path class="cls-3" d="M117,37.56a.28.28,0,1,1-.27.27A.27.27,0,0,1,117,37.56Z"/><path class="cls-4" d="M116.21,37.53a.27.27,0,1,1,0,.54.27.27,0,0,1,0-.54Z"/><path class="cls-3" d="M116.21,37.53a.27.27,0,1,1,0,.54.27.27,0,0,1,0-.54Z"/><path class="cls-4" d="M115.53,37.19a.27.27,0,1,1,0,.54.27.27,0,1,1,0-.54Z"/><path class="cls-3" d="M115.53,37.19a.27.27,0,1,1,0,.54.27.27,0,1,1,0-.54Z"/><path class="cls-4" d="M115.05,36.59a.28.28,0,0,1,.27.28.28.28,0,0,1-.27.27.27.27,0,0,1-.28-.27A.28.28,0,0,1,115.05,36.59Z"/><path class="cls-3" d="M115.05,36.59a.28.28,0,0,1,.27.28.28.28,0,0,1-.27.27.27.27,0,0,1-.28-.27A.28.28,0,0,1,115.05,36.59Z"/><path class="cls-4" d="M114.85,35.85a.28.28,0,0,1,.27.28.28.28,0,0,1-.55,0A.28.28,0,0,1,114.85,35.85Z"/><path class="cls-3" d="M114.85,35.85a.28.28,0,0,1,.27.28.28.28,0,0,1-.55,0A.28.28,0,0,1,114.85,35.85Z"/><path class="cls-4" d="M115,35.1a.27.27,0,1,1,0,.54.27.27,0,1,1,0-.54Z"/><path class="cls-3" d="M115,35.1a.27.27,0,1,1,0,.54.27.27,0,1,1,0-.54Z"/><path class="cls-4" d="M115.39,34.46a.27.27,0,1,1,0,.54.27.27,0,1,1,0-.54Z"/><path class="cls-3" d="M115.39,34.46a.27.27,0,1,1,0,.54.27.27,0,1,1,0-.54Z"/><path class="cls-4" d="M116,34a.29.29,0,0,1,.28.28.28.28,0,0,1-.28.27.27.27,0,0,1-.27-.27A.28.28,0,0,1,116,34Z"/><path class="cls-3" d="M116,34a.29.29,0,0,1,.28.28.28.28,0,0,1-.28.27.27.27,0,0,1-.27-.27A.28.28,0,0,1,116,34Z"/><path class="cls-4" d="M116.79,33.93a.28.28,0,1,1-.27.28A.27.27,0,0,1,116.79,33.93Z"/><path class="cls-3" d="M116.79,33.93a.28.28,0,1,1-.27.28A.27.27,0,0,1,116.79,33.93Z"/><path class="cls-4" d="M117.53,34.14a.28.28,0,0,1,0,.55.28.28,0,1,1,0-.55Z"/><path class="cls-3" d="M117.53,34.14a.28.28,0,0,1,0,.55.28.28,0,1,1,0-.55Z"/><path class="cls-4" d="M118.21,33.59a.27.27,0,0,1,0,.54.27.27,0,1,1,0-.54Z"/><path class="cls-3" d="M118.21,33.59a.27.27,0,0,1,0,.54.27.27,0,1,1,0-.54Z"/><path class="cls-4" d="M118.88,33a.28.28,0,1,1,0,.55.28.28,0,0,1,0-.55Z"/><path class="cls-3" d="M118.88,33a.28.28,0,1,1,0,.55.28.28,0,0,1,0-.55Z"/><path class="cls-4" d="M119.56,32.48a.28.28,0,0,1,.28.27.29.29,0,0,1-.28.28.28.28,0,0,1-.27-.28A.27.27,0,0,1,119.56,32.48Z"/><path class="cls-3" d="M119.56,32.48a.28.28,0,0,1,.28.27.29.29,0,0,1-.28.28.28.28,0,0,1-.27-.28A.27.27,0,0,1,119.56,32.48Z"/><path class="cls-4" d="M120.24,31.92a.28.28,0,0,1,.27.28.27.27,0,1,1-.54,0A.28.28,0,0,1,120.24,31.92Z"/><path class="cls-3" d="M120.24,31.92a.28.28,0,0,1,.27.28.27.27,0,1,1-.54,0A.28.28,0,0,1,120.24,31.92Z"/><path class="cls-4" d="M119.94,31.28a.28.28,0,0,1,.28.27.29.29,0,0,1-.28.28.28.28,0,0,1-.27-.28A.27.27,0,0,1,119.94,31.28Z"/><path class="cls-3" d="M119.94,31.28a.28.28,0,0,1,.28.27.29.29,0,0,1-.28.28.28.28,0,0,1-.27-.28A.27.27,0,0,1,119.94,31.28Z"/><path class="cls-4" d="M119.75,30.59a.27.27,0,0,1,.28.27.28.28,0,1,1-.55,0A.27.27,0,0,1,119.75,30.59Z"/><path class="cls-3" d="M119.75,30.59a.27.27,0,0,1,.28.27.28.28,0,1,1-.55,0A.27.27,0,0,1,119.75,30.59Z"/><path class="cls-4" d="M119.69,29.88a.27.27,0,0,1,.27.27.28.28,0,0,1-.27.28.29.29,0,0,1-.28-.28A.28.28,0,0,1,119.69,29.88Z"/><path class="cls-3" d="M119.69,29.88a.27.27,0,0,1,.27.27.28.28,0,0,1-.27.28.29.29,0,0,1-.28-.28A.28.28,0,0,1,119.69,29.88Z"/><path class="cls-4" d="M119.74,29.16a.28.28,0,0,1,.27.28.27.27,0,0,1-.54,0A.28.28,0,0,1,119.74,29.16Z"/><path class="cls-3" d="M119.74,29.16a.28.28,0,0,1,.27.28.27.27,0,0,1-.54,0A.28.28,0,0,1,119.74,29.16Z"/><path class="cls-4" d="M119.91,28.47a.28.28,0,0,1,.27.28.27.27,0,0,1-.54,0A.28.28,0,0,1,119.91,28.47Z"/><path class="cls-3" d="M119.91,28.47a.28.28,0,0,1,.27.28.27.27,0,0,1-.54,0A.28.28,0,0,1,119.91,28.47Z"/><path class="cls-4" d="M120.2,27.82a.27.27,0,0,1,.27.27.28.28,0,0,1-.27.28.29.29,0,0,1-.28-.28A.28.28,0,0,1,120.2,27.82Z"/><path class="cls-3" d="M120.2,27.82a.27.27,0,0,1,.27.27.28.28,0,0,1-.27.28.29.29,0,0,1-.28-.28A.28.28,0,0,1,120.2,27.82Z"/><path class="cls-4" d="M120.59,27.22a.28.28,0,0,1,.27.27.27.27,0,0,1-.27.28.28.28,0,0,1-.28-.28A.28.28,0,0,1,120.59,27.22Z"/><path class="cls-3" d="M120.59,27.22a.28.28,0,0,1,.27.27.27.27,0,0,1-.27.28.28.28,0,0,1-.28-.28A.28.28,0,0,1,120.59,27.22Z"/><path class="cls-4" d="M121.07,26.7a.27.27,0,0,1,.28.27.28.28,0,1,1-.55,0A.27.27,0,0,1,121.07,26.7Z"/><path class="cls-3" d="M121.07,26.7a.27.27,0,0,1,.28.27.28.28,0,1,1-.55,0A.27.27,0,0,1,121.07,26.7Z"/><path class="cls-4" d="M121.64,26.26a.28.28,0,0,1,.27.28.27.27,0,0,1-.54,0A.28.28,0,0,1,121.64,26.26Z"/><path class="cls-3" d="M121.64,26.26a.28.28,0,0,1,.27.28.27.27,0,0,1-.54,0A.28.28,0,0,1,121.64,26.26Z"/><path class="cls-4" d="M122.27,25.93a.28.28,0,1,1-.27.27A.27.27,0,0,1,122.27,25.93Z"/><path class="cls-3" d="M122.27,25.93a.28.28,0,1,1-.27.27A.27.27,0,0,1,122.27,25.93Z"/><path class="cls-4" d="M123,25.71a.27.27,0,0,1,.27.27.27.27,0,1,1-.54,0A.27.27,0,0,1,123,25.71Z"/><path class="cls-3" d="M123,25.71a.27.27,0,0,1,.27.27.27.27,0,1,1-.54,0A.27.27,0,0,1,123,25.71Z"/><path class="cls-4" d="M123.66,25.6a.28.28,0,0,1,.27.28.28.28,0,0,1-.55,0A.28.28,0,0,1,123.66,25.6Z"/><path class="cls-3" d="M123.66,25.6a.28.28,0,0,1,.27.28.28.28,0,0,1-.55,0A.28.28,0,0,1,123.66,25.6Z"/><path class="cls-4" d="M124.37,25.61a.28.28,0,0,1,.27.28.27.27,0,1,1-.54,0A.28.28,0,0,1,124.37,25.61Z"/><path class="cls-3" d="M124.37,25.61a.28.28,0,0,1,.27.28.27.27,0,1,1-.54,0A.28.28,0,0,1,124.37,25.61Z"/><path class="cls-4" d="M125.07,25.75a.28.28,0,1,1-.27.27A.27.27,0,0,1,125.07,25.75Z"/><path class="cls-3" d="M125.07,25.75a.28.28,0,1,1-.27.27A.27.27,0,0,1,125.07,25.75Z"/><path class="cls-4" d="M125.74,26a.27.27,0,0,1,.27.28.27.27,0,0,1-.54,0A.27.27,0,0,1,125.74,26Z"/><path class="cls-3" d="M125.74,26a.27.27,0,0,1,.27.28.27.27,0,0,1-.54,0A.27.27,0,0,1,125.74,26Z"/><path class="cls-4" d="M126.36,26.36a.27.27,0,0,1,.27.27.28.28,0,1,1-.55,0A.27.27,0,0,1,126.36,26.36Z"/><path class="cls-3" d="M126.36,26.36a.27.27,0,0,1,.27.27.28.28,0,1,1-.55,0A.27.27,0,0,1,126.36,26.36Z"/><path class="cls-4" d="M126.91,26.81a.28.28,0,0,1,.27.28.28.28,0,0,1-.55,0A.28.28,0,0,1,126.91,26.81Z"/><path class="cls-3" d="M126.91,26.81a.28.28,0,0,1,.27.28.28.28,0,0,1-.55,0A.28.28,0,0,1,126.91,26.81Z"/><path class="cls-4" d="M127.37,27.36a.27.27,0,1,1-.27.27A.27.27,0,0,1,127.37,27.36Z"/><path class="cls-3" d="M127.37,27.36a.27.27,0,1,1-.27.27A.27.27,0,0,1,127.37,27.36Z"/><path class="cls-4" d="M127.74,28a.28.28,0,0,1,0,.55.28.28,0,1,1,0-.55Z"/><path class="cls-3" d="M127.74,28a.28.28,0,0,1,0,.55.28.28,0,1,1,0-.55Z"/><path class="cls-4" d="M128,28.64a.27.27,0,1,1,0,.54.27.27,0,1,1,0-.54Z"/><path class="cls-3" d="M128,28.64a.27.27,0,1,1,0,.54.27.27,0,1,1,0-.54Z"/><path class="cls-4" d="M128.14,29.34a.27.27,0,1,1-.28.27A.27.27,0,0,1,128.14,29.34Z"/><path class="cls-3" d="M128.14,29.34a.27.27,0,1,1-.28.27A.27.27,0,0,1,128.14,29.34Z"/><path class="cls-4" d="M128.16,30.05a.27.27,0,0,1,.27.27.27.27,0,1,1-.54,0A.27.27,0,0,1,128.16,30.05Z"/><path class="cls-3" d="M128.16,30.05a.27.27,0,0,1,.27.27.27.27,0,1,1-.54,0A.27.27,0,0,1,128.16,30.05Z"/><path class="cls-4" d="M128.07,30.75a.28.28,0,0,1,.27.28.28.28,0,0,1-.27.27.27.27,0,0,1-.28-.27A.28.28,0,0,1,128.07,30.75Z"/><path class="cls-3" d="M128.07,30.75a.28.28,0,0,1,.27.28.28.28,0,0,1-.27.27.27.27,0,0,1-.28-.27A.28.28,0,0,1,128.07,30.75Z"/><path class="cls-4" d="M127.85,31.43a.29.29,0,0,1,.28.28.28.28,0,0,1-.28.27.27.27,0,0,1-.27-.27A.28.28,0,0,1,127.85,31.43Z"/><path class="cls-3" d="M127.85,31.43a.29.29,0,0,1,.28.28.28.28,0,0,1-.28.27.27.27,0,0,1-.27-.27A.28.28,0,0,1,127.85,31.43Z"/><path class="cls-4" d="M127.53,32.07a.28.28,0,0,1,.27.27.28.28,0,1,1-.55,0A.28.28,0,0,1,127.53,32.07Z"/><path class="cls-3" d="M127.53,32.07a.28.28,0,0,1,.27.27.28.28,0,1,1-.55,0A.28.28,0,0,1,127.53,32.07Z"/><path class="cls-4" d="M127.1,32.65a.27.27,0,1,1-.27.27A.27.27,0,0,1,127.1,32.65Z"/><path class="cls-3" d="M127.1,32.65a.27.27,0,1,1-.27.27A.27.27,0,0,1,127.1,32.65Z"/><path class="cls-4" d="M126.58,33.14a.27.27,0,1,1-.27.27A.27.27,0,0,1,126.58,33.14Z"/><path class="cls-3" d="M126.58,33.14a.27.27,0,1,1-.27.27A.27.27,0,0,1,126.58,33.14Z"/><path class="cls-4" d="M126,33.53a.28.28,0,0,1,.27.28.27.27,0,1,1-.54,0A.28.28,0,0,1,126,33.53Z"/><path class="cls-3" d="M126,33.53a.28.28,0,0,1,.27.28.27.27,0,1,1-.54,0A.28.28,0,0,1,126,33.53Z"/><path class="cls-4" d="M125.34,33.83a.28.28,0,1,1-.27.27A.27.27,0,0,1,125.34,33.83Z"/><path class="cls-3" d="M125.34,33.83a.28.28,0,1,1-.27.27A.27.27,0,0,1,125.34,33.83Z"/><path class="cls-4" d="M124.65,34a.28.28,0,1,1-.27.28A.27.27,0,0,1,124.65,34Z"/><path class="cls-3" d="M124.65,34a.28.28,0,1,1-.27.28A.27.27,0,0,1,124.65,34Z"/><path class="cls-4" d="M124.65,34.89a.27.27,0,1,1,0,.54.27.27,0,1,1,0-.54Z"/><path class="cls-3" d="M124.65,34.89a.27.27,0,1,1,0,.54.27.27,0,1,1,0-.54Z"/><path class="cls-4" d="M124.66,35.76a.28.28,0,1,1-.28.28A.27.27,0,0,1,124.66,35.76Z"/><path class="cls-3" d="M124.66,35.76a.28.28,0,1,1-.28.28A.27.27,0,0,1,124.66,35.76Z"/><path class="cls-4" d="M124.66,36.64a.27.27,0,0,1,0,.54.27.27,0,1,1,0-.54Z"/><path class="cls-3" d="M124.66,36.64a.27.27,0,0,1,0,.54.27.27,0,1,1,0-.54Z"/><path class="cls-4" d="M124.66,37.51a.28.28,0,1,1-.27.28A.27.27,0,0,1,124.66,37.51Z"/><path class="cls-3" d="M124.66,37.51a.28.28,0,1,1-.27.28A.27.27,0,0,1,124.66,37.51Z"/><path class="cls-4" d="M124.66,38.39a.27.27,0,1,1,0,.54.27.27,0,0,1,0-.54Z"/><path class="cls-3" d="M124.66,38.39a.27.27,0,1,1,0,.54.27.27,0,0,1,0-.54Z"/><path class="cls-4" d="M124.67,39.26a.28.28,0,1,1-.28.28A.27.27,0,0,1,124.67,39.26Z"/><path class="cls-3" d="M124.67,39.26a.28.28,0,1,1-.28.28A.27.27,0,0,1,124.67,39.26Z"/><path class="cls-4" d="M125.34,39.41a.28.28,0,0,1,0,.55.28.28,0,1,1,0-.55Z"/><path class="cls-3" d="M125.34,39.41a.28.28,0,0,1,0,.55.28.28,0,1,1,0-.55Z"/><path class="cls-4" d="M126,39.65a.28.28,0,1,1-.27.27A.27.27,0,0,1,126,39.65Z"/><path class="cls-3" d="M126,39.65a.28.28,0,1,1-.27.27A.27.27,0,0,1,126,39.65Z"/><path class="cls-4" d="M126.58,40a.27.27,0,0,1,.28.28.28.28,0,0,1-.55,0A.27.27,0,0,1,126.58,40Z"/><path class="cls-3" d="M126.58,40a.27.27,0,0,1,.28.28.28.28,0,0,1-.55,0A.27.27,0,0,1,126.58,40Z"/><path class="cls-4" d="M127.13,40.39a.29.29,0,0,1,.28.28.28.28,0,0,1-.28.27.27.27,0,0,1-.27-.27A.28.28,0,0,1,127.13,40.39Z"/><path class="cls-3" d="M127.13,40.39a.29.29,0,0,1,.28.28.28.28,0,0,1-.28.27.27.27,0,0,1-.27-.27A.28.28,0,0,1,127.13,40.39Z"/><path class="cls-4" d="M127.62,40.88a.27.27,0,0,1,.27.27.27.27,0,1,1-.54,0A.27.27,0,0,1,127.62,40.88Z"/><path class="cls-3" d="M127.62,40.88a.27.27,0,0,1,.27.27.27.27,0,1,1-.54,0A.27.27,0,0,1,127.62,40.88Z"/><path class="cls-4" d="M128,41.43a.28.28,0,1,1,0,.55.28.28,0,0,1,0-.55Z"/><path class="cls-3" d="M128,41.43a.28.28,0,1,1,0,.55.28.28,0,0,1,0-.55Z"/><path class="cls-4" d="M128.36,42a.27.27,0,1,1,0,.54.27.27,0,1,1,0-.54Z"/><path class="cls-3" d="M128.36,42a.27.27,0,1,1,0,.54.27.27,0,1,1,0-.54Z"/><path class="cls-4" d="M128.6,42.68a.28.28,0,0,1,.28.27.29.29,0,0,1-.28.28.28.28,0,0,1-.27-.28A.27.27,0,0,1,128.6,42.68Z"/><path class="cls-3" d="M128.6,42.68a.28.28,0,0,1,.28.27.29.29,0,0,1-.28.28.28.28,0,0,1-.27-.28A.27.27,0,0,1,128.6,42.68Z"/><path class="cls-4" d="M128.75,43.35a.28.28,0,1,1-.27.27A.27.27,0,0,1,128.75,43.35Z"/><path class="cls-3" d="M128.75,43.35a.28.28,0,1,1-.27.27A.27.27,0,0,1,128.75,43.35Z"/><path class="cls-4" d="M128.8,44a.27.27,0,1,1-.27.27A.27.27,0,0,1,128.8,44Z"/><path class="cls-3" d="M128.8,44a.27.27,0,1,1-.27.27A.27.27,0,0,1,128.8,44Z"/><path class="cls-4" d="M128.75,44.72A.28.28,0,0,1,129,45a.27.27,0,1,1-.54,0A.28.28,0,0,1,128.75,44.72Z"/><path class="cls-3" d="M128.75,44.72A.28.28,0,0,1,129,45a.27.27,0,1,1-.54,0A.28.28,0,0,1,128.75,44.72Z"/><path class="cls-4" d="M128.61,45.4a.27.27,0,1,1,0,.54.27.27,0,1,1,0-.54Z"/><path class="cls-3" d="M128.61,45.4a.27.27,0,1,1,0,.54.27.27,0,1,1,0-.54Z"/><path class="cls-4" d="M128.37,46a.27.27,0,0,1,.27.27.28.28,0,0,1-.27.28.29.29,0,0,1-.28-.28A.28.28,0,0,1,128.37,46Z"/><path class="cls-3" d="M128.37,46a.27.27,0,0,1,.27.27.28.28,0,0,1-.27.28.29.29,0,0,1-.28-.28A.28.28,0,0,1,128.37,46Z"/><path class="cls-4" d="M128,46.64a.28.28,0,1,1-.27.28A.27.27,0,0,1,128,46.64Z"/><path class="cls-3" d="M128,46.64a.28.28,0,1,1-.27.28A.27.27,0,0,1,128,46.64Z"/><path class="cls-4" d="M127.63,47.2a.27.27,0,0,1,0,.54.27.27,0,1,1,0-.54Z"/><path class="cls-3" d="M127.63,47.2a.27.27,0,0,1,0,.54.27.27,0,1,1,0-.54Z"/><path class="cls-4" d="M127.14,47.68a.28.28,0,1,1,0,.55.28.28,0,0,1,0-.55Z"/><path class="cls-3" d="M127.14,47.68a.28.28,0,1,1,0,.55.28.28,0,0,1,0-.55Z"/><path class="cls-4" d="M126.6,48.1a.27.27,0,0,1,.27.27.28.28,0,1,1-.55,0A.27.27,0,0,1,126.6,48.1Z"/><path class="cls-3" d="M126.6,48.1a.27.27,0,0,1,.27.27.28.28,0,1,1-.55,0A.27.27,0,0,1,126.6,48.1Z"/><path class="cls-4" d="M126,48.43a.28.28,0,1,1,0,.55.28.28,0,0,1,0-.55Z"/><path class="cls-3" d="M126,48.43a.28.28,0,1,1,0,.55.28.28,0,0,1,0-.55Z"/><path class="cls-4" d="M125.35,48.67a.28.28,0,1,1-.27.28A.27.27,0,0,1,125.35,48.67Z"/><path class="cls-3" d="M125.35,48.67a.28.28,0,1,1-.27.28A.27.27,0,0,1,125.35,48.67Z"/><path class="cls-4" d="M124.68,48.83a.26.26,0,0,1,.27.27.28.28,0,0,1-.27.27.28.28,0,0,1-.28-.27A.27.27,0,0,1,124.68,48.83Z"/><path class="cls-3" d="M124.68,48.83a.26.26,0,0,1,.27.27.28.28,0,0,1-.27.27.28.28,0,0,1-.28-.27A.27.27,0,0,1,124.68,48.83Z"/><path class="cls-4" d="M124.68,49.7a.27.27,0,1,1,0,.54.27.27,0,1,1,0-.54Z"/><path class="cls-3" d="M124.68,49.7a.27.27,0,1,1,0,.54.27.27,0,1,1,0-.54Z"/><path class="cls-4" d="M124.68,50.57a.28.28,0,0,1,0,.55.28.28,0,1,1,0-.55Z"/><path class="cls-3" d="M124.68,50.57a.28.28,0,0,1,0,.55.28.28,0,1,1,0-.55Z"/><path class="cls-4" d="M125.44,50.57a.28.28,0,1,1,0,.55.28.28,0,0,1,0-.55Z"/><path class="cls-3" d="M125.44,50.57a.28.28,0,1,1,0,.55.28.28,0,0,1,0-.55Z"/><path class="cls-4" d="M126.21,50.57a.28.28,0,1,1-.27.28A.27.27,0,0,1,126.21,50.57Z"/><path class="cls-3" d="M126.21,50.57a.28.28,0,1,1-.27.28A.27.27,0,0,1,126.21,50.57Z"/><line class="cls-5" x1="114.47" y1="20.56" x2="114.71" y2="20.56"/><line class="cls-5" x1="115.3" y1="20.56" x2="115.54" y2="20.56"/><line class="cls-5" x1="116.13" y1="20.56" x2="116.37" y2="20.56"/><line class="cls-5" x1="116.97" y1="20.56" x2="117.21" y2="20.56"/><line class="cls-5" x1="117.8" y1="20.56" x2="118.04" y2="20.56"/><line class="cls-5" x1="118.63" y1="20.56" x2="118.87" y2="20.56"/><line class="cls-5" x1="119.47" y1="20.56" x2="119.7" y2="20.56"/><line class="cls-5" x1="120.3" y1="20.56" x2="120.54" y2="20.56"/><line class="cls-5" x1="121.13" y1="20.56" x2="121.37" y2="20.56"/><line class="cls-5" x1="121.96" y1="20.56" x2="122.2" y2="20.56"/><line class="cls-5" x1="122.8" y1="20.56" x2="123.03" y2="20.56"/><line class="cls-5" x1="123.63" y1="20.56" x2="123.87" y2="20.56"/><line class="cls-5" x1="124.16" y1="20.26" x2="124.16" y2="19.9"/><line class="cls-5" x1="124.16" y1="19.31" x2="124.16" y2="18.95"/><line class="cls-5" x1="124.16" y1="18.36" x2="124.16" y2="18"/><line class="cls-5" x1="124.16" y1="17.4" x2="124.16" y2="17.05"/><line class="cls-5" x1="124.16" y1="16.45" x2="124.16" y2="16.1"/><line class="cls-5" x1="124.16" y1="15.5" x2="124.16" y2="15.14"/><line class="cls-5" x1="124.05" y1="14.57" x2="123.96" y2="14.35"/><line class="cls-5" x1="123.96" y1="13.8" x2="124.05" y2="13.58"/><line class="cls-5" x1="124.16" y1="13.01" x2="124.16" y2="12.65"/><line class="cls-5" x1="124.16" y1="12.06" x2="124.16" y2="11.7"/><line class="cls-5" x1="124.16" y1="11.1" x2="124.16" y2="10.75"/><line class="cls-5" x1="124.16" y1="10.15" x2="124.16" y2="9.8"/><line class="cls-5" x1="123.89" y1="9.39" x2="123.67" y2="9.3"/><line class="cls-5" x1="123.15" y1="9.02" x2="122.96" y2="8.87"/><line class="cls-5" x1="122.54" y1="8.46" x2="122.39" y2="8.27"/><line class="cls-5" x1="122.09" y1="7.77" x2="122" y2="7.55"/><line class="cls-5" x1="121.84" y1="6.98" x2="121.81" y2="6.74"/><line class="cls-5" x1="121.8" y1="6.15" x2="121.83" y2="5.91"/><line class="cls-5" x1="121.98" y1="5.35" x2="122.07" y2="5.13"/><line class="cls-5" x1="122.36" y1="4.61" x2="122.51" y2="4.42"/><line class="cls-5" x1="122.92" y1="4.01" x2="123.11" y2="3.86"/><line class="cls-5" x1="123.62" y1="3.56" x2="123.84" y2="3.47"/><line class="cls-5" x1="124.41" y1="3.32" x2="124.64" y2="3.29"/><line class="cls-5" x1="125.23" y1="3.29" x2="125.47" y2="3.32"/><line class="cls-5" x1="126.04" y1="3.47" x2="126.26" y2="3.56"/><line class="cls-5" x1="126.77" y1="3.86" x2="126.96" y2="4.01"/><line class="cls-5" x1="127.37" y1="4.42" x2="127.52" y2="4.61"/><line class="cls-5" x1="127.81" y1="5.13" x2="127.9" y2="5.35"/><line class="cls-5" x1="128.05" y1="5.91" x2="128.07" y2="6.15"/><line class="cls-5" x1="128.07" y1="6.74" x2="128.04" y2="6.98"/><line class="cls-5" x1="127.88" y1="7.55" x2="127.78" y2="7.77"/><line class="cls-5" x1="127.48" y1="8.27" x2="127.34" y2="8.46"/><line class="cls-5" x1="126.91" y1="8.87" x2="126.72" y2="9.02"/><line class="cls-5" x1="126.21" y1="9.3" x2="125.99" y2="9.39"/><line class="cls-5" x1="125.71" y1="9.8" x2="125.71" y2="10.15"/><line class="cls-5" x1="125.71" y1="10.75" x2="125.71" y2="11.1"/><line class="cls-5" x1="125.71" y1="11.7" x2="125.71" y2="12.06"/><line class="cls-5" x1="125.71" y1="12.65" x2="125.71" y2="13.01"/><line class="cls-5" x1="125.82" y1="13.58" x2="125.91" y2="13.8"/><line class="cls-5" x1="125.91" y1="14.35" x2="125.82" y2="14.57"/><line class="cls-5" x1="125.71" y1="15.14" x2="125.71" y2="15.5"/><line class="cls-5" x1="125.71" y1="16.1" x2="125.71" y2="16.45"/><line class="cls-5" x1="125.71" y1="17.05" x2="125.71" y2="17.4"/><line class="cls-5" x1="125.71" y1="18" x2="125.71" y2="18.36"/><line class="cls-5" x1="125.71" y1="18.95" x2="125.71" y2="19.31"/><line class="cls-5" x1="125.71" y1="19.9" x2="125.71" y2="20.26"/><line class="cls-5" x1="126.01" y1="20.56" x2="126.25" y2="20.56"/><line class="cls-5" x1="126.84" y1="20.56" x2="127.08" y2="20.56"/><line class="cls-5" x1="127.68" y1="20.56" x2="127.91" y2="20.56"/><line class="cls-5" x1="128.51" y1="20.56" x2="128.75" y2="20.56"/><line class="cls-5" x1="129.34" y1="20.56" x2="129.58" y2="20.56"/><line class="cls-5" x1="130.17" y1="20.56" x2="130.41" y2="20.56"/><line class="cls-5" x1="131" y1="20.56" x2="131.24" y2="20.56"/><line class="cls-5" x1="131.84" y1="20.56" x2="132.08" y2="20.56"/><line class="cls-5" x1="132.67" y1="20.56" x2="132.91" y2="20.56"/><path class="cls-6" d="M115,20.26a.3.3,0,1,1,0,.59.3.3,0,0,1,0-.59Z"/><path class="cls-5" d="M115,20.26a.3.3,0,1,1,0,.59.3.3,0,0,1,0-.59Z"/><path class="cls-6" d="M115.84,20.26a.3.3,0,1,1-.3.3A.29.29,0,0,1,115.84,20.26Z"/><path class="cls-5" d="M115.84,20.26a.3.3,0,1,1-.3.3A.29.29,0,0,1,115.84,20.26Z"/><path class="cls-6" d="M116.67,20.26a.3.3,0,1,1-.3.3A.3.3,0,0,1,116.67,20.26Z"/><path class="cls-5" d="M116.67,20.26a.3.3,0,1,1-.3.3A.3.3,0,0,1,116.67,20.26Z"/><path class="cls-6" d="M117.5,20.26a.3.3,0,1,1,0,.59.3.3,0,0,1,0-.59Z"/><path class="cls-5" d="M117.5,20.26a.3.3,0,1,1,0,.59.3.3,0,0,1,0-.59Z"/><path class="cls-6" d="M118.34,20.26a.3.3,0,1,1-.3.3A.29.29,0,0,1,118.34,20.26Z"/><path class="cls-5" d="M118.34,20.26a.3.3,0,1,1-.3.3A.29.29,0,0,1,118.34,20.26Z"/><path class="cls-6" d="M119.17,20.26a.3.3,0,1,1,0,.59.3.3,0,1,1,0-.59Z"/><path class="cls-5" d="M119.17,20.26a.3.3,0,1,1,0,.59.3.3,0,1,1,0-.59Z"/><path class="cls-6" d="M120,20.26a.3.3,0,1,1,0,.59.3.3,0,1,1,0-.59Z"/><path class="cls-5" d="M120,20.26a.3.3,0,1,1,0,.59.3.3,0,1,1,0-.59Z"/><path class="cls-6" d="M120.83,20.26a.3.3,0,1,1,0,.59.3.3,0,0,1,0-.59Z"/><path class="cls-5" d="M120.83,20.26a.3.3,0,1,1,0,.59.3.3,0,0,1,0-.59Z"/><path class="cls-6" d="M121.66,20.26a.3.3,0,1,1,0,.59.3.3,0,0,1,0-.59Z"/><path class="cls-5" d="M121.66,20.26a.3.3,0,1,1,0,.59.3.3,0,0,1,0-.59Z"/><path class="cls-6" d="M122.5,20.26a.3.3,0,1,1-.3.3A.3.3,0,0,1,122.5,20.26Z"/><path class="cls-5" d="M122.5,20.26a.3.3,0,1,1-.3.3A.3.3,0,0,1,122.5,20.26Z"/><path class="cls-6" d="M123.33,20.26a.3.3,0,1,1,0,.59.3.3,0,1,1,0-.59Z"/><path class="cls-5" d="M123.33,20.26a.3.3,0,1,1,0,.59.3.3,0,1,1,0-.59Z"/><path class="cls-6" d="M124.16,20.26a.3.3,0,1,1,0,.59.3.3,0,0,1,0-.59Z"/><path class="cls-5" d="M124.16,20.26a.3.3,0,1,1,0,.59.3.3,0,0,1,0-.59Z"/><path class="cls-6" d="M124.16,19.31a.3.3,0,1,1-.29.29A.29.29,0,0,1,124.16,19.31Z"/><path class="cls-5" d="M124.16,19.31a.3.3,0,1,1-.29.29A.29.29,0,0,1,124.16,19.31Z"/><path class="cls-6" d="M124.16,18.36a.3.3,0,1,1-.29.29A.29.29,0,0,1,124.16,18.36Z"/><path class="cls-5" d="M124.16,18.36a.3.3,0,1,1-.29.29A.29.29,0,0,1,124.16,18.36Z"/><path class="cls-6" d="M124.16,17.4a.3.3,0,0,1,.3.3.3.3,0,1,1-.59,0A.3.3,0,0,1,124.16,17.4Z"/><path class="cls-5" d="M124.16,17.4a.3.3,0,0,1,.3.3.3.3,0,1,1-.59,0A.3.3,0,0,1,124.16,17.4Z"/><path class="cls-6" d="M124.16,16.45a.3.3,0,1,1-.29.3A.3.3,0,0,1,124.16,16.45Z"/><path class="cls-5" d="M124.16,16.45a.3.3,0,1,1-.29.3A.3.3,0,0,1,124.16,16.45Z"/><path class="cls-6" d="M124.16,15.5a.29.29,0,0,1,.3.3.3.3,0,1,1-.59,0A.29.29,0,0,1,124.16,15.5Z"/><path class="cls-5" d="M124.16,15.5a.29.29,0,0,1,.3.3.3.3,0,1,1-.59,0A.29.29,0,0,1,124.16,15.5Z"/><path class="cls-6" d="M124.16,14.55a.3.3,0,1,1,0,.59.3.3,0,0,1,0-.59Z"/><path class="cls-5" d="M124.16,14.55a.3.3,0,1,1,0,.59.3.3,0,0,1,0-.59Z"/><path class="cls-6" d="M123.85,13.78a.3.3,0,0,1,.3.3.31.31,0,0,1-.3.3.3.3,0,0,1-.3-.3A.29.29,0,0,1,123.85,13.78Z"/><path class="cls-5" d="M123.85,13.78a.3.3,0,0,1,.3.3.31.31,0,0,1-.3.3.3.3,0,0,1-.3-.3A.29.29,0,0,1,123.85,13.78Z"/><path class="cls-6" d="M124.16,13a.3.3,0,1,1,0,.59.3.3,0,0,1,0-.59Z"/><path class="cls-5" d="M124.16,13a.3.3,0,1,1,0,.59.3.3,0,0,1,0-.59Z"/><path class="cls-6" d="M124.16,12.06a.3.3,0,1,1,0,.59.3.3,0,0,1,0-.59Z"/><path class="cls-5" d="M124.16,12.06a.3.3,0,1,1,0,.59.3.3,0,0,1,0-.59Z"/><path class="cls-6" d="M124.16,11.1a.3.3,0,0,1,.3.3.3.3,0,1,1-.59,0A.3.3,0,0,1,124.16,11.1Z"/><path class="cls-5" d="M124.16,11.1a.3.3,0,0,1,.3.3.3.3,0,1,1-.59,0A.3.3,0,0,1,124.16,11.1Z"/><path class="cls-6" d="M124.16,10.15a.3.3,0,1,1-.29.3A.3.3,0,0,1,124.16,10.15Z"/><path class="cls-5" d="M124.16,10.15a.3.3,0,1,1-.29.3A.3.3,0,0,1,124.16,10.15Z"/><path class="cls-6" d="M124.16,9.2a.3.3,0,1,1-.29.3A.3.3,0,0,1,124.16,9.2Z"/><path class="cls-5" d="M124.16,9.2a.3.3,0,1,1-.29.3A.3.3,0,0,1,124.16,9.2Z"/><path class="cls-6" d="M123.39,8.89a.31.31,0,0,1,.3.3.3.3,0,0,1-.6,0A.31.31,0,0,1,123.39,8.89Z"/><path class="cls-5" d="M123.39,8.89a.31.31,0,0,1,.3.3.3.3,0,0,1-.6,0A.31.31,0,0,1,123.39,8.89Z"/><path class="cls-6" d="M122.73,8.4a.3.3,0,0,1,0,.59.3.3,0,1,1,0-.59Z"/><path class="cls-5" d="M122.73,8.4a.3.3,0,0,1,0,.59.3.3,0,1,1,0-.59Z"/><path class="cls-6" d="M122.21,7.74a.3.3,0,0,1,.3.3.31.31,0,0,1-.3.3.3.3,0,0,1-.3-.3A.29.29,0,0,1,122.21,7.74Z"/><path class="cls-5" d="M122.21,7.74a.3.3,0,0,1,.3.3.31.31,0,0,1-.3.3.3.3,0,0,1-.3-.3A.29.29,0,0,1,122.21,7.74Z"/><path class="cls-6" d="M121.88,7a.3.3,0,0,1,.3.3.29.29,0,0,1-.3.3.3.3,0,0,1-.3-.3A.31.31,0,0,1,121.88,7Z"/><path class="cls-5" d="M121.88,7a.3.3,0,0,1,.3.3.29.29,0,0,1-.3.3.3.3,0,0,1-.3-.3A.31.31,0,0,1,121.88,7Z"/><path class="cls-6" d="M121.76,6.15a.3.3,0,1,1-.29.3A.3.3,0,0,1,121.76,6.15Z"/><path class="cls-5" d="M121.76,6.15a.3.3,0,1,1-.29.3A.3.3,0,0,1,121.76,6.15Z"/><path class="cls-6" d="M121.87,5.33a.3.3,0,0,1,0,.59.3.3,0,1,1,0-.59Z"/><path class="cls-5" d="M121.87,5.33a.3.3,0,0,1,0,.59.3.3,0,1,1,0-.59Z"/><path class="cls-6" d="M122.18,4.55a.3.3,0,1,1-.3.3A.31.31,0,0,1,122.18,4.55Z"/><path class="cls-5" d="M122.18,4.55a.3.3,0,1,1-.3.3A.31.31,0,0,1,122.18,4.55Z"/><path class="cls-6" d="M122.68,3.89a.3.3,0,1,1-.29.3A.3.3,0,0,1,122.68,3.89Z"/><path class="cls-5" d="M122.68,3.89a.3.3,0,1,1-.29.3A.3.3,0,0,1,122.68,3.89Z"/><path class="cls-6" d="M123.34,3.38a.3.3,0,1,1,0,.59.3.3,0,0,1,0-.59Z"/><path class="cls-5" d="M123.34,3.38a.3.3,0,1,1,0,.59.3.3,0,0,1,0-.59Z"/><path class="cls-6" d="M124.11,3.06a.3.3,0,1,1,0,.59.3.3,0,0,1,0-.59Z"/><path class="cls-5" d="M124.11,3.06a.3.3,0,1,1,0,.59.3.3,0,0,1,0-.59Z"/><path class="cls-6" d="M124.94,3a.3.3,0,1,1,0,.6.3.3,0,0,1,0-.6Z"/><path class="cls-5" d="M124.94,3a.3.3,0,1,1,0,.6.3.3,0,0,1,0-.6Z"/><path class="cls-6" d="M125.77,3.06a.3.3,0,1,1-.3.3A.29.29,0,0,1,125.77,3.06Z"/><path class="cls-5" d="M125.77,3.06a.3.3,0,1,1-.3.3A.29.29,0,0,1,125.77,3.06Z"/><path class="cls-6" d="M126.53,3.38a.3.3,0,1,1,0,.59.3.3,0,0,1,0-.59Z"/><path class="cls-5" d="M126.53,3.38a.3.3,0,1,1,0,.59.3.3,0,0,1,0-.59Z"/><path class="cls-6" d="M127.19,3.89a.3.3,0,0,1,0,.6.3.3,0,1,1,0-.6Z"/><path class="cls-5" d="M127.19,3.89a.3.3,0,0,1,0,.6.3.3,0,1,1,0-.6Z"/><path class="cls-6" d="M127.7,4.55a.3.3,0,1,1-.3.3A.3.3,0,0,1,127.7,4.55Z"/><path class="cls-5" d="M127.7,4.55a.3.3,0,1,1-.3.3A.3.3,0,0,1,127.7,4.55Z"/><path class="cls-6" d="M128,5.33a.3.3,0,0,1,0,.59.3.3,0,1,1,0-.59Z"/><path class="cls-5" d="M128,5.33a.3.3,0,0,1,0,.59.3.3,0,1,1,0-.59Z"/><path class="cls-6" d="M128.11,6.15a.3.3,0,1,1-.3.3A.31.31,0,0,1,128.11,6.15Z"/><path class="cls-5" d="M128.11,6.15a.3.3,0,1,1-.3.3A.31.31,0,0,1,128.11,6.15Z"/><path class="cls-6" d="M128,7a.3.3,0,0,1,.3.3.3.3,0,1,1-.59,0A.3.3,0,0,1,128,7Z"/><path class="cls-5" d="M128,7a.3.3,0,0,1,.3.3.3.3,0,1,1-.59,0A.3.3,0,0,1,128,7Z"/><path class="cls-6" d="M127.67,7.74a.3.3,0,0,1,.3.3.31.31,0,0,1-.3.3.3.3,0,0,1-.3-.3A.29.29,0,0,1,127.67,7.74Z"/><path class="cls-5" d="M127.67,7.74a.3.3,0,0,1,.3.3.31.31,0,0,1-.3.3.3.3,0,0,1-.3-.3A.29.29,0,0,1,127.67,7.74Z"/><path class="cls-6" d="M127.15,8.4a.3.3,0,1,1,0,.59.3.3,0,1,1,0-.59Z"/><path class="cls-5" d="M127.15,8.4a.3.3,0,1,1,0,.59.3.3,0,1,1,0-.59Z"/><path class="cls-6" d="M126.49,8.89a.3.3,0,0,1,.29.3.3.3,0,1,1-.59,0A.3.3,0,0,1,126.49,8.89Z"/><path class="cls-5" d="M126.49,8.89a.3.3,0,0,1,.29.3.3.3,0,1,1-.59,0A.3.3,0,0,1,126.49,8.89Z"/><path class="cls-6" d="M125.71,9.2a.3.3,0,1,1-.3.3A.31.31,0,0,1,125.71,9.2Z"/><path class="cls-5" d="M125.71,9.2a.3.3,0,1,1-.3.3A.31.31,0,0,1,125.71,9.2Z"/><path class="cls-6" d="M125.71,10.15a.3.3,0,1,1-.3.3A.31.31,0,0,1,125.71,10.15Z"/><path class="cls-5" d="M125.71,10.15a.3.3,0,1,1-.3.3A.31.31,0,0,1,125.71,10.15Z"/><path class="cls-6" d="M125.71,11.1a.31.31,0,0,1,.3.3.3.3,0,0,1-.6,0A.31.31,0,0,1,125.71,11.1Z"/><path class="cls-5" d="M125.71,11.1a.31.31,0,0,1,.3.3.3.3,0,0,1-.6,0A.31.31,0,0,1,125.71,11.1Z"/><path class="cls-6" d="M125.71,12.06a.3.3,0,1,1-.3.3A.3.3,0,0,1,125.71,12.06Z"/><path class="cls-5" d="M125.71,12.06a.3.3,0,1,1-.3.3A.3.3,0,0,1,125.71,12.06Z"/><path class="cls-6" d="M125.71,13a.3.3,0,1,1-.3.3A.3.3,0,0,1,125.71,13Z"/><path class="cls-5" d="M125.71,13a.3.3,0,1,1-.3.3A.3.3,0,0,1,125.71,13Z"/><path class="cls-6" d="M126,13.78a.29.29,0,0,1,.3.3.3.3,0,0,1-.3.3.31.31,0,0,1-.3-.3A.3.3,0,0,1,126,13.78Z"/><path class="cls-5" d="M126,13.78a.29.29,0,0,1,.3.3.3.3,0,0,1-.3.3.31.31,0,0,1-.3-.3A.3.3,0,0,1,126,13.78Z"/><path class="cls-6" d="M125.71,14.55a.3.3,0,1,1-.3.3A.3.3,0,0,1,125.71,14.55Z"/><path class="cls-5" d="M125.71,14.55a.3.3,0,1,1-.3.3A.3.3,0,0,1,125.71,14.55Z"/><path class="cls-6" d="M125.71,15.5a.3.3,0,0,1,.3.3.3.3,0,0,1-.6,0A.3.3,0,0,1,125.71,15.5Z"/><path class="cls-5" d="M125.71,15.5a.3.3,0,0,1,.3.3.3.3,0,0,1-.6,0A.3.3,0,0,1,125.71,15.5Z"/><path class="cls-6" d="M125.71,16.45a.3.3,0,1,1-.3.3A.31.31,0,0,1,125.71,16.45Z"/><path class="cls-5" d="M125.71,16.45a.3.3,0,1,1-.3.3A.31.31,0,0,1,125.71,16.45Z"/><path class="cls-6" d="M125.71,17.4a.31.31,0,0,1,.3.3.3.3,0,0,1-.6,0A.31.31,0,0,1,125.71,17.4Z"/><path class="cls-5" d="M125.71,17.4a.31.31,0,0,1,.3.3.3.3,0,0,1-.6,0A.31.31,0,0,1,125.71,17.4Z"/><path class="cls-6" d="M125.71,18.36a.3.3,0,1,1-.3.29A.3.3,0,0,1,125.71,18.36Z"/><path class="cls-5" d="M125.71,18.36a.3.3,0,1,1-.3.29A.3.3,0,0,1,125.71,18.36Z"/><path class="cls-6" d="M125.71,19.31a.3.3,0,1,1-.3.29A.3.3,0,0,1,125.71,19.31Z"/><path class="cls-5" d="M125.71,19.31a.3.3,0,1,1-.3.29A.3.3,0,0,1,125.71,19.31Z"/><path class="cls-6" d="M125.71,20.26a.3.3,0,1,1-.3.3A.3.3,0,0,1,125.71,20.26Z"/><path class="cls-5" d="M125.71,20.26a.3.3,0,1,1-.3.3A.3.3,0,0,1,125.71,20.26Z"/><path class="cls-6" d="M126.54,20.26a.3.3,0,1,1,0,.59.3.3,0,0,1,0-.59Z"/><path class="cls-5" d="M126.54,20.26a.3.3,0,1,1,0,.59.3.3,0,0,1,0-.59Z"/><path class="cls-6" d="M127.38,20.26a.3.3,0,1,1,0,.59.3.3,0,1,1,0-.59Z"/><path class="cls-5" d="M127.38,20.26a.3.3,0,1,1,0,.59.3.3,0,1,1,0-.59Z"/><path class="cls-6" d="M128.21,20.26a.3.3,0,1,1-.3.3A.3.3,0,0,1,128.21,20.26Z"/><path class="cls-5" d="M128.21,20.26a.3.3,0,1,1-.3.3A.3.3,0,0,1,128.21,20.26Z"/><path class="cls-6" d="M129,20.26a.3.3,0,1,1,0,.59.3.3,0,0,1,0-.59Z"/><path class="cls-5" d="M129,20.26a.3.3,0,1,1,0,.59.3.3,0,0,1,0-.59Z"/><path class="cls-6" d="M129.87,20.26a.3.3,0,1,1,0,.59.3.3,0,0,1,0-.59Z"/><path class="cls-5" d="M129.87,20.26a.3.3,0,1,1,0,.59.3.3,0,0,1,0-.59Z"/><path class="cls-6" d="M130.71,20.26a.3.3,0,1,1-.3.3A.29.29,0,0,1,130.71,20.26Z"/><path class="cls-5" d="M130.71,20.26a.3.3,0,1,1-.3.3A.29.29,0,0,1,130.71,20.26Z"/><path class="cls-6" d="M131.54,20.26a.3.3,0,1,1,0,.59.3.3,0,1,1,0-.59Z"/><path class="cls-5" d="M131.54,20.26a.3.3,0,1,1,0,.59.3.3,0,1,1,0-.59Z"/><path class="cls-6" d="M132.37,20.26a.3.3,0,1,1,0,.59.3.3,0,0,1,0-.59Z"/><path class="cls-5" d="M132.37,20.26a.3.3,0,1,1,0,.59.3.3,0,0,1,0-.59Z"/><path class="cls-6" d="M133.21,20.26a.3.3,0,1,1,0,.59.3.3,0,1,1,0-.59Z"/><path class="cls-5" d="M133.21,20.26a.3.3,0,1,1,0,.59.3.3,0,1,1,0-.59Z"/><line class="cls-7" x1="47.13" y1="38.65" x2="58.31" y2="38.65"/><line class="cls-8" x1="4.33" y1="38.65" x2="16.47" y2="38.65"/><path class="cls-9" d="M6.41,38.65A2.15,2.15,0,1,1,4.26,36.5,2.16,2.16,0,0,1,6.41,38.65Z"/><text class="cls-10" transform="translate(60.84 41.79)">A</text><path class="cls-7" d="M18.91,76.85H17.69c-.67,0-1.22-4-1.22-9V11.66c0-4.95.55-9,1.22-9h1.22"/><path class="cls-7" d="M44.8,77H46c.64,0,1.16-4,1.16-9V11.8c0-5-.52-9-1.16-9H44.8"/><rect class="cls-11" x="20.89" y="68.37" width="21.93" height="4.83"/><rect class="cls-12" x="20.89" y="60.77" width="21.93" height="4.83"/><rect class="cls-13" x="20.89" y="53.16" width="21.93" height="4.83"/><rect class="cls-14" x="20.89" y="45.56" width="21.93" height="4.83"/><rect class="cls-15" x="20.89" y="37.96" width="21.93" height="4.83"/><rect class="cls-16" x="20.89" y="30.35" width="21.93" height="4.83"/><rect class="cls-17" x="20.89" y="22.75" width="21.93" height="4.83"/><rect class="cls-18" x="20.89" y="15.14" width="21.93" height="4.83"/><rect class="cls-19" x="20.89" y="7.54" width="21.93" height="4.83"/><path class="cls-20" d="M94.43,104.71s7.43-7,11.92-7.25,9.81,4.67,15.06,3.92,17.37-11.67,17.37-11.67"/><line class="cls-21" x1="8.61" y1="112.25" x2="122.53" y2="112.25"/><rect class="cls-11" x="27.88" y="109.83" width="77.44" height="4.83"/><path class="cls-22" d="M97.16,101.18c0,7.45-8.77,13.48-19.62,13.48s-19.62-6-19.62-13.48,8.79-13.49,19.62-13.49S97.16,93.73,97.16,101.18Z"/><path class="cls-22" d="M91.75,119.77c0,5.33-6.46,9.64-14.42,9.64s-14.42-4.31-14.42-9.64,6.46-9.63,14.42-9.63S91.75,114.45,91.75,119.77Z"/><line class="cls-7" x1="73.14" y1="62.28" x2="73.14" y2="76.54"/><polygon class="cls-23" points="69.92 75.6 73.16 81.21 76.4 75.6 69.92 75.6"/><line class="cls-7" x1="81.52" y1="62.28" x2="81.52" y2="79.72"/><rect class="cls-23" x="78.43" y="79.24" width="6.17" height="0.95"/><line class="cls-7" x1="77.36" y1="133.28" x2="77.33" y2="140.09"/><polygon class="cls-23" points="74.11 139.13 77.33 144.76 80.59 139.16 74.11 139.13"/><g class="cls-24"><path class="cls-25" d="M46.13,151.39c.41,7.77-5.81,14.42-13.91,14.85s-15-5.52-15.4-13.28a13.7,13.7,0,0,1,3-9.32.86.86,0,0,1,0,.16c.14,2.6,21.94,2.26,22.62-.68,0-.29,0-.58-.07-.85,2.3,2,3.51,5,3.73,9.12"/><path class="cls-26" d="M46.13,151.39c.41,7.77-5.81,14.42-13.91,14.85s-15-5.52-15.4-13.28a13.7,13.7,0,0,1,3-9.32.86.86,0,0,1,0,.16c.14,2.6,21.94,2.26,22.62-.68,0-.29,0-.58-.07-.85,2.3,2,3.51,5,3.73,9.12"/><rect class="cls-27" x="16.58" y="141.73" width="29.79" height="24.76"/></g><path class="cls-28" d="M42.4,142.27c0,.27.06.56.07.85-1.08,4.68-22.39,4.92-22.62.68,0-.05,0-.11,0-.16.19-.23.37-.46.57-.67,2.52-2.79,7.18-4.14,13.25-3.73,3.81.26,6.7,1.24,8.74,3"/><path class="cls-26" d="M42.4,142.27c0,.27.06.56.07.85-1.08,4.68-22.39,4.92-22.62.68,0-.05,0-.11,0-.16.19-.23.37-.46.57-.67,2.52-2.79,7.18-4.14,13.25-3.73,3.81.26,6.7,1.24,8.74,3"/><g class="cls-29"><path class="cls-30" d="M42.4,142.27c-2-1.79-4.93-2.77-8.74-3-6.07-.41-10.73.94-13.25,3.73-.2.21.06.44-.13.67-.49-12.87,20.61-15.07,22.12-1.37"/><rect class="cls-27" x="20.28" y="132.94" width="22.13" height="10.69"/></g><path class="cls-31" d="M42.4,142.27c2.3,2,3.51,5,3.73,9.12.41,7.77-5.81,14.42-13.91,14.85s-15-5.52-15.4-13.28a13.7,13.7,0,0,1,3-9.32c.19-.23.37-.46.57-.67,2.52-2.79,7.18-4.14,13.25-3.73C37.47,139.5,40.36,140.48,42.4,142.27Z"/><path class="cls-32" d="M42.72,142.94a5.29,5.29,0,0,0-.07-.9c-2.57-13.59-20-14.21-23,1.44a.5.5,0,0,0,0,.17c.26,5,22,4.37,23.11-.71"/><path class="cls-33" d="M119.63,134.88c-3.46,0-13.1-.67-17,8.71-4.37,10.45,6.33,20.13,7.65,21.09s5.19,2.33,6.39-2-.4-5.73-.4-5.73a10.64,10.64,0,0,0,7.25.54s5.72-1.73,6.52-5.92a11.36,11.36,0,0,0-1.2-7.46h32.34s4.66-.26,4.66-4.45-4.33-4.86-4.33-4.86Z"/><path class="cls-34" d="M130.71,149.35c0,5-4.56,9.05-10.18,9.05s-10.18-4.06-10.18-9.05,4.56-9,10.18-9h23.52s1.86.67,1.86,2.13-1.73,2.13-1.73,2.13h-15S130.71,147.59,130.71,149.35Z"/><path class="cls-35" d="M105.83,158.53a2,2,0,0,1,2.59-1.27s-9.51-16.43,7.39-22.29"/><ellipse class="cls-36" cx="106.03" cy="150.54" rx="1.13" ry="2.2"/><path class="cls-35" d="M106.63,159.66a1.94,1.94,0,0,1,2.59-1.26"/><ellipse class="cls-37" cx="112.41" cy="160.79" rx="2.46" ry="3.13"/><circle class="cls-38" cx="112.41" cy="160.79" r="1.2"/><line class="cls-39" x1="113.15" y1="159.73" x2="113.81" y2="159.06"/><path class="cls-40" d="M148.83,134.82c9,0,16.24,1.31,16.24,2.92s-7.27,2.91-16.24,2.91c-1.51,0-3,0-4.36-.1"/><line class="cls-41" x1="58.88" y1="149.94" x2="91.08" y2="149.94"/><polygon class="cls-42" points="90.13 153.16 95.74 149.92 90.13 146.68 90.13 153.16"/><line class="cls-7" x1="140.34" y1="38.65" x2="151.52" y2="38.65"/><line class="cls-8" x1="97.54" y1="38.65" x2="109.68" y2="38.65"/><path class="cls-9" d="M99.62,38.65a2.15,2.15,0,1,1-2.15-2.15A2.16,2.16,0,0,1,99.62,38.65Z"/><text class="cls-10" transform="translate(154.05 41.79)">A</text><path class="cls-7" d="M112.12,76.85H110.9c-.67,0-1.22-4-1.22-9V11.66c0-4.95.55-9,1.22-9h1.22"/><path class="cls-7" d="M138,77h1.16c.65,0,1.17-4,1.17-9V11.8c0-5-.52-9-1.17-9H138"/></svg>